<svg width="96" height="97" viewBox="0 0 96 97" fill="none" xmlns="http://www.w3.org/2000/svg">
<g clip-path="url(#clip0_1021_11654)">
<path d="M30.8435 0.53478C30.9749 0.534882 31.1063 0.534984 31.2417 0.535089C37.7775 0.558325 43.2674 3.09248 47.9998 7.54259C48.1105 7.64121 48.2212 7.73982 48.3352 7.84142C52.2472 11.4753 54.4744 17.1158 54.9373 22.3551C54.9614 23.074 54.9592 23.7921 54.9556 24.5113C54.9552 24.814 54.9552 24.814 54.9548 25.1229C54.9538 25.7628 54.9514 26.4027 54.949 27.0426C54.9481 27.4784 54.9472 27.9142 54.9464 28.35C54.9445 29.4142 54.9409 30.4784 54.9373 31.5426C52.091 31.5426 49.2448 31.5426 46.3123 31.5426C46.2537 27.4059 46.2537 27.4059 46.2396 26.119C46.1939 23.1632 45.9317 20.5545 44.6248 17.8551C44.5419 17.6818 44.459 17.5085 44.3736 17.3299C42.5673 13.7925 39.4492 11.3438 35.7537 10.0035C31.6624 8.74729 27.5454 9.1291 23.7341 11.0782C22.7356 11.6122 21.8559 12.2387 20.9998 12.9801C20.8509 13.0925 20.702 13.2049 20.5486 13.3207C17.7279 15.6954 16.2583 19.358 15.7498 22.9176C15.6879 27.1251 15.626 31.3326 15.5623 35.6676C29.4842 35.6676 43.406 35.6676 57.7498 35.6676C57.7498 39.5038 57.7498 43.3401 57.7498 47.2926C58.8635 46.9832 59.9773 46.6738 61.1248 46.3551C62.8792 45.9859 64.5879 45.9049 66.3748 45.9098C66.5106 45.9098 66.6463 45.9099 66.7862 45.9099C69.032 45.9164 71.1473 46.109 73.3123 46.7301C73.4995 46.7813 73.4995 46.7813 73.6904 46.8335C77.1664 47.8025 80.3212 49.6611 83.0623 51.9801C83.2146 52.107 83.3668 52.2339 83.5237 52.3646C88.4426 56.6085 91.3332 62.8021 91.8748 69.2301C92.2949 76.2715 90.1426 83.0411 85.4399 88.3641C83.5732 90.4136 81.5332 92.0448 79.1248 93.4176C78.9317 93.5326 78.7386 93.6477 78.5396 93.7662C77.2014 94.5411 77.2014 94.5411 76.6617 94.547C76.1126 94.2454 76.0173 93.8146 75.7967 93.2418C75.6763 92.9376 75.6763 92.9376 75.5535 92.6273C75.3748 92.1051 75.3748 92.1051 75.3748 91.7301C75.5875 91.6213 75.8002 91.5126 76.0193 91.4005C77.4546 90.6584 78.7939 89.9271 80.0623 88.9176C80.186 88.9176 80.3098 88.9176 80.4373 88.9176C80.4296 86.3904 80.4296 86.3904 79.1826 84.2924C77.6568 83.0439 75.7267 82.5884 73.8513 82.1207C73.6541 82.0704 73.4569 82.0202 73.2537 81.9684C72.7735 81.8461 72.2931 81.7251 71.8123 81.6051C71.7625 81.775 71.7127 81.9449 71.6614 82.12C71.1443 83.5276 69.9566 84.5278 68.6248 85.1676C67.309 85.6196 65.1971 85.6138 63.9197 85.0255C62.6985 84.2297 61.7016 83.3334 61.1248 81.9801C61.1248 81.8563 61.1248 81.7326 61.1248 81.6051C60.3805 81.7986 59.6371 81.9952 58.8943 82.1945C58.6424 82.2616 58.3902 82.328 58.1377 82.3935C56.1421 82.9123 54.2776 83.3998 53.0623 85.1676C52.6735 85.9522 52.6097 86.7081 52.5701 87.5699C52.5629 87.6999 52.5556 87.8298 52.5481 87.9636C52.5306 88.2815 52.515 88.5996 52.4998 88.9176C52.6011 88.9652 52.7023 89.0128 52.8067 89.0619C53.3392 89.3392 53.834 89.6602 54.3396 89.984C59.297 93.0726 65.1859 94.3751 70.9532 93.1324C71.2395 93.0654 71.5257 92.9982 71.8119 92.9308C72.2554 92.8414 72.6737 92.826 73.1248 92.8551C73.2504 93.2533 73.3753 93.6518 73.4998 94.0504C73.5694 94.2723 73.639 94.4942 73.7107 94.7228C73.8748 95.2926 73.8748 95.2926 73.8748 95.6676C73.4023 95.7895 72.9297 95.9105 72.4568 96.0309C72.3247 96.0651 72.1926 96.0993 72.0565 96.1345C71.9254 96.1677 71.7943 96.201 71.6592 96.2352C71.481 96.2809 71.481 96.2809 71.2992 96.3275C67.6292 97.1069 63.2181 96.886 59.6248 95.8551C59.5 95.821 59.3752 95.7869 59.2467 95.7517C55.7783 94.7849 52.6027 92.9304 49.8748 90.6051C49.695 90.4528 49.5151 90.3006 49.3299 90.1437C45.8217 87.097 43.2548 82.8841 41.9998 78.4176C41.9998 78.2938 41.9998 78.1701 41.9998 78.0426C41.8235 78.0433 41.6473 78.044 41.4657 78.0447C37.1746 78.0613 32.8836 78.0737 28.5925 78.0815C26.5173 78.0853 24.4422 78.0906 22.3671 78.0992C20.5581 78.1067 18.7492 78.1115 16.9402 78.1132C15.9826 78.1141 15.0251 78.1164 14.0675 78.1219C13.1655 78.127 12.2635 78.1285 11.3615 78.1274C11.0311 78.1276 10.7008 78.1291 10.3704 78.132C6.86538 78.1611 6.86538 78.1611 5.37357 76.9308C5.27471 76.8104 5.17586 76.69 5.07401 76.566C4.97177 76.4466 4.86953 76.3272 4.76419 76.2042C4.12361 75.207 4.07119 74.207 4.07969 73.0517C4.07921 72.8114 4.07921 72.8114 4.07872 72.5662C4.07811 72.0307 4.08017 71.4953 4.08222 70.9598C4.08232 70.5754 4.08226 70.191 4.08205 69.8066C4.08194 68.7638 4.08415 67.7211 4.08677 66.6783C4.08911 65.5882 4.08933 64.4982 4.08978 63.4081C4.09094 61.3443 4.09402 59.2805 4.09778 57.2167C4.10197 54.8669 4.10404 52.5172 4.10592 50.1674C4.10984 45.3341 4.11643 40.5009 4.12479 35.6676C5.05291 35.6676 5.98104 35.6676 6.93729 35.6676C6.93434 35.282 6.9314 34.8964 6.92836 34.4991C6.91896 33.2112 6.9128 31.9232 6.90815 30.6353C6.90524 29.856 6.9013 29.0767 6.89486 28.2974C6.88865 27.5424 6.88536 26.7875 6.88392 26.0325C6.8829 25.7474 6.8809 25.4624 6.87782 25.1774C6.81271 18.9029 8.96042 13.5912 12.7498 8.66759C13.4619 8.91453 13.941 9.21445 14.4959 9.72228C14.6266 9.84071 14.7574 9.95915 14.8921 10.0812C15.0382 10.2168 15.0382 10.2168 15.1873 10.3551C14.9348 11.0706 14.6127 11.589 14.1443 12.1832C11.1646 16.214 10.0497 20.7799 10.0288 25.725C10.0257 26.0147 10.0223 26.3044 10.0186 26.5941C10.0099 27.3446 10.0042 28.0951 9.99925 28.8457C9.99359 29.6164 9.98489 30.387 9.97647 31.1577C9.96049 32.661 9.94808 34.1643 9.93729 35.6676C10.8035 35.6676 11.6698 35.6676 12.5623 35.6676C12.5593 35.2857 12.5564 34.9038 12.5534 34.5104C12.544 33.2366 12.5378 31.9629 12.5331 30.6892C12.5302 29.9183 12.5263 29.1474 12.5199 28.3765C12.5137 27.63 12.5104 26.8836 12.5089 26.1371C12.5079 25.8549 12.5059 25.5727 12.5028 25.2905C12.4483 20.0792 14.1085 15.4037 17.7081 11.5901C21.0264 8.20514 25.5259 6.25622 30.2481 6.1411C33.4208 6.11919 36.1227 6.5281 38.9998 7.91759C39.1661 7.9959 39.3324 8.07421 39.5037 8.1549C43.7039 10.2794 46.8045 14.0131 48.3748 18.4176C48.9601 20.2656 49.3453 22.0776 49.3306 24.0243C49.3302 24.2275 49.3302 24.2275 49.3298 24.4348C49.3288 24.8627 49.3264 25.2905 49.324 25.7184C49.3231 26.0105 49.3222 26.3026 49.3214 26.5947C49.3195 27.3065 49.3159 28.0183 49.3123 28.7301C50.1785 28.7301 51.0448 28.7301 51.9373 28.7301C51.8042 20.9524 50.6828 14.7456 44.9859 9.02721C41.026 5.31616 35.7124 3.62297 30.3594 3.59264C25.3069 3.76157 20.9846 5.79569 17.0623 8.85509C16.3274 8.14182 15.6577 7.38964 14.9998 6.60509C19.0642 2.38376 25.113 0.51798 30.8435 0.53478ZM7.12479 38.6676C7.10545 44.4954 7.08612 50.3233 7.0662 56.3278C7.05766 58.1693 7.04913 60.0109 7.04033 61.9082C7.0372 63.556 7.0372 63.556 7.03531 65.2038C7.03444 65.939 7.03092 66.674 7.02581 67.4092C7.01939 68.3464 7.01745 69.2835 7.01878 70.2207C7.01851 70.5649 7.01664 70.9092 7.01303 71.2535C7.00837 71.7181 7.00948 72.1824 7.01205 72.647C7.00796 72.8497 7.00796 72.8497 7.00378 73.0565C7.01403 73.7453 7.1146 74.0907 7.51479 74.6579C8.20508 75.1429 8.59511 75.1583 9.43495 75.1553C9.57128 75.1561 9.7076 75.1569 9.84806 75.1578C10.3039 75.1593 10.7594 75.1542 11.2152 75.149C11.5423 75.1488 11.8694 75.1489 12.1965 75.1494C13.084 75.1497 13.9714 75.1442 14.8589 75.1376C15.7865 75.1318 16.7141 75.1312 17.6418 75.1301C19.3982 75.1272 21.1546 75.1195 22.9109 75.1101C24.9106 75.0996 26.9103 75.0945 28.91 75.0898C33.0233 75.08 37.1365 75.0635 41.2498 75.0426C41.2486 74.8711 41.2475 74.6996 41.2463 74.5229C41.2424 73.8775 41.2397 73.232 41.2376 72.5866C41.2365 72.309 41.2349 72.0313 41.233 71.7537C41.2184 69.6149 41.3188 67.5682 41.8123 65.4801C41.8415 65.3508 41.8707 65.2215 41.9007 65.0883C43.351 58.8806 47.2965 53.6672 52.4998 50.1051C53.6135 49.4554 53.6135 49.4554 54.7498 48.7926C54.7498 45.4513 54.7498 42.1101 54.7498 38.6676C39.0335 38.6676 23.3173 38.6676 7.12479 38.6676ZM52.3123 53.8551C52.211 53.9376 52.1097 54.0201 52.0053 54.1051C47.5494 57.7979 44.6979 63.2112 44.0995 68.965C43.6205 74.7904 45.1581 80.7353 48.9256 85.2965C49.117 85.5111 49.117 85.5111 49.3123 85.7301C49.7279 85.5767 49.7279 85.5767 49.8286 85.139C49.9037 84.8805 49.9037 84.8805 49.9803 84.6168C50.5371 83.0249 51.701 81.6929 53.1802 80.8683C55.5752 79.7872 58.2124 79.2437 60.7498 78.6051C60.8891 77.2468 60.8891 77.2468 60.3858 76.0445C60.2236 75.9305 60.0614 75.8164 59.8943 75.6988C58.2215 74.3668 57.255 72.6298 56.8123 70.5426C56.6946 69.3556 56.7042 68.1632 56.7145 66.9717C56.7185 66.4187 56.7145 65.8661 56.7098 65.3131C56.7049 62.133 57.3224 59.3973 59.6248 57.0426C62.307 54.8314 65.0708 54.3658 68.4373 54.6051C70.7364 55.0299 72.9641 56.4012 74.3553 58.2731C75.31 59.6851 76.1305 61.3615 76.1609 63.0934C76.164 63.25 76.167 63.4067 76.1701 63.5681C76.1785 64.2886 76.1861 65.0092 76.1904 65.7298C76.1935 66.1069 76.1986 66.4839 76.2058 66.861C76.2674 70.1069 75.9562 72.704 73.6873 75.2301C73.4099 75.4537 73.1288 75.6728 72.8435 75.8863C72.361 76.2715 72.2008 76.4343 72.1232 77.0579C72.1308 77.2417 72.1384 77.4255 72.1463 77.6149C72.1552 77.8931 72.1552 77.8931 72.1642 78.177C72.1718 78.3183 72.1794 78.4595 72.1873 78.6051C72.3479 78.6466 72.5084 78.6881 72.6739 78.7309C73.2787 78.8879 73.8832 79.046 74.4875 79.2048C74.7475 79.2728 75.0075 79.3405 75.2676 79.4076C78.0536 80.1278 80.8517 80.908 82.4998 83.4801C82.8497 84.217 83.1535 84.9655 83.4373 85.7301C86.7893 82.6828 88.6459 77.3173 88.9025 72.8748C89.1224 66.869 87.3859 61.2308 83.4373 56.6676C83.3131 56.5163 83.1888 56.365 83.0608 56.2091C79.3455 51.8357 73.6322 49.3388 67.992 48.8395C62.3396 48.4921 56.6887 50.2481 52.3123 53.8551ZM61.5826 59.1717C60.6901 60.19 59.9855 61.3612 59.6248 62.6676C59.6766 63.0965 59.6766 63.0965 59.8123 63.4176C59.9435 63.3567 60.0747 63.2958 60.2099 63.2331C60.8053 63.023 61.2581 62.995 61.8883 62.9941C62.1136 62.9929 62.3389 62.9917 62.571 62.9905C62.8128 62.9912 63.0546 62.992 63.3037 62.9928C63.5561 62.9925 63.8085 62.9922 64.0609 62.9917C64.5891 62.9911 65.1172 62.992 65.6453 62.9937C66.3201 62.9958 66.9949 62.9946 67.6697 62.9924C68.1907 62.991 68.7117 62.9914 69.2327 62.9924C69.6018 62.9928 69.9709 62.9916 70.34 62.9905C70.5659 62.9917 70.7918 62.9929 71.0245 62.9941C71.3213 62.9945 71.3213 62.9945 71.6241 62.995C72.2352 63.0466 72.74 63.2021 73.3123 63.4176C73.2154 61.932 72.5567 60.488 71.5581 59.3754C68.6356 56.8138 64.5864 56.476 61.5826 59.1717ZM60.4099 66.4996C59.5733 67.4796 59.5438 68.0807 59.5662 69.3385C59.7253 71.0812 60.6204 72.5559 61.9012 73.7198C63.6226 75.1192 65.2905 75.5782 67.4998 75.4176C69.5591 75.0555 71.1623 73.9118 72.3748 72.2301C73.2862 70.7065 73.4712 69.3166 73.3123 67.5426C72.9148 66.6886 72.4774 66.2502 71.6248 65.8551C70.6971 65.5975 69.7511 65.6372 68.7962 65.6361C68.6133 65.6355 68.4305 65.6348 68.2421 65.6342C67.856 65.6333 67.4699 65.6328 67.0838 65.6329C66.4954 65.6324 65.907 65.629 65.3186 65.6255C64.9427 65.6249 64.5667 65.6246 64.1907 65.6244C64.0159 65.623 63.841 65.6217 63.6609 65.6203C62.423 65.6246 61.3823 65.6569 60.4099 66.4996ZM63.7498 78.0426C63.6291 79.8238 63.6291 79.8238 64.3123 81.4176C64.9887 82.094 65.6157 82.3982 66.5623 82.5426C67.4192 82.4006 68.0437 82.0739 68.6131 81.4176C69.1639 80.6164 69.2092 80.0837 69.199 79.1324C69.1973 78.9287 69.1956 78.7249 69.1939 78.515C69.1917 78.3591 69.1895 78.2032 69.1873 78.0426C68.9997 78.0731 68.8122 78.1035 68.6189 78.1349C67.8999 78.2372 67.1953 78.255 66.4685 78.2535C66.1176 78.2543 66.1176 78.2543 65.7596 78.255C65.0711 78.2304 64.4285 78.1528 63.7498 78.0426Z" fill="white"/>
<path d="M35.9922 47.8918C36.4256 48.0625 36.6501 48.2497 36.9765 48.5802C37.0891 48.6928 37.2016 48.8054 37.3176 48.9214C37.4368 49.0435 37.5559 49.1656 37.6787 49.2913C37.8025 49.4159 37.9263 49.5405 38.0538 49.6689C38.4487 50.0669 38.8415 50.4668 39.2344 50.8668C39.5018 51.1371 39.7694 51.4072 40.0371 51.6772C40.6929 52.3392 41.3469 53.0029 42 53.6676C41.693 54.4506 41.1192 54.9735 40.5325 55.5526C40.4209 55.6643 40.3093 55.776 40.1943 55.891C39.8259 56.2592 39.4562 56.626 39.0864 56.9928C38.8304 57.248 38.5746 57.5034 38.3187 57.7588C37.6457 58.4304 36.9716 59.1009 36.2973 59.7711C35.6091 60.4554 34.922 61.1407 34.2349 61.826C32.8868 63.1701 31.5375 64.5129 30.1875 65.8551C29.4705 65.559 29.0182 65.106 28.4745 64.5597C28.3812 64.4664 28.2878 64.373 28.1916 64.2769C27.8843 63.9694 27.5784 63.6605 27.2725 63.3517C27.0592 63.1377 26.8459 62.9239 26.6325 62.7101C26.0719 62.148 25.5124 61.5849 24.9532 61.0215C24.382 60.4465 23.8097 59.8725 23.2375 59.2984C22.1157 58.1725 20.995 57.0454 19.875 55.9176C20.6062 55.0422 21.366 54.213 22.1763 53.4105C22.2829 53.3041 22.3895 53.1978 22.4993 53.0882C22.8351 52.7535 23.1714 52.4195 23.5078 52.0855C23.7376 51.8567 23.9673 51.6278 24.197 51.3989C24.7558 50.8421 25.3153 50.2859 25.875 49.7301C26.8249 50.5247 27.7126 51.3565 28.582 52.2379C28.7609 52.4181 28.7609 52.4181 28.9435 52.6019C29.2336 52.8942 29.5233 53.1869 29.8125 53.4801C30.6661 52.7872 31.4455 52.0424 32.2112 51.2542C32.3081 51.155 32.405 51.0557 32.5048 50.9534C32.9106 50.5375 33.316 50.1213 33.7179 49.7017C34.0143 49.3929 34.3136 49.087 34.6135 48.7816C34.704 48.6857 34.7944 48.5898 34.8876 48.4911C35.5282 47.8454 35.5282 47.8454 35.9922 47.8918ZM35.5693 52.2007C35.4664 52.304 35.3636 52.4073 35.2576 52.5136C35.1413 52.63 35.0249 52.7464 34.905 52.8663C34.7158 53.057 34.7158 53.057 34.5227 53.2516C34.394 53.3806 34.2652 53.5096 34.1326 53.6425C33.7194 54.0567 33.307 54.4715 32.8945 54.8863C32.6154 55.1664 32.3362 55.4464 32.057 55.7264C31.3708 56.4146 30.6852 57.1034 30 57.7926C29.3091 57.208 28.6225 56.6269 27.9851 55.9835C27.8709 55.8687 27.7567 55.7539 27.639 55.6356C27.5248 55.5198 27.4106 55.404 27.293 55.2848C27.1141 55.1046 27.1141 55.1046 26.9315 54.9207C26.6414 54.6284 26.3517 54.3357 26.0625 54.0426C25.8546 54.2134 25.6478 54.3856 25.4414 54.5582C25.3261 54.6539 25.2108 54.7496 25.092 54.8482C24.6826 55.2118 24.6826 55.2118 24.1875 55.9176C26.0437 57.7738 27.9 59.6301 29.8125 61.5426C30.4766 61.2105 30.7952 60.9808 31.3017 60.4709C31.5156 60.257 31.5156 60.257 31.7338 60.0388C31.9618 59.8079 31.9618 59.8079 32.1943 59.5724C32.3514 59.4147 32.5085 59.2571 32.6704 59.0947C33.1717 58.5912 33.6718 58.0865 34.1719 57.5816C34.5116 57.24 34.8515 56.8984 35.1914 56.557C36.0244 55.7198 36.8564 54.8816 37.6875 54.0426C37.4062 53.4513 37.1147 53.0488 36.6445 52.5894C36.4701 52.4169 36.4701 52.4169 36.2922 52.2408C35.9268 51.8983 35.9268 51.8983 35.5693 52.2007Z" fill="white"/>
<path d="M49.125 41.2925C50.115 41.2925 51.105 41.2925 52.125 41.2925C52.125 42.2825 52.125 43.2725 52.125 44.2925C51.135 44.2925 50.145 44.2925 49.125 44.2925C49.125 43.3025 49.125 42.3125 49.125 41.2925Z" fill="white"/>
<path d="M43.5 41.2925C44.49 41.2925 45.48 41.2925 46.5 41.2925C46.5 42.2825 46.5 43.2725 46.5 44.2925C45.51 44.2925 44.52 44.2925 43.5 44.2925C43.5 43.3025 43.5 42.3125 43.5 41.2925Z" fill="white"/>
</g>
<defs>
<clipPath id="clip0_1021_11654">
<rect width="96" height="96" fill="white" transform="translate(0 0.60498)"/>
</clipPath>
</defs>
</svg>
