<svg width="96" height="96" viewBox="0 0 96 96" fill="none" xmlns="http://www.w3.org/2000/svg">
<rect width="96" height="96" fill="#F5F5F5"/>
<rect x="-838.5" y="-1411.5" width="1479" height="2529" rx="4.5" stroke="#9747FF" stroke-dasharray="10 5"/>
<rect x="-819" y="-132" width="1440" height="599" fill="url(#paint0_linear_467_1705)"/>
<rect x="-818" y="-131" width="1438" height="597" stroke="white" stroke-width="2"/>
<g clip-path="url(#clip0_467_1705)">
<path d="M10.6894 20.1535C10.9733 20.1499 10.9733 20.1499 11.2629 20.1462C11.4694 20.1475 11.6759 20.1487 11.8887 20.15C12.2163 20.1475 12.2163 20.1475 12.5504 20.1451C13.2732 20.1408 13.9959 20.1421 14.7188 20.1438C15.0936 20.143 15.4685 20.1423 15.8433 20.1413C17.0217 20.1381 18.2001 20.1388 19.3785 20.1419C20.594 20.1451 21.8093 20.1421 23.0248 20.136C24.0688 20.131 25.1127 20.1297 26.1567 20.1313C26.7801 20.1322 27.4034 20.1314 28.0268 20.1279C28.7217 20.1247 29.4164 20.1274 30.1114 20.1316C30.3179 20.1295 30.5244 20.1273 30.7372 20.125C32.1237 20.1424 32.1237 20.1424 32.7594 20.6836C33.088 21.3716 33.0142 21.7738 32.8125 22.5C32.5165 22.8861 32.3079 23.0335 31.875 23.25C31.2563 23.25 30.6375 23.25 30 23.25C30 26.22 30 29.19 30 32.25C31.1816 32.2337 31.1816 32.2337 32.387 32.217C33.0162 32.211 33.6454 32.2059 34.2747 32.2015C34.9383 32.1965 35.6018 32.1899 36.2654 32.1793C37.0273 32.1671 37.7891 32.1626 38.5511 32.1584C38.7882 32.1536 39.0253 32.1487 39.2697 32.1438C41.1016 32.1432 41.1016 32.1432 41.6824 32.6886C42.0701 33.2975 42.1208 33.6033 42 34.3125C41.6663 34.9005 41.527 35.0327 40.875 35.25C40.2563 35.25 39.6375 35.25 39 35.25C39 40.2 39 45.15 39 50.25C43.455 50.25 47.91 50.25 52.5 50.25C52.463 46.6515 52.463 46.6515 52.4156 43.0531C52.4128 42.6017 52.4105 42.1503 52.4085 41.6989C52.4037 41.4649 52.3989 41.2308 52.394 40.9897C52.3931 39.3534 52.3931 39.3534 52.8996 38.5675C53.5365 38.1915 53.9 38.141 54.6365 38.1584C54.8619 38.1614 55.0873 38.1645 55.3195 38.1676C55.5531 38.1754 55.7867 38.1833 56.0274 38.1914C56.2646 38.1956 56.5018 38.1998 56.7463 38.2042C57.3311 38.2152 57.9154 38.2306 58.5 38.25C58.4951 38.1015 58.4902 37.9531 58.4852 37.8001C58.4656 37.1259 58.4535 36.4517 58.4414 35.7773C58.4336 35.5437 58.4257 35.3101 58.4176 35.0694C58.4146 34.844 58.4116 34.6187 58.4085 34.3864C58.4036 34.1793 58.3987 33.9721 58.3936 33.7586C58.5033 33.1698 58.6466 32.8571 59.0844 32.4465C59.9087 31.9878 60.9396 32.123 61.8557 32.1316C62.1015 32.1303 62.3473 32.129 62.6006 32.1276C63.2735 32.1241 63.9463 32.1265 64.6192 32.1302C65.3238 32.1333 66.0284 32.1316 66.733 32.1307C67.9159 32.1298 69.0988 32.1328 70.2817 32.1381C71.6492 32.1441 73.0166 32.1441 74.3841 32.1408C75.7001 32.1378 77.016 32.1391 78.332 32.1423C78.8919 32.1436 79.4518 32.1434 80.0116 32.142C80.7932 32.1403 81.5746 32.1448 82.3562 32.15C82.5887 32.1487 82.8212 32.1475 83.0608 32.1462C83.2734 32.1486 83.4861 32.151 83.7052 32.1535C83.9823 32.1543 83.9823 32.1543 84.2651 32.1551C84.8893 32.2772 85.1135 32.5037 85.5 33C85.5852 33.5671 85.5852 33.5671 85.5733 34.2217C85.5697 34.5733 85.5697 34.5733 85.566 34.9321C85.5565 35.2983 85.5565 35.2983 85.5469 35.6719C85.5435 35.9189 85.5401 36.1659 85.5367 36.4204C85.5278 37.0304 85.5155 37.6401 85.5 38.25C85.6552 38.246 85.8103 38.2421 85.9701 38.2381C86.6727 38.2225 87.3754 38.2127 88.0782 38.2031C88.3223 38.1968 88.5664 38.1905 88.8179 38.1841C89.0524 38.1816 89.2868 38.1792 89.5284 38.1767C89.7444 38.1728 89.9604 38.1689 90.183 38.1648C90.75 38.25 90.75 38.25 91.1968 38.5532C91.5965 39.1421 91.5862 39.5135 91.5733 40.2217C91.5697 40.5733 91.5697 40.5733 91.566 40.9321C91.5565 41.2983 91.5565 41.2983 91.5469 41.6719C91.5435 41.9189 91.5401 42.1659 91.5367 42.4204C91.5278 43.0304 91.5155 43.6401 91.5 44.25C91.7463 44.2413 91.9926 44.2326 92.2464 44.2236C92.5718 44.2166 92.8973 44.2097 93.2227 44.2031C93.3848 44.1968 93.5468 44.1905 93.7138 44.1841C94.4692 44.1725 94.9585 44.1993 95.6463 44.5342C96.1291 45.1699 96.0907 45.7365 96 46.5C95.8277 46.9808 95.6558 47.3908 95.4244 47.8394C95.3631 47.964 95.3018 48.0886 95.2387 48.217C95.0366 48.6257 94.8304 49.0321 94.6238 49.4385C94.4805 49.7251 94.3374 50.0118 94.1945 50.2986C93.8946 50.8991 93.5925 51.4985 93.2889 52.0971C92.9034 52.8577 92.5225 53.6204 92.1431 54.384C91.848 54.9769 91.5506 55.5686 91.2526 56.16C91.1115 56.4404 90.9711 56.7212 90.8313 57.0022C89.3585 59.9562 87.5264 62.8046 84.75 64.6875C86.0693 65.3194 87.928 65.2886 89.3321 64.8867C90.4537 64.4453 91.4966 63.7858 92.5357 63.1802C93.44 62.6701 94.2159 62.4814 95.25 62.625C95.7188 62.9062 95.7188 62.9062 96 63.375C96.0955 63.9204 96.0629 64.309 96 64.875C95.5816 65.4408 95.0639 65.6158 94.418 65.8594C93.5749 66.1946 92.8221 66.5774 92.0508 67.0547C89.7623 68.4083 87.2436 68.5686 84.6468 68.1401C83.303 67.7753 82.1295 67.1315 80.9494 66.4076C79.3602 65.448 77.6881 65.2145 75.8562 65.5115C74.864 65.764 74.0342 66.2169 73.1602 66.7383C70.6226 68.2347 68.0352 68.6344 65.135 68.1328C63.8743 67.788 62.8165 67.2046 61.7058 66.5383C59.8909 65.4662 57.9515 65.1095 55.8985 65.6367C54.9357 65.9531 54.1175 66.4657 53.2559 66.9909C50.8935 68.3274 47.9451 68.679 45.293 68.0859C44.1246 67.714 43.0464 67.0827 41.981 66.4838C40.2218 65.5074 38.4438 65.114 36.4571 65.6133C35.5318 65.9154 34.7064 66.3792 33.8555 66.8437C31.2872 68.2339 28.6034 68.7433 25.711 68.039C24.5829 67.6728 23.5443 67.118 22.5 66.5625C22.1609 66.3853 21.8211 66.2095 21.4805 66.0351C21.3377 65.9604 21.1948 65.8858 21.0476 65.8088C19.5786 65.1698 17.783 65.2715 16.2862 65.7649C15.5803 66.0744 14.9272 66.4562 14.2618 66.8437C11.7721 68.2803 9.30302 68.6094 6.45927 68.1401C4.97948 67.7384 3.69422 66.9893 2.38627 66.2102C1.92303 65.9366 1.46283 65.7074 0.965375 65.5027C0.375043 65.25 0.375043 65.25 4.27961e-05 64.875C-0.124957 63.5833 -0.124957 63.5833 0.281293 62.9062C0.930169 62.5169 1.5188 62.5299 2.25004 62.625C2.78102 62.8066 3.25926 63.0578 3.75004 63.3281C3.87379 63.3934 3.99754 63.4586 4.12504 63.5259C4.37521 63.6578 4.62496 63.7905 4.87431 63.9239C5.92535 64.4863 6.9018 64.9598 8.06254 65.25C8.01697 65.1496 7.97139 65.0493 7.92444 64.9459C6.43815 61.6615 5.02069 58.3484 3.60942 55.0312C3.51666 54.8132 3.42391 54.5953 3.32835 54.3707C2.58488 52.6227 2.58488 52.6227 2.24826 51.8254C1.85086 50.8843 1.45009 49.9454 1.03459 49.0122C0.963797 48.8509 0.893006 48.6896 0.820069 48.5235C0.690935 48.2298 0.559752 47.937 0.425958 47.6455C0.022801 46.7208 -0.123557 46.0105 4.27961e-05 45C0.273614 44.5873 0.273614 44.5873 0.750043 44.25C1.31918 44.1388 1.88004 44.1475 2.45842 44.1529C2.63106 44.1516 2.8037 44.1503 2.98157 44.1489C3.55224 44.1456 4.12273 44.1478 4.6934 44.1504C5.08989 44.1499 5.48639 44.1491 5.88288 44.1482C6.71386 44.1471 7.54477 44.1487 8.37574 44.1522C9.44135 44.1565 10.5068 44.154 11.5724 44.1495C12.3912 44.1468 13.2099 44.1477 14.0286 44.1496C14.4215 44.1501 14.8144 44.1495 15.2074 44.1478C15.7564 44.1459 16.3052 44.1488 16.8542 44.1529C17.0169 44.1514 17.1795 44.1499 17.3472 44.1483C18.4494 44.1639 18.4494 44.1639 19.0326 44.6076C19.454 45.1983 19.5235 45.5293 19.533 46.2466C19.5397 46.5061 19.5397 46.5061 19.5466 46.771C19.5546 47.1357 19.5605 47.5004 19.5641 47.8652C19.5693 48.0387 19.5745 48.2123 19.5799 48.3911C19.5826 48.5497 19.5853 48.7084 19.5882 48.8718C19.7269 49.487 19.9362 49.6796 20.4375 50.0625C20.9662 50.138 21.4226 50.1683 21.9513 50.1648C22.1032 50.1668 22.2551 50.1687 22.4116 50.1707C22.9128 50.1762 23.4138 50.1765 23.9151 50.1767C24.2629 50.1795 24.6108 50.1827 24.9586 50.1861C25.8735 50.1943 26.7883 50.1981 27.7032 50.2009C28.8013 50.2052 29.8993 50.215 30.9974 50.2239C32.6649 50.2369 34.3324 50.2427 36 50.25C36 47.28 36 44.31 36 41.25C35.3194 41.25 34.6388 41.25 33.9375 41.25C33.3399 40.8633 33.3399 40.8633 33 40.3125C32.8829 39.6445 32.8829 39.6445 33 39C33.3399 38.5429 33.3399 38.5429 33.9375 38.25C34.638 38.19 35.2943 38.216 36 38.25C36 37.26 36 36.27 36 35.25C28.08 35.25 20.16 35.25 12 35.25C12 36.7969 12 38.3437 12 39.9375C11.625 40.875 11.625 40.875 11.3086 41.1328C10.6749 41.3041 10.1962 41.2123 9.56254 41.0625C9.17688 40.7698 9.02073 40.6078 8.92873 40.1283C8.92805 39.9149 8.92805 39.9149 8.92735 39.6971C8.9255 39.5333 8.92364 39.3696 8.92173 39.2008C8.92299 38.9321 8.92299 38.9321 8.92428 38.658C8.923 38.4689 8.92171 38.2798 8.92038 38.085C8.91695 37.4586 8.91768 36.8322 8.91874 36.2058C8.91789 35.7712 8.91689 35.3366 8.91577 34.902C8.91409 33.9905 8.91455 33.079 8.91641 32.1674C8.91856 30.9982 8.91477 29.8291 8.9093 28.6599C8.90586 27.7622 8.90591 26.8645 8.90698 25.9668C8.90701 25.5357 8.90587 25.1045 8.90355 24.6734C8.90077 24.0709 8.90275 23.4687 8.90597 22.8662C8.90416 22.6875 8.90235 22.5087 8.90048 22.3245C8.90232 22.1602 8.90417 21.9959 8.90607 21.8267C8.90611 21.6843 8.90615 21.5419 8.90619 21.3952C9.13194 20.4445 9.77941 20.1564 10.6894 20.1535ZM12 23.25C12 26.22 12 29.19 12 32.25C16.95 32.25 21.9 32.25 27 32.25C27 31.26 27 30.27 27 29.25C26.6752 29.2345 26.3504 29.219 26.0157 29.2031C25.3619 29.1408 25.0002 29.1004 24.4336 28.7578C24.0893 28.1346 24.0984 27.7001 24.1875 27C24.4014 26.6865 24.4014 26.6865 24.75 26.4375C25.2972 26.3415 25.2972 26.3415 25.9102 26.3086C26.2698 26.2892 26.6295 26.2699 27 26.25C27 25.26 27 24.27 27 23.25C22.05 23.25 17.1 23.25 12 23.25ZM61.5 35.25C61.5 36.24 61.5 37.23 61.5 38.25C64.47 38.25 67.44 38.25 70.5 38.25C70.5 37.26 70.5 36.27 70.5 35.25C67.53 35.25 64.56 35.25 61.5 35.25ZM73.5 35.25C73.5 36.24 73.5 37.23 73.5 38.25C76.47 38.25 79.44 38.25 82.5 38.25C82.5 37.26 82.5 36.27 82.5 35.25C79.53 35.25 76.56 35.25 73.5 35.25ZM55.5 41.25C55.5 42.24 55.5 43.23 55.5 44.25C58.47 44.25 61.44 44.25 64.5 44.25C64.5 43.26 64.5 42.27 64.5 41.25C61.53 41.25 58.56 41.25 55.5 41.25ZM67.5 41.25C67.5 42.24 67.5 43.23 67.5 44.25C70.47 44.25 73.44 44.25 76.5 44.25C76.5 43.26 76.5 42.27 76.5 41.25C73.53 41.25 70.56 41.25 67.5 41.25ZM79.5 41.25C79.5 42.24 79.5 43.23 79.5 44.25C82.47 44.25 85.44 44.25 88.5 44.25C88.5 43.26 88.5 42.27 88.5 41.25C85.53 41.25 82.56 41.25 79.5 41.25ZM55.5 47.25C55.5 48.24 55.5 49.23 55.5 50.25C56.3644 50.2715 57.2277 50.2902 58.0921 50.3015C58.3859 50.3062 58.6796 50.3126 58.9732 50.3207C59.3964 50.3321 59.8192 50.3374 60.2425 50.3415C60.373 50.3464 60.5035 50.3512 60.6379 50.3562C61.2878 50.3566 61.6508 50.2753 62.188 49.9044C62.7986 49.1203 62.7986 49.1203 63.5625 47.25C60.9019 47.25 58.2413 47.25 55.5 47.25ZM3.75004 47.25C4.20277 48.6225 4.20277 48.6225 4.73359 49.949C4.8121 50.1293 4.89061 50.3095 4.9715 50.4953C5.0552 50.6855 5.1389 50.8757 5.22514 51.0718C5.31357 51.2745 5.402 51.4772 5.49311 51.6861C5.77863 52.3405 6.06509 52.9945 6.35161 53.6484C6.74325 54.5442 7.13432 55.4402 7.52495 56.3364C7.62067 56.556 7.7164 56.7756 7.81503 57.0018C8.36577 58.2685 8.90696 59.5384 9.43217 60.8159C9.48955 60.9551 9.54693 61.0943 9.60605 61.2378C9.86204 61.8602 10.1154 62.4835 10.3652 63.1085C10.4943 63.4246 10.4943 63.4246 10.626 63.747C10.7336 64.016 10.7336 64.016 10.8434 64.2903C11.0386 64.7501 11.0386 64.7501 11.625 64.875C11.9757 64.7365 11.9757 64.7365 12.3326 64.5029C12.5395 64.3792 12.5395 64.3792 12.7506 64.2531C12.8974 64.1644 13.0442 64.0757 13.1954 63.9844C15.9429 62.3978 18.6205 62.0291 21.7172 62.8011C22.9925 63.1656 24.0895 63.807 25.2144 64.4956C26.7883 65.433 28.6053 65.5125 30.375 65.1277C31.5349 64.7348 32.545 64.1214 33.5889 63.49C35.75 62.2706 38.4144 62.1267 40.8025 62.6843C42.2767 63.1065 43.5375 63.7721 44.8389 64.5776C46.4417 65.4666 48.3736 65.5552 50.1299 65.0793C51.2147 64.6423 52.1897 64.0588 53.1797 63.4416C55.2434 62.2638 57.8924 62.1391 60.1758 62.6367C61.518 63.01 62.7146 63.6594 63.9375 64.3125C65.7327 65.2434 67.4849 65.5967 69.5025 65.135C70.3393 64.8152 71.1015 64.3741 71.8829 63.9389C74.8778 62.2841 77.7031 62.0724 81 63C81.1857 63.0619 81.3713 63.1237 81.5625 63.1875C82.2365 62.8236 82.8311 62.3411 83.4375 61.875C83.5685 61.7756 83.6995 61.6763 83.8345 61.574C86.3073 59.563 87.7772 56.4777 89.0625 53.625C89.0625 53.5012 89.0625 53.3775 89.0625 53.25C88.8242 53.2485 88.5858 53.2469 88.3403 53.2454C86.0971 53.2309 83.854 53.2144 81.6109 53.1961C80.4576 53.1867 79.3044 53.178 78.1511 53.1709C77.0387 53.164 75.9263 53.1553 74.8139 53.1453C74.3889 53.1419 73.9639 53.139 73.5389 53.1368C72.9449 53.1337 72.351 53.1283 71.757 53.1223C71.5802 53.1219 71.4034 53.1214 71.2212 53.121C70.9787 53.1179 70.9787 53.1179 70.7312 53.1147C70.5907 53.1137 70.4502 53.1126 70.3054 53.1115C69.9375 53.0625 69.9375 53.0625 69.375 52.6875C69.2183 52.0366 69.1206 51.5706 69.3399 50.9297C69.5625 50.625 69.5625 50.625 69.9375 50.4375C70.2154 50.418 70.4942 50.41 70.7728 50.4078C70.9484 50.406 71.124 50.4041 71.305 50.4022C71.5949 50.4006 71.5949 50.4006 71.8906 50.399C72.0937 50.3971 72.2967 50.3953 72.5059 50.3934C73.1796 50.3874 73.8532 50.3828 74.5269 50.3781C74.993 50.3743 75.4591 50.3704 75.9252 50.3663C77.0281 50.357 78.1311 50.3486 79.2341 50.3405C80.6128 50.3303 81.9915 50.3189 83.3702 50.3075C85.8301 50.2873 88.2901 50.2682 90.75 50.25C90.9697 49.8207 91.1883 49.391 91.4063 48.9609C91.5002 48.7778 91.5002 48.7778 91.596 48.591C91.9441 47.9526 91.9441 47.9526 92.0625 47.25C83.7713 47.25 75.48 47.25 66.9375 47.25C66.195 48.6731 65.4525 50.0962 64.6875 51.5625C63.1854 52.8143 62.2108 53.1485 60.2932 53.1364C60.0348 53.1381 60.0348 53.1381 59.7713 53.1399C59.1973 53.143 58.6233 53.1421 58.0493 53.1412C57.6365 53.1426 57.2237 53.1442 56.8109 53.146C55.6917 53.1502 54.5725 53.1507 53.4533 53.1504C52.5182 53.1504 51.583 53.152 50.6478 53.1535C48.3151 53.1573 45.9824 53.1575 43.6497 53.1562C41.6268 53.1551 39.604 53.159 37.5811 53.1653C35.5008 53.1716 33.4206 53.1743 31.3403 53.1736C30.1736 53.1732 29.007 53.1742 27.8404 53.1788C26.7431 53.183 25.6458 53.1826 24.5485 53.1788C24.1465 53.1782 23.7446 53.1791 23.3426 53.1818C19.2116 53.2075 19.2116 53.2075 17.6973 51.8545C16.4806 50.5417 16.6237 48.9816 16.5 47.25C12.2925 47.25 8.08504 47.25 3.75004 47.25Z" fill="white"/>
<path d="M25.8421 72.1733C27.184 72.8368 29.0941 72.7685 30.5347 72.4409C31.3986 72.1117 32.1473 71.644 32.9297 71.1563C35.4625 69.6425 38.3436 69.4045 41.1806 70.1C42.711 70.5351 44.056 71.3653 45.4027 72.1935C46.6911 72.8667 48.6583 72.7595 50.0479 72.4343C50.8522 72.1257 51.5597 71.7047 52.2891 71.25C54.7045 69.7451 57.5505 69.3839 60.3047 70.0078C61.9898 70.422 63.4357 71.2913 64.9027 72.1935C66.1825 72.8623 68.1304 72.7567 69.5149 72.4475C70.2237 72.1762 70.8658 71.8176 71.5284 71.4485C73.7571 70.2088 75.782 69.5638 78.375 69.75C78.5379 69.7609 78.7009 69.7718 78.8687 69.783C80.4181 69.9749 81.7104 70.7048 83.0679 71.4293C83.458 71.6358 83.8501 71.8375 84.2439 72.0366C84.3634 72.0971 84.4829 72.1576 84.606 72.2198C86.0167 72.8801 88.0942 72.7761 89.5547 72.2813C90.6291 71.829 91.6318 71.2297 92.6309 70.6326C93.4897 70.1388 94.2678 69.9887 95.25 70.125C95.7188 70.4063 95.7188 70.4063 96 70.875C96.1134 71.4018 96.1217 71.8492 96 72.375C95.4343 73.0321 94.6953 73.3073 93.9112 73.6363C93.4825 73.8272 93.0683 74.0282 92.6514 74.2427C92.5218 74.3092 92.3922 74.3758 92.2587 74.4443C92.0012 74.5773 91.7443 74.7114 91.4881 74.8468C89.2299 76.0068 86.4757 76.1464 84.0352 75.4688C83.0189 75.1085 82.1262 74.5909 81.2062 74.0384C79.298 72.9101 77.3994 72.6822 75.2633 73.1733C74.492 73.4115 73.8358 73.8228 73.1485 74.2383C71.2225 75.3412 69.7113 75.7873 67.4883 75.8203C67.3332 75.823 67.178 75.8257 67.0182 75.8285C65.1077 75.813 63.588 75.1633 61.9454 74.2383C60.314 73.3206 58.8984 72.7963 57 72.9375C56.8758 72.946 56.7516 72.9544 56.6236 72.9632C55.5736 73.1169 54.7602 73.6049 53.8594 74.1328C51.1595 75.6973 48.5358 76.144 45.4483 75.6394C44.1092 75.278 42.9374 74.6287 41.7618 73.9077C40.2316 72.9835 38.6351 72.7171 36.8687 73.0115C35.8716 73.2649 35.0382 73.7139 34.1602 74.2383C31.5628 75.7684 28.9151 76.1243 25.9483 75.6394C24.5975 75.2749 23.4488 74.6064 22.2515 73.9048C21.3517 73.3834 20.5518 73.0116 19.5 72.9375C19.3669 72.925 19.2337 72.9124 19.0965 72.8994C17.2683 72.8095 15.7853 73.4428 14.2383 74.3438C11.7211 75.7978 9.33574 76.1077 6.44609 75.6402C4.97275 75.2392 3.68891 74.4863 2.38627 73.7102C1.92303 73.4367 1.46283 73.2075 0.965375 73.0027C0.375043 72.75 0.375043 72.75 4.27961e-05 72.375C-0.124957 71.0834 -0.124957 71.0834 0.281293 70.4063C0.930169 70.0169 1.5188 70.03 2.25004 70.125C2.78102 70.3066 3.25926 70.5578 3.75004 70.8281C3.87379 70.8934 3.99754 70.9587 4.12504 71.0259C4.37453 71.1575 4.62356 71.2899 4.87211 71.4232C5.26213 71.6315 5.65338 71.8366 6.04692 72.0381C6.1639 72.0984 6.28088 72.1586 6.40141 72.2207C7.84372 72.8593 10.017 72.8288 11.4844 72.2696C12.3855 71.8455 13.2294 71.3136 14.0831 70.8025C18.1365 68.5403 22.1509 70.0972 25.8421 72.1733Z" fill="white"/>
<path d="M25.7402 38.1571C25.929 38.157 26.1177 38.1569 26.3122 38.1567C26.5082 38.1605 26.7043 38.1642 26.9062 38.1681C27.1022 38.1668 27.2983 38.1654 27.5002 38.1641C29.1609 38.1779 29.1609 38.1779 29.8125 38.8126C30.0178 39.5517 30.0739 39.9551 29.7656 40.6642C29.4375 41.0626 29.4375 41.0626 28.875 41.2501C28.2274 41.3025 27.5791 41.3021 26.9297 41.3087C26.7523 41.3142 26.5748 41.3196 26.3921 41.3252C25.5752 41.3327 25.0727 41.3266 24.3508 40.9183C23.9821 40.4788 23.8758 40.314 23.8945 39.7501C23.8943 39.6264 23.894 39.5026 23.8938 39.3751C24.1621 38.4278 24.8229 38.1553 25.7402 38.1571Z" fill="white"/>
<path d="M16.7402 26.1571C16.929 26.157 17.1177 26.1569 17.3122 26.1567C17.5083 26.1605 17.7043 26.1642 17.9062 26.1681C18.1022 26.1668 18.2983 26.1654 18.5002 26.1641C20.1639 26.1779 20.1639 26.1779 20.8125 26.8126C20.9761 27.4555 21.0617 27.9175 20.8711 28.5587C20.485 29.0551 20.0626 29.2264 19.4433 29.3046C18.9347 29.3138 18.4266 29.3197 17.9179 29.3204C17.7414 29.325 17.5648 29.3296 17.3829 29.3344C16.5697 29.3378 16.0694 29.325 15.3515 28.9176C14.9817 28.4785 14.8758 28.3143 14.8945 27.7501C14.8943 27.6264 14.894 27.5026 14.8938 27.3751C15.1621 26.4278 15.8229 26.1553 16.7402 26.1571Z" fill="white"/>
<path d="M16.7402 38.1571C16.929 38.157 17.1177 38.1569 17.3122 38.1567C17.5083 38.1605 17.7043 38.1642 17.9062 38.1681C18.1022 38.1668 18.2983 38.1654 18.5002 38.1641C20.1639 38.1779 20.1639 38.1779 20.8125 38.8126C20.9761 39.4555 21.0617 39.9175 20.8711 40.5587C20.485 41.0551 20.0626 41.2264 19.4433 41.3046C18.9347 41.3138 18.4266 41.3197 17.9179 41.3204C17.7414 41.325 17.5648 41.3296 17.3829 41.3344C16.5697 41.3378 16.0694 41.325 15.3515 40.9176C14.9817 40.4785 14.8758 40.3143 14.8945 39.7501C14.8943 39.6264 14.894 39.5026 14.8938 39.3751C15.1621 38.4278 15.8229 38.1553 16.7402 38.1571Z" fill="white"/>
<path d="M57.5625 56.2499C58.2504 56.7435 58.47 57.0166 58.6172 57.8554C58.5 58.4999 58.5 58.4999 58.1015 58.957C57.4622 59.3044 57.1534 59.3842 56.4375 59.2499C55.8867 58.8749 55.8867 58.8749 55.5 58.3124C55.4389 57.7712 55.5056 57.3247 55.6875 56.8124C56.2234 56.1773 56.7601 56.1189 57.5625 56.2499Z" fill="white"/>
<path d="M51 56.1328C51.7639 56.292 52.0395 56.5645 52.5 57.1875C52.6172 57.75 52.6172 57.75 52.5 58.3125C52.0395 58.9355 51.7639 59.208 51 59.3672C50.2361 59.208 49.9605 58.9355 49.5 58.3125C49.3828 57.75 49.3828 57.75 49.5 57.1875C49.9605 56.5645 50.2361 56.292 51 56.1328Z" fill="white"/>
<path d="M45 56.1328C45.7639 56.292 46.0395 56.5645 46.5 57.1875C46.6172 57.75 46.6172 57.75 46.5 58.3125C46.0395 58.9355 45.7639 59.208 45 59.3672C44.2361 59.208 43.9605 58.9355 43.5 58.3125C43.3828 57.75 43.3828 57.75 43.5 57.1875C43.9605 56.5645 44.2361 56.292 45 56.1328Z" fill="white"/>
<path d="M39 56.1328C39.7639 56.292 40.0395 56.5645 40.5 57.1875C40.6172 57.75 40.6172 57.75 40.5 58.3125C40.0395 58.9355 39.7639 59.208 39 59.3672C38.2361 59.208 37.9605 58.9355 37.5 58.3125C37.3828 57.75 37.3828 57.75 37.5 57.1875C37.9605 56.5645 38.2361 56.292 39 56.1328Z" fill="white"/>
<path d="M33 56.1328C33.7639 56.292 34.0395 56.5645 34.5 57.1875C34.6172 57.75 34.6172 57.75 34.5 58.3125C34.0395 58.9355 33.7639 59.208 33 59.3672C32.2361 59.208 31.9605 58.9355 31.5 58.3125C31.3828 57.75 31.3828 57.75 31.5 57.1875C31.9605 56.5645 32.2361 56.292 33 56.1328Z" fill="white"/>
<path d="M27.0117 56.1562C27.6429 56.2637 27.8981 56.3214 28.3125 56.8125C28.4944 57.3248 28.5611 57.7712 28.5 58.3125C28.0504 58.9664 27.7831 59.2086 27 59.3555C26.2866 59.2217 25.9779 59.0482 25.5 58.5C25.3828 57.8555 25.3828 57.8555 25.5 57.1875C25.9649 56.5449 26.2228 56.2851 27.0117 56.1562Z" fill="white"/>
</g>
<defs>
<linearGradient id="paint0_linear_467_1705" x1="-819" y1="167.5" x2="621" y2="167.5" gradientUnits="userSpaceOnUse">
<stop stop-color="#001AAF"/>
<stop offset="1" stop-color="#871EB6"/>
</linearGradient>
<clipPath id="clip0_467_1705">
<rect width="96" height="96" fill="white"/>
</clipPath>
</defs>
</svg>
