<svg width="96" height="97" viewBox="0 0 96 97" fill="none" xmlns="http://www.w3.org/2000/svg">
<g clip-path="url(#clip0_1021_11669)">
<path d="M4.56223 6.93222C4.79168 6.93132 4.79168 6.93132 5.02576 6.9304C5.53822 6.92884 6.05065 6.92995 6.56311 6.93105C6.93427 6.93049 7.30544 6.92976 7.6766 6.92888C8.69652 6.92695 9.71643 6.92736 10.7364 6.92816C11.8363 6.92862 12.9363 6.92694 14.0363 6.92553C16.1912 6.92314 18.3461 6.9228 20.5011 6.92324C22.2524 6.92358 24.0038 6.92326 25.7551 6.92245C26.0067 6.92234 26.2584 6.92222 26.51 6.92211C26.8892 6.92194 27.2684 6.92177 27.6476 6.9216C31.173 6.92002 34.6984 6.91921 38.2239 6.91999C38.4232 6.92003 38.4232 6.92003 38.6266 6.92008C39.3002 6.92023 39.9737 6.92039 40.6473 6.92055C40.7811 6.92058 40.9149 6.92061 41.0527 6.92065C41.3232 6.92071 41.5937 6.92078 41.8642 6.92084C46.0737 6.92185 50.2831 6.92036 54.4925 6.9169C59.2222 6.91301 63.9519 6.911 68.6815 6.91176C69.1859 6.91183 69.6902 6.9119 70.1945 6.91196C70.3187 6.91198 70.4429 6.912 70.5708 6.91201C72.4452 6.91223 74.3196 6.91098 76.1939 6.909C78.3257 6.90677 80.4575 6.9065 82.5892 6.90877C83.677 6.90988 84.7648 6.91008 85.8526 6.90783C86.8484 6.9058 87.8442 6.90637 88.84 6.90901C89.2002 6.9095 89.5604 6.90905 89.9207 6.90756C90.4106 6.90566 90.9004 6.90724 91.3904 6.90967C91.5299 6.9083 91.6695 6.90693 91.8133 6.90552C92.9714 6.91741 94.1745 7.12528 95.0917 7.87129C95.1748 7.9832 95.258 8.0951 95.3436 8.2104C95.4306 8.32279 95.5177 8.43518 95.6073 8.55098C96.0346 9.1843 96.0239 9.61722 96.0251 10.3793C96.0259 10.6261 96.0267 10.8729 96.0276 11.1272C96.0276 11.4038 96.0275 11.6803 96.0275 11.9569C96.0281 12.2486 96.0288 12.5404 96.0296 12.8321C96.0314 13.6368 96.0321 14.4415 96.0326 15.2462C96.0334 16.1129 96.0352 16.9796 96.0368 17.8464C96.0405 19.9411 96.0424 22.0357 96.0441 24.1304C96.0449 25.1162 96.0459 26.102 96.0469 27.0878C96.0501 30.3637 96.0528 33.6397 96.0541 36.9156C96.0545 37.7661 96.0549 38.6167 96.0552 39.4672C96.0553 39.6786 96.0554 39.89 96.0555 40.1078C96.0571 43.5334 96.0618 46.9589 96.0679 50.3844C96.0741 53.8993 96.0775 57.4141 96.0781 60.929C96.0785 62.9033 96.0801 64.8776 96.0849 66.8519C96.089 68.5331 96.0905 70.2143 96.0887 71.8956C96.0878 72.7536 96.0882 73.6115 96.0918 74.4695C96.0951 75.255 96.0949 76.0404 96.092 76.8259C96.0916 77.11 96.0924 77.3942 96.0946 77.6784C96.1141 80.3417 96.1141 80.3417 95.2499 81.4174C94.4136 82.2418 93.5082 82.4624 92.3615 82.4716C92.1898 82.4682 92.0181 82.4648 91.8412 82.4614C91.5638 82.4616 91.5638 82.4616 91.2808 82.4618C90.674 82.4611 90.0676 82.4538 89.4608 82.4465C89.0384 82.4447 88.616 82.4434 88.1935 82.4425C87.085 82.4389 85.9766 82.4297 84.8682 82.4193C83.7358 82.4097 82.6033 82.4054 81.4708 82.4007C79.2513 82.3907 77.0319 82.3747 74.8124 82.3549C74.8163 82.5545 74.8202 82.7541 74.8243 82.9597C74.8379 83.7022 74.8465 84.4447 74.8536 85.1873C74.8574 85.5083 74.8625 85.8293 74.869 86.1503C74.8781 86.6125 74.8823 87.0745 74.8856 87.5368C74.8895 87.6796 74.8934 87.8224 74.8974 87.9696C74.8977 88.6575 74.8344 89.0683 74.4775 89.6629C74.0624 90.0424 74.0624 90.0424 73.3475 90.1831C72.3229 90.1371 71.4622 89.6611 70.5758 89.1806C69.772 88.7601 69.3071 88.6495 68.4374 88.9174C68.034 89.0981 67.6355 89.2902 67.2421 89.4917C66.2496 89.963 65.5892 90.224 64.4999 90.0424C64.0921 89.7531 63.9715 89.5481 63.7499 89.1049C63.7336 88.5989 63.7282 88.0977 63.7316 87.5918C63.732 87.3678 63.732 87.3678 63.7324 87.1393C63.7334 86.6617 63.7358 86.1841 63.7382 85.7065C63.7391 85.383 63.74 85.0595 63.7407 84.736C63.7428 83.9423 63.746 83.1486 63.7499 82.3549C63.5555 82.3555 63.5555 82.3555 63.3573 82.356C55.6789 82.377 48.0006 82.3931 40.3223 82.4028C39.4004 82.404 38.4785 82.4052 37.5566 82.4064C37.2814 82.4068 37.2814 82.4068 37.0005 82.4072C34.0285 82.4113 31.0566 82.4186 28.0846 82.4273C25.0352 82.436 21.9859 82.4412 18.9365 82.4431C17.0548 82.4444 15.1731 82.4485 13.2914 82.4561C12.0012 82.4611 10.7109 82.4626 9.42069 82.4613C8.67619 82.4607 7.93177 82.4617 7.18728 82.4667C6.50528 82.4713 5.82341 82.4715 5.1414 82.4683C4.77864 82.4677 4.41589 82.4717 4.05315 82.4759C2.7278 82.4646 1.73355 82.3633 0.749885 81.4174C-0.117591 80.3259 -0.106513 79.3461 -0.0940913 77.9863C-0.095129 77.7742 -0.0961668 77.5622 -0.0972359 77.3437C-0.0997864 76.6339 -0.0969806 75.9242 -0.0941857 75.2144C-0.0944812 74.7052 -0.0958977 74.1961 -0.0972556 73.687C-0.0998654 72.4483 -0.098453 71.2097 -0.0956288 69.971C-0.0924656 68.5288 -0.0930698 67.0867 -0.0937716 65.6445C-0.0948733 63.0719 -0.0922184 60.4994 -0.0875939 57.9268C-0.0831054 55.4296 -0.0817821 52.9325 -0.0837487 50.4353C-0.0858866 47.7158 -0.0862517 44.9964 -0.0835427 42.2769C-0.0832566 41.9872 -0.0829717 41.6974 -0.0826876 41.4076C-0.0825455 41.265 -0.0824034 41.1225 -0.082257 40.9756C-0.081367 39.9698 -0.0817155 38.964 -0.0825124 37.9582C-0.0834348 36.7334 -0.0823198 35.5086 -0.0785946 34.2839C-0.0767401 33.6587 -0.0760903 33.0337 -0.0772621 32.4085C-0.0783718 31.7318 -0.0760458 31.0551 -0.0728053 30.3784C-0.0739322 30.1796 -0.0750589 29.9807 -0.0762199 29.7759C-0.0746374 29.5953 -0.0730553 29.4147 -0.0714249 29.2287C-0.0712319 29.0724 -0.0710386 28.9161 -0.0708398 28.7551C0.0175717 28.2549 0.159727 28.0949 0.562385 27.7924C1.29202 27.5898 1.69071 27.5144 2.37862 27.8526C3.05148 28.6319 2.94243 29.3828 2.93224 30.3813C2.93459 30.6939 2.93459 30.6939 2.93699 31.0128C2.94112 31.7158 2.93853 32.4187 2.93603 33.1217C2.9371 33.6324 2.93958 34.1432 2.942 34.6539C2.94703 35.8852 2.94723 37.1165 2.94577 38.3479C2.94428 39.772 2.94876 41.1961 2.95326 42.6202C2.96218 46.3807 2.96295 50.1413 2.96473 53.9018C2.97633 62.3013 2.98793 70.7009 2.99988 79.3549C23.0474 79.3549 43.0949 79.3549 63.7499 79.3549C63.7499 78.4887 63.7499 77.6224 63.7499 76.7299C63.458 76.7305 63.166 76.731 62.8652 76.7315C55.9385 76.7437 49.0118 76.753 42.085 76.7587C41.2328 76.7594 40.3806 76.7601 39.5285 76.7608C39.3588 76.761 39.1891 76.7611 39.0143 76.7613C36.2657 76.7637 33.517 76.7682 30.7684 76.7733C27.9489 76.7786 25.1295 76.7817 22.31 76.7829C20.5697 76.7836 18.8293 76.7861 17.0889 76.7906C15.8962 76.7936 14.7035 76.7945 13.5108 76.7938C12.8222 76.7934 12.1336 76.794 11.445 76.797C10.699 76.8002 9.95299 76.7991 9.20695 76.7976C8.98862 76.7992 8.7703 76.8008 8.54536 76.8025C8.34559 76.8014 8.14582 76.8003 7.94 76.7991C7.68166 76.7995 7.68166 76.7995 7.4181 76.7998C6.82795 76.714 6.48027 76.5165 5.99988 76.1674C5.57654 75.5324 5.57782 75.3188 5.57717 74.5749C5.57608 74.3595 5.57498 74.1441 5.57386 73.9221C5.57457 73.6844 5.57527 73.4466 5.576 73.2017C5.57544 72.9474 5.57471 72.6932 5.57383 72.4389C5.5719 71.7386 5.57231 71.0384 5.57311 70.3381C5.57358 69.5835 5.57189 68.8289 5.57048 68.0743C5.56809 66.5953 5.56776 65.1163 5.56819 63.6373C5.56853 62.4354 5.5682 61.2335 5.5674 60.0316C5.56729 59.8607 5.56718 59.6899 5.56706 59.5138C5.56684 59.1668 5.56661 58.8197 5.56638 58.4726C5.56434 55.2154 5.56475 51.9582 5.56589 48.7009C5.56686 45.7195 5.56475 42.7381 5.56119 39.7567C5.55756 36.6974 5.556 33.6381 5.55671 30.5787C5.55707 28.8604 5.5566 27.142 5.55395 25.4236C5.55172 23.9607 5.55145 22.4977 5.55372 21.0348C5.55483 20.2881 5.55503 19.5414 5.55278 18.7947C5.55076 18.1114 5.55132 17.4281 5.55396 16.7448C5.55469 16.38 5.55266 16.0152 5.55053 15.6504C5.55188 15.434 5.55323 15.2176 5.55462 14.9946C5.55461 14.8079 5.5546 14.6212 5.55459 14.4288C5.63762 13.8248 5.83087 13.4704 6.18738 12.9799C6.73913 12.7041 7.2959 12.7663 7.90072 12.7678C8.11092 12.7672 8.11092 12.7672 8.32537 12.7666C8.79981 12.7656 9.27424 12.7658 9.74869 12.7661C10.0903 12.7656 10.432 12.7651 10.7736 12.7644C11.7162 12.7629 12.6588 12.7626 13.6014 12.7624C14.6165 12.7621 15.6316 12.7607 16.6467 12.7594C18.868 12.7568 21.0893 12.7557 23.3106 12.7549C24.6965 12.7544 26.0824 12.7536 27.4683 12.7527C31.3026 12.7505 35.1368 12.7485 38.971 12.7479C39.2165 12.7478 39.4621 12.7478 39.7151 12.7478C39.9612 12.7477 40.2074 12.7477 40.461 12.7476C40.9598 12.7476 41.4587 12.7475 41.9575 12.7474C42.2049 12.7473 42.4524 12.7473 42.7073 12.7473C46.7189 12.7465 50.7304 12.7432 54.7419 12.7389C58.8566 12.7344 62.9713 12.7321 67.086 12.7319C69.3978 12.7317 71.7096 12.7306 74.0214 12.7272C75.9896 12.7243 77.9577 12.7234 79.9259 12.7249C80.9308 12.7257 81.9357 12.7255 82.9405 12.7229C83.8596 12.7205 84.7785 12.7207 85.6975 12.723C86.0309 12.7233 86.3642 12.7227 86.6976 12.7211C87.1491 12.7191 87.6004 12.7204 88.0519 12.7227C88.2482 12.7206 88.2482 12.7206 88.4485 12.7184C89.0115 12.7245 89.3913 12.7668 89.8873 13.0429C90.541 13.7226 90.4022 14.6004 90.4012 15.482C90.4021 15.7242 90.4021 15.7242 90.4029 15.9714C90.4045 16.5146 90.4048 17.0579 90.4051 17.6011C90.406 17.9897 90.4069 18.3784 90.4079 18.767C90.4104 19.8242 90.4116 20.8814 90.4124 21.9386C90.413 22.5986 90.4137 23.2586 90.4146 23.9185C90.4171 25.9821 90.419 28.0456 90.4197 30.1091C90.4205 32.4939 90.4238 34.8787 90.4292 37.2634C90.4333 39.1052 90.4352 40.9469 90.4354 42.7886C90.4356 43.8894 90.4368 44.9902 90.4401 46.091C90.4432 47.126 90.4436 48.1609 90.4419 49.1959C90.4418 49.5762 90.4426 49.9566 90.4445 50.3369C90.4468 50.8552 90.4458 51.3733 90.4438 51.8916C90.4461 52.1186 90.4461 52.1186 90.4484 52.3503C90.4429 52.9672 90.4186 53.4028 90.1112 53.9454C89.7615 54.2784 89.5621 54.3581 89.0858 54.4174C88.9626 54.4368 88.8393 54.4561 88.7123 54.476C88.3124 54.4174 88.3124 54.4174 87.3749 53.6674C87.3749 41.1687 87.3749 28.6699 87.3749 15.7924C61.3874 15.7924 35.3999 15.7924 8.62488 15.7924C8.62488 34.9118 8.62488 54.0312 8.62488 73.7299C26.8161 73.7299 45.0074 73.7299 63.7499 73.7299C63.7499 71.6881 63.7499 69.6462 63.7499 67.5424C63.0074 67.5424 62.2649 67.5424 61.4999 67.5424C60.4165 67.1662 59.9567 66.9001 59.3972 65.8666C59.129 65.1626 59.1799 64.4541 59.1913 63.7104C59.1851 62.2526 59.1851 62.2526 58.4647 61.0268C58.2307 60.8188 57.9924 60.6155 57.7499 60.4174C57.5341 60.1835 57.3229 59.9453 57.1171 59.7026C57.0267 59.6008 56.9363 59.4991 56.8432 59.3942C56.2249 58.5748 56.3228 57.4495 56.4374 56.4799C56.8529 55.377 57.7197 54.5862 58.5614 53.7919C59.3044 53.0524 59.1207 51.9958 59.143 51.0102C59.1851 49.9421 59.3456 49.1167 60.0936 48.2966C60.994 47.5956 61.5404 47.4718 62.6734 47.4636C64.3475 47.4727 64.3475 47.4727 65.7655 46.6831C65.9734 46.4529 66.177 46.2187 66.3749 45.9799C67.4824 44.9743 68.263 44.5557 69.7711 44.5839C71.2 44.8044 72.0819 45.842 72.9374 46.9174C73.655 47.4376 74.4797 47.338 75.328 47.351C76.6125 47.4 77.6261 47.4504 78.5624 48.4174C79.3691 49.6044 79.4093 50.6912 79.3875 52.0836C79.3988 52.872 79.414 53.188 79.932 53.8176C80.1822 54.0217 80.1822 54.0217 80.4374 54.2299C81.5897 55.4492 82.2462 56.3222 82.2077 58.051C81.9821 59.3905 80.9097 60.3849 79.9533 61.278C79.487 61.7417 79.476 62.0947 79.4669 62.7282C79.4625 62.8903 79.458 63.0523 79.4534 63.2193C79.4454 63.5586 79.4395 63.898 79.4358 64.2374C79.3998 65.3681 79.2206 66.0523 78.5624 66.9799C77.5218 67.7804 76.4487 67.7713 75.1874 67.7299C75.0636 67.6681 74.9399 67.6062 74.8124 67.5424C74.8124 69.5843 74.8124 71.6262 74.8124 73.7299C78.958 73.7299 83.1036 73.7299 87.3749 73.7299C87.3684 72.7213 87.3618 71.7127 87.3551 70.6735C87.3522 70.0352 87.3495 69.3969 87.3474 68.7586C87.3441 67.7451 87.3401 66.7315 87.3325 65.718C87.3263 64.901 87.323 64.0841 87.3215 63.2671C87.3205 62.9551 87.3184 62.6432 87.3154 62.3312C87.3113 61.8948 87.3108 61.4586 87.311 61.0222C87.308 60.828 87.308 60.828 87.3049 60.6298C87.3083 60.1045 87.3173 59.7509 87.6206 59.3118C88.1523 58.9646 88.6238 58.939 89.2499 58.9174C89.8026 59.1697 90.1017 59.3085 90.3749 59.8549C90.3962 60.3477 90.4064 60.8355 90.4081 61.3284C90.4093 61.4806 90.4105 61.6328 90.4118 61.7895C90.4155 62.2943 90.4177 62.7991 90.4196 63.3039C90.4203 63.4762 90.4211 63.6484 90.4219 63.8259C90.4258 64.7375 90.4285 65.6492 90.4302 66.5609C90.4323 67.5028 90.4388 68.4448 90.4462 69.3867C90.4511 70.1107 90.4527 70.8347 90.4533 71.5587C90.4543 71.906 90.4564 72.2532 90.4599 72.6004C90.4645 73.0866 90.4643 73.5725 90.463 74.0587C90.4666 74.2736 90.4666 74.2736 90.4703 74.4929C90.4636 75.1776 90.3951 75.5725 90.0295 76.1586C89.3242 76.8276 88.6068 76.7559 87.6904 76.7512C87.4818 76.7513 87.4818 76.7513 87.269 76.7513C86.8094 76.7512 86.3499 76.7497 85.8903 76.7482C85.5716 76.7479 85.2529 76.7476 84.9342 76.7474C84.0955 76.7467 83.2567 76.7449 82.418 76.7428C81.5621 76.7409 80.7062 76.74 79.8504 76.7391C78.171 76.7371 76.4917 76.7338 74.8124 76.7299C74.8124 77.5962 74.8124 78.4624 74.8124 79.3549C80.8143 79.3549 86.8161 79.3549 92.9999 79.3549C93.004 70.595 93.0075 61.8351 93.0095 53.0752C93.0097 52.042 93.0099 51.0088 93.0102 49.9757C93.0102 49.77 93.0103 49.5643 93.0103 49.3523C93.0112 46.0177 93.0126 42.683 93.0144 39.3484C93.0161 35.9291 93.0172 32.5098 93.0175 29.0905C93.0178 26.9791 93.0186 24.8676 93.0201 22.7561C93.0211 21.3101 93.0214 19.864 93.0212 18.4179C93.021 17.5825 93.0212 16.747 93.0222 15.9115C93.0231 15.1477 93.0232 14.384 93.0226 13.6202C93.0225 13.3428 93.0227 13.0655 93.0233 12.7882C93.024 12.4132 93.0235 12.0382 93.023 11.6632C93.023 11.4544 93.0231 11.2455 93.0232 11.0302C93.033 10.5454 93.033 10.5454 92.8124 10.1674C63.2361 10.1674 33.6599 10.1674 3.18738 10.1674C2.92743 10.6873 2.97362 11.1131 2.97031 11.6949C2.96839 11.937 2.96646 12.1792 2.96448 12.4287C2.96384 12.5585 2.96319 12.6882 2.96253 12.822C2.96032 13.2278 2.95667 13.6336 2.95257 14.0394C2.94101 15.1933 2.93088 16.3471 2.92463 17.501C2.92071 18.2066 2.91409 18.9121 2.90574 19.6177C2.90308 19.8867 2.90145 20.1558 2.90085 20.4248C2.89993 20.801 2.89529 21.1771 2.89048 21.5533C2.88896 21.7674 2.88745 21.9815 2.88588 22.2021C2.81238 22.7299 2.81238 22.7299 2.56654 23.0752C2.04731 23.4314 1.55561 23.4474 0.937385 23.4799C0.413188 23.3006 0.248042 23.2262 -0.00011529 22.7299C-0.0212333 22.309 -0.0300013 21.8874 -0.0333032 21.466C-0.0345353 21.336 -0.0357674 21.2061 -0.0370368 21.0723C-0.0407385 20.6414 -0.0429241 20.2106 -0.044793 19.7797C-0.0455572 19.6325 -0.0463213 19.4854 -0.0471087 19.3337C-0.0510212 18.5543 -0.053702 17.775 -0.0554589 16.9956C-0.0575315 16.1915 -0.0639791 15.3875 -0.0714288 14.5834C-0.0763375 13.9645 -0.0779014 13.3455 -0.0785742 12.7265C-0.0794862 12.4302 -0.0816629 12.1339 -0.0851438 11.8376C-0.089722 11.4219 -0.0895355 11.0066 -0.0882348 10.591C-0.0893347 10.3548 -0.0904346 10.1186 -0.0915679 9.87521C0.0443626 8.9161 0.501437 8.34667 1.18348 7.68306C2.23337 6.99941 3.33956 6.92504 4.56223 6.93222ZM68.6007 48.0512C68.4501 48.2185 68.2996 48.3857 68.1444 48.5581C66.3971 50.3356 64.6218 50.4211 62.2499 50.4799C62.0562 51.1038 62.0658 51.6352 62.0975 52.2846C62.0993 53.7281 61.8407 54.7899 60.8385 55.8618C60.5004 56.1862 60.1554 56.5037 59.8029 56.8125C59.3984 57.1853 59.3984 57.1853 59.4257 57.6108C59.6877 58.0964 60.021 58.3874 60.4335 58.7534C61.4965 59.7944 62.0341 60.7186 62.0858 62.2251C62.0783 62.685 62.0616 63.145 62.0338 63.6042C62.0207 64.1528 62.0207 64.1528 62.2579 64.5249C62.8306 64.8449 63.3363 64.7681 63.9843 64.7417C65.2514 64.692 66.2592 64.7059 67.275 65.5319C67.4305 65.6965 67.5859 65.8611 67.746 66.0307C67.9038 66.1948 68.0616 66.3589 68.2243 66.528C68.6249 66.9799 68.6249 66.9799 68.9999 67.5424C69.626 67.2772 69.959 66.968 70.3827 66.4409C71.101 65.5933 71.8064 64.9251 72.9374 64.7299C73.4468 64.7216 73.9518 64.7208 74.4608 64.7299C75.4147 64.7884 75.4147 64.7884 76.3124 64.5424C76.3194 64.3297 76.3264 64.117 76.3336 63.8979C76.4743 60.4316 76.4743 60.4316 77.3627 59.5605C77.6686 59.3102 77.6686 59.3102 77.6249 58.9174C77.7332 58.871 77.8415 58.8246 77.953 58.7768C78.4467 58.5025 78.7732 58.2353 79.1249 57.7924C79.0794 57.3261 79.0018 57.1055 78.6649 56.7758C78.5537 56.6937 78.4426 56.6115 78.328 56.5268C77.3925 55.7684 76.7551 54.8508 76.4999 53.6674C76.4738 53.4112 76.4542 53.1542 76.4406 52.8969C76.4327 52.7555 76.4249 52.6141 76.4168 52.4685C76.4094 52.3227 76.402 52.177 76.3944 52.0268C76.3863 51.8782 76.3782 51.7295 76.3699 51.5764C76.3501 51.2109 76.3311 50.8454 76.3124 50.4799C76.1154 50.4729 75.9184 50.4659 75.7155 50.4587C72.0431 50.299 72.0431 50.299 70.6874 48.9799C70.3955 48.6336 70.1084 48.2858 69.8305 47.9282C69.3399 47.451 69.0536 47.6158 68.6007 48.0512ZM71.2382 69.769C70.5682 70.2537 70.0168 70.4995 69.1874 70.5424C68.307 70.3643 67.5505 70.0052 66.7499 69.6049C66.7499 75.1118 66.7499 80.6187 66.7499 86.2924C67.3068 86.0449 67.8636 85.7974 68.4374 85.5424C69.8504 85.363 70.3568 85.7102 71.8124 86.2924C71.8124 80.7237 71.8124 75.1549 71.8124 69.4174C71.5609 69.3964 71.5609 69.3964 71.2382 69.769Z" fill="white"/>
<path d="M19.0036 33.0178C19.2132 33.0171 19.4227 33.0164 19.6386 33.0157C19.9854 33.0159 19.9854 33.0159 20.3392 33.0161C20.7064 33.0153 20.7064 33.0153 21.0811 33.0145C21.7621 33.0129 22.4431 33.0126 23.1241 33.0125C23.858 33.0121 24.5919 33.0107 25.3259 33.0094C26.9312 33.0069 28.5366 33.0058 30.1419 33.0049C31.1439 33.0044 32.1458 33.0036 33.1478 33.0028C35.9208 33.0005 38.6937 32.9986 41.4667 32.9979C41.733 32.9979 41.733 32.9979 42.0047 32.9978C42.1826 32.9978 42.3605 32.9977 42.5439 32.9977C42.9045 32.9976 43.2651 32.9975 43.6257 32.9974C43.8046 32.9974 43.9834 32.9973 44.1677 32.9973C47.0673 32.9966 49.9669 32.9933 52.8664 32.9889C55.8419 32.9845 58.8173 32.9821 61.7927 32.9819C63.4639 32.9818 65.1351 32.9807 66.8063 32.9773C68.2291 32.9744 69.6519 32.9734 71.0748 32.975C71.8009 32.9757 72.5271 32.9755 73.2533 32.9729C74.04 32.9701 74.8265 32.9716 75.6132 32.9736C75.8436 32.9721 76.0739 32.9706 76.3112 32.969C76.627 32.9708 76.627 32.9708 76.9492 32.9727C77.1308 32.9726 77.3124 32.9725 77.4995 32.9724C78.1017 33.0567 78.4489 33.2475 78.9375 33.605C79.3125 34.1675 79.3125 34.1675 79.2773 34.8237C79.0824 35.6635 79.0824 35.6635 78.5625 36.0425C78.1013 36.113 78.1013 36.113 77.5402 36.1133C77.3265 36.1147 77.1129 36.1162 76.8927 36.1177C76.539 36.1158 76.539 36.1158 76.1781 36.1139C75.9259 36.1146 75.6737 36.1154 75.4215 36.1166C74.7269 36.1189 74.0323 36.1177 73.3378 36.116C72.5893 36.1147 71.8408 36.1167 71.0923 36.1182C69.6255 36.1208 68.1586 36.1202 66.6918 36.1186C65.5 36.1173 64.3082 36.1171 63.1164 36.1177C62.8623 36.1179 62.8623 36.1179 62.6031 36.118C62.259 36.1182 61.9148 36.1184 61.5707 36.1186C58.3415 36.1202 55.1123 36.1183 51.883 36.1153C49.1102 36.1128 46.3373 36.1132 43.5645 36.1158C40.347 36.1188 37.1296 36.12 33.9122 36.1183C33.5693 36.1181 33.2265 36.1179 32.8836 36.1177C32.7149 36.1177 32.5462 36.1176 32.3723 36.1175C31.1815 36.117 29.9907 36.1178 28.7999 36.1191C27.3493 36.1207 25.8988 36.1203 24.4482 36.1173C23.7077 36.1158 22.9671 36.1152 22.2266 36.1171C21.5493 36.1188 20.872 36.1179 20.1948 36.1149C19.8323 36.1139 19.4698 36.1158 19.1073 36.1177C18.7868 36.1155 18.7868 36.1155 18.4598 36.1133C18.2746 36.1132 18.0894 36.1131 17.8986 36.113C17.3613 36.0308 17.1933 35.9131 16.875 35.48C16.8003 35.0757 16.8003 35.0757 16.8047 34.6362C16.8032 34.4912 16.8018 34.3462 16.8003 34.1968C16.8927 33.6967 17.0386 33.5371 17.4375 33.23C18.0123 33.0384 18.4017 33.0186 19.0036 33.0178Z" fill="white"/>
<path d="M18.4909 24.5343C18.665 24.5328 18.8392 24.5314 19.0185 24.5298C19.2092 24.5311 19.3998 24.5324 19.5962 24.5336C19.7992 24.5328 20.0023 24.5319 20.2114 24.531C20.894 24.5287 21.5766 24.5305 22.2592 24.5323C22.7476 24.5315 23.236 24.5305 23.7244 24.5293C24.9147 24.5268 26.105 24.5273 27.2953 24.529C28.2625 24.5302 29.2298 24.5304 30.197 24.5298C30.3346 24.5297 30.4722 24.5296 30.6139 24.5295C30.8934 24.5294 31.1729 24.5292 31.4524 24.529C34.074 24.5274 36.6957 24.5292 39.3173 24.5323C41.5676 24.5348 43.8178 24.5343 46.0681 24.5317C48.6803 24.5287 51.2924 24.5275 53.9046 24.5293C54.1831 24.5295 54.4615 24.5296 54.74 24.5298C54.9455 24.5299 54.9455 24.5299 55.1552 24.5301C56.1215 24.5306 57.0877 24.5297 58.054 24.5284C59.3541 24.5267 60.6542 24.5279 61.9543 24.5312C62.4323 24.5319 62.9103 24.5317 63.3884 24.5305C64.0392 24.5289 64.6899 24.5308 65.3408 24.5336C65.5314 24.5324 65.722 24.5311 65.9185 24.5298C66.0926 24.5313 66.2667 24.5328 66.4461 24.5343C66.6714 24.5344 66.6714 24.5344 66.9014 24.5346C67.4218 24.6239 67.6788 24.8096 68.0623 25.1676C68.2996 25.8797 68.2819 26.2074 68.0154 26.9137C67.6873 27.4176 67.6873 27.4176 67.1248 27.6051C66.8461 27.6222 66.5667 27.6289 66.2875 27.6292C66.1151 27.6298 65.9426 27.6304 65.765 27.631C65.5753 27.6307 65.3855 27.6304 65.1901 27.6301C64.9887 27.6306 64.7874 27.631 64.58 27.6314C63.902 27.6326 63.224 27.6325 62.5461 27.6323C62.0614 27.6329 61.5767 27.6335 61.092 27.6342C59.9101 27.6358 58.7281 27.6363 57.5462 27.6364C56.5858 27.6365 55.6253 27.6369 54.6649 27.6375C51.9432 27.6391 49.2214 27.64 46.4997 27.6398C46.353 27.6398 46.2062 27.6398 46.0549 27.6398C45.908 27.6398 45.761 27.6398 45.6096 27.6398C43.227 27.6397 40.8445 27.6415 38.4619 27.6442C36.0168 27.6468 33.5717 27.6481 31.1266 27.648C29.7534 27.6479 28.3801 27.6484 27.0068 27.6505C25.7158 27.6523 24.4248 27.6523 23.1337 27.6509C22.659 27.6507 22.1843 27.6512 21.7097 27.6523C21.0633 27.6537 20.4171 27.6529 19.7708 27.6514C19.4868 27.6529 19.4868 27.6529 19.1971 27.6544C18.9377 27.6531 18.9377 27.6531 18.6731 27.6517C18.5239 27.6518 18.3747 27.6518 18.221 27.6519C17.7571 27.5988 17.4571 27.4768 17.0623 27.2301C16.8453 26.7961 16.8312 26.5062 16.8162 26.023C16.8092 25.8763 16.8021 25.7296 16.7949 25.5785C16.8748 25.1676 16.8748 25.1676 17.2006 24.8651C17.6819 24.57 17.9318 24.5346 18.4909 24.5343Z" fill="white"/>
<path d="M22.3125 50.4801C23.1111 51.2387 23.2216 51.9609 23.3489 53.0033C23.3706 53.1572 23.3922 53.311 23.4146 53.4695C23.4837 53.961 23.5489 54.4528 23.6133 54.9449C24.1008 58.8383 24.1008 58.8383 25.5 62.4801C25.979 62.4111 26.1932 62.3633 26.502 61.9791C26.5735 61.8505 26.645 61.7219 26.7188 61.5895C26.8384 61.3875 26.8384 61.3875 26.9604 61.1815C27.0354 61.0532 27.1103 60.9248 27.1875 60.7926C27.6263 60.1051 27.7955 59.899 28.582 59.6559C29.25 59.6676 29.25 59.6676 29.7539 59.9254C30.252 60.4908 30.4796 61.0223 30.7332 61.7257C30.9938 62.2096 31.1783 62.2825 31.6875 62.4801C32.2049 62.5374 32.2049 62.5374 32.7762 62.5309C33.1047 62.5338 33.1047 62.5338 33.4399 62.5367C33.7935 62.5373 33.7935 62.5373 34.1543 62.538C34.5251 62.5415 34.8959 62.545 35.2667 62.5487C36.1805 62.5572 37.0944 62.5616 38.0082 62.5656C38.5214 62.568 39.0346 62.5719 39.5477 62.5773C40.031 62.5823 40.5143 62.5848 40.9976 62.5849C41.2166 62.5874 41.4356 62.5899 41.6613 62.5925C41.9501 62.5939 41.9501 62.5939 42.2449 62.5954C42.8265 62.6785 43.0826 62.8219 43.5 63.2301C43.6909 63.8573 43.7196 64.2372 43.5469 64.8707C43.3125 65.2926 43.3125 65.2926 42.75 65.6676C42.2608 65.7165 42.2608 65.7165 41.666 65.7191C41.4431 65.7209 41.2202 65.7227 40.9905 65.7245C40.7491 65.7243 40.5077 65.7242 40.259 65.724C40.0079 65.7247 39.7568 65.7255 39.5056 65.7264C38.9784 65.7278 38.4512 65.7278 37.9239 65.7268C37.253 65.7257 36.5821 65.7289 35.9111 65.7332C35.3917 65.736 34.8723 65.7361 34.3528 65.7356C33.9867 65.7357 33.6205 65.7383 33.2543 65.7409C31.527 65.7321 29.9492 65.557 28.5 64.5426C28.3608 64.6586 28.2216 64.7746 28.0781 64.8942C26.9952 65.7309 26.1013 65.8226 24.75 65.6676C23.6868 65.3073 23.0017 64.583 22.4902 63.6016C22.4246 63.4684 22.3589 63.3351 22.2913 63.1979C22.2247 63.0633 22.1582 62.9287 22.0896 62.7901C22.0143 62.6366 22.0143 62.6366 21.9375 62.4801C21.8893 62.6248 21.8412 62.7696 21.7915 62.9187C21.5724 63.5739 21.3507 64.2281 21.1289 64.8824C21.0531 65.1102 20.9774 65.338 20.8993 65.5727C20.825 65.7909 20.7506 66.009 20.6741 66.2338C20.5724 66.5357 20.5724 66.5357 20.4688 66.8437C20.2593 67.3333 20.1043 67.5946 19.6875 67.9176C19.1116 68.0449 18.5787 68.0248 18 67.9176C17.4961 67.5543 17.4961 67.5543 17.25 66.9801C17.3583 65.9694 17.7119 64.9768 18.0199 64.0118C18.8563 61.3799 19.4151 58.7602 19.6443 56.0069C19.6619 55.7978 19.6619 55.7978 19.6798 55.5844C19.7376 54.8844 19.7899 54.1845 19.8349 53.4836C19.854 53.2244 19.8733 52.9651 19.8926 52.7059C19.9074 52.4757 19.9223 52.2455 19.9376 52.0082C20.0819 51.3257 20.2719 51.0944 20.8125 50.6676C21.3515 50.3981 21.7161 50.4085 22.3125 50.4801Z" fill="white"/>
<path d="M19.0341 41.5747C19.2479 41.5733 19.2479 41.5733 19.466 41.572C19.944 41.5698 20.4217 41.5731 20.8997 41.5763C21.2421 41.5759 21.5846 41.5752 21.9271 41.5742C22.8576 41.5723 23.7881 41.5752 24.7186 41.579C25.6917 41.5823 26.6648 41.5817 27.6379 41.5815C29.2721 41.5819 30.9064 41.5851 32.5406 41.5902C34.4309 41.5961 36.3211 41.5981 38.2114 41.5978C40.0287 41.5976 41.8459 41.5995 43.6632 41.6026C44.4371 41.604 45.211 41.6046 45.9849 41.6048C46.896 41.6052 47.8071 41.6075 48.7181 41.6113C49.0528 41.6124 49.3875 41.6128 49.7222 41.6126C50.1785 41.6124 50.6346 41.6146 51.0909 41.6173C51.2239 41.6167 51.3569 41.6161 51.4939 41.6155C52.1706 41.6222 52.6819 41.6574 53.25 42.0424C53.6042 42.5146 53.6263 42.7602 53.6016 43.3549C53.4062 44.0248 53.2406 44.2455 52.6875 44.6674C52.1894 44.7411 51.7689 44.7689 51.2713 44.7627C51.128 44.7638 50.9847 44.765 50.837 44.7662C50.3565 44.7692 49.8762 44.7668 49.3956 44.7645C49.0513 44.7655 48.707 44.7668 48.3626 44.7684C47.4271 44.7719 46.4916 44.7705 45.556 44.7682C44.5777 44.7663 43.5993 44.768 42.621 44.7692C40.9779 44.7706 39.3349 44.7688 37.6918 44.7652C35.7913 44.7611 33.8908 44.7624 31.9903 44.7666C30.3595 44.77 28.7288 44.7705 27.098 44.7685C26.1236 44.7673 25.1492 44.7672 24.1748 44.7696C23.2588 44.7718 22.3428 44.7703 21.4268 44.766C21.0903 44.765 20.7538 44.7653 20.4173 44.7669C19.9585 44.769 19.5 44.7664 19.0413 44.7627C18.8407 44.7652 18.8407 44.7652 18.636 44.7677C17.9981 44.7576 17.6769 44.708 17.1677 44.3099C16.8501 43.884 16.7731 43.6919 16.7813 43.1674C16.7783 42.9818 16.7783 42.9818 16.7754 42.7924C17.0832 41.6337 17.9941 41.5596 19.0341 41.5747Z" fill="white"/>
<path d="M72.3748 52.7299C73.4998 53.4655 74.316 54.6252 74.7464 55.9035C75.0629 57.7708 74.8112 59.3601 73.8411 60.9726C73.0559 62.0366 71.9278 62.6417 70.6873 63.0424C68.8093 63.2955 67.32 63.0942 65.7786 62.0031C64.7007 61.1404 64.1806 60.2097 63.7498 58.9174C63.5587 56.9654 63.724 55.5059 64.8748 53.8549C66.7243 51.6274 69.9338 51.3827 72.3748 52.7299ZM66.9608 56.1401C66.6597 56.8927 66.623 57.5556 66.7498 58.3549C67.1607 59.1767 67.578 59.6987 68.4373 60.0424C69.3198 60.1748 69.9484 60.1274 70.7576 59.7377C71.5071 59.0596 71.777 58.5032 71.8826 57.4995C71.7691 56.4591 71.2747 55.8455 70.4998 55.1674C69.019 54.6738 67.9791 54.952 66.9608 56.1401Z" fill="white"/>
</g>
<defs>
<clipPath id="clip0_1021_11669">
<rect width="96" height="96" fill="white" transform="translate(0 0.60498)"/>
</clipPath>
</defs>
</svg>
