<svg width="65" height="62" viewBox="0 0 65 62" fill="none" xmlns="http://www.w3.org/2000/svg">
<rect x="0.498657" y="0.5" width="63.6996" height="61" rx="30.5" stroke="url(#paint0_linear_467_1816)"/>
<path d="M63.6982 31C63.6982 47.5685 49.6624 61 32.3484 61C15.0344 61 0.998657 47.5685 0.998657 31C0.998657 14.4315 15.0344 1 32.3484 1C49.6624 1 63.6982 14.4315 63.6982 31Z" fill="white"/>
<path fill-rule="evenodd" clip-rule="evenodd" d="M32.3484 59C48.5082 59 61.6082 46.464 61.6082 31C61.6082 15.536 48.5082 3 32.3484 3C16.1887 3 3.08864 15.536 3.08864 31C3.08864 46.464 16.1887 59 32.3484 59ZM32.3484 61C49.6624 61 63.6982 47.5685 63.6982 31C63.6982 14.4315 49.6624 1 32.3484 1C15.0344 1 0.998657 14.4315 0.998657 31C0.998657 47.5685 15.0344 61 32.3484 61Z" fill="url(#paint1_linear_467_1816)"/>
<path d="M38.6059 18.8932C38.6059 19.1164 38.4893 19.3675 38.3143 19.535L26.8555 30.5004L38.3143 41.4658C38.4893 41.6332 38.6059 41.8843 38.6059 42.1075C38.6059 42.3307 38.4893 42.5818 38.3143 42.7492L36.8565 44.1443C36.6815 44.3117 36.4191 44.4233 36.1858 44.4233C35.9526 44.4233 35.6902 44.3117 35.5152 44.1443L21.928 31.1421C21.753 30.9747 21.6364 30.7236 21.6364 30.5004C21.6364 30.2771 21.753 30.026 21.928 29.8586L35.5152 16.8564C35.6902 16.689 35.9526 16.5774 36.1858 16.5774C36.4191 16.5774 36.6815 16.689 36.8565 16.8564L38.3143 18.2515C38.4893 18.4189 38.6059 18.6421 38.6059 18.8932Z" fill="url(#paint2_linear_467_1816)"/>
<path fill-rule="evenodd" clip-rule="evenodd" d="M21.189 29.1515L34.7763 16.1493C35.1256 15.8149 35.6464 15.5774 36.1858 15.5774C36.7252 15.5774 37.2459 15.8149 37.5953 16.1493L39.0532 17.5444C39.0532 17.5444 39.0532 17.5444 39.0532 17.5444C39.3892 17.866 39.6508 18.3332 39.6508 18.8932C39.6508 19.4094 39.4026 19.9077 39.0532 20.2421L28.3333 30.5004L39.0532 40.7587C39.4026 41.093 39.6508 41.5913 39.6508 42.1075C39.6508 42.6237 39.4026 43.122 39.0532 43.4563L37.5953 44.8514C37.2459 45.1858 36.7252 45.4233 36.1858 45.4233C35.6464 45.4233 35.1257 45.1858 34.7763 44.8514L21.189 31.8492C20.8396 31.5149 20.5914 31.0166 20.5914 30.5004C20.5914 29.9842 20.8396 29.4859 21.189 29.1515ZM38.3143 41.4658C38.4892 41.6332 38.6058 41.8843 38.6058 42.1075C38.6058 42.3307 38.4892 42.5818 38.3143 42.7492L36.8564 44.1443C36.6815 44.3117 36.419 44.4233 36.1858 44.4233C35.9525 44.4233 35.6901 44.3117 35.5152 44.1443L21.9279 31.1421C21.753 30.9747 21.6364 30.7236 21.6364 30.5004C21.6364 30.2771 21.753 30.026 21.9279 29.8586L35.5152 16.8564C35.6901 16.689 35.9525 16.5774 36.1858 16.5774C36.419 16.5774 36.6815 16.689 36.8564 16.8564L38.3143 18.2515C38.4892 18.4189 38.6058 18.6421 38.6058 18.8932C38.6058 19.1164 38.4892 19.3675 38.3143 19.535L26.8555 30.5004L38.3143 41.4658Z" fill="url(#paint3_linear_467_1816)"/>
<defs>
<linearGradient id="paint0_linear_467_1816" x1="0.998657" y1="31" x2="63.6982" y2="31" gradientUnits="userSpaceOnUse">
<stop stop-color="#001AAF"/>
<stop offset="1" stop-color="#871EB6"/>
</linearGradient>
<linearGradient id="paint1_linear_467_1816" x1="0.998657" y1="31" x2="63.6982" y2="31" gradientUnits="userSpaceOnUse">
<stop stop-color="#001AAF"/>
<stop offset="1" stop-color="#871EB6"/>
</linearGradient>
<linearGradient id="paint2_linear_467_1816" x1="21.6364" y1="30.5004" x2="38.6059" y2="30.5004" gradientUnits="userSpaceOnUse">
<stop stop-color="#001AAF"/>
<stop offset="1" stop-color="#871EB6"/>
</linearGradient>
<linearGradient id="paint3_linear_467_1816" x1="20.5914" y1="30.5004" x2="39.6508" y2="30.5004" gradientUnits="userSpaceOnUse">
<stop stop-color="#001AAF"/>
<stop offset="1" stop-color="#871EB6"/>
</linearGradient>
</defs>
</svg>
