<svg width="95" height="96" viewBox="0 0 95 96" fill="none" xmlns="http://www.w3.org/2000/svg">
<g clip-path="url(#clip0_1021_11054)">
<path d="M13.3712 12.5549C13.5142 12.5579 13.6573 12.5608 13.8047 12.5639C14.3285 12.5782 14.8516 12.601 15.3751 12.6252C15.6973 12.6391 15.6973 12.6391 16.026 12.6532C21.7577 12.9152 27.392 13.669 33.0001 14.8752C33.1954 14.9172 33.3906 14.9592 33.5918 15.0024C37.9582 15.9651 42.4025 17.3362 46.4409 19.2714C47.2944 19.6689 47.8148 19.8637 48.7501 19.5627C49.2448 19.3609 49.7288 19.1504 50.2149 18.9299C59.7742 14.7751 70.2701 13.0709 80.6251 12.6252C80.9096 12.6121 80.9096 12.6121 81.1999 12.5987C81.6763 12.5787 82.1523 12.5648 82.629 12.5549C82.7591 12.55 82.8892 12.5451 83.0233 12.5401C83.6143 12.538 83.984 12.6162 84.5018 12.9062C85.1052 13.5557 85.0567 14.1253 85.0291 14.966C85.0278 15.119 85.0265 15.2719 85.0251 15.4295C85.0199 15.9168 85.0081 16.4037 84.9962 16.8908C84.9915 17.2217 84.9872 17.5525 84.9834 17.8833C84.973 18.6933 84.9569 19.5029 84.9376 20.3127C85.2569 20.3083 85.2569 20.3083 85.5827 20.3038C86.3721 20.2936 87.1614 20.2872 87.9508 20.2818C88.2926 20.279 88.6343 20.2752 88.976 20.2703C89.4671 20.2635 89.958 20.2603 90.4491 20.2578C90.602 20.2549 90.755 20.252 90.9125 20.249C91.9697 20.2487 91.9697 20.2487 92.3842 20.5345C92.715 21.0024 92.696 21.3201 92.6969 21.8911C92.6995 22.2095 92.6995 22.2095 92.7021 22.5344C92.7006 22.8857 92.7006 22.8857 92.699 23.2441C92.7 23.4947 92.7011 23.7452 92.7025 23.9957C92.7056 24.6857 92.7051 25.3756 92.7041 26.0655C92.7036 26.809 92.7063 27.5525 92.7086 28.296C92.7126 29.7531 92.7134 31.2103 92.7131 32.6674C92.7129 33.8514 92.7136 35.0354 92.715 36.2194C92.7154 36.5601 92.7158 36.9007 92.7161 37.2414C92.7164 37.4957 92.7164 37.4957 92.7167 37.7551C92.7203 40.9636 92.7201 44.1721 92.7188 47.3806C92.7178 50.3179 92.7217 53.2552 92.7279 56.1925C92.7342 59.2063 92.7371 62.22 92.7362 65.2338C92.7358 66.9267 92.7368 68.6196 92.7414 70.3125C92.7453 71.7536 92.746 73.1947 92.7425 74.6359C92.7408 75.3716 92.7406 76.1072 92.7444 76.8428C92.7479 77.5159 92.7471 78.1888 92.7428 78.8618C92.7417 79.2215 92.7451 79.5813 92.7487 79.941C92.7465 80.1538 92.7443 80.3665 92.742 80.5858C92.7421 80.7697 92.7421 80.9537 92.7422 81.1432C92.6251 81.6252 92.6251 81.6252 92.2414 82.0593C91.5515 82.4529 90.983 82.4795 90.2103 82.4696C89.9878 82.4712 89.9878 82.4712 89.7608 82.4729C89.2618 82.4757 88.763 82.473 88.2641 82.4705C87.9035 82.4713 87.543 82.4725 87.1824 82.474C86.1901 82.4771 85.1979 82.4756 84.2056 82.4733C83.136 82.4716 82.0665 82.4742 80.997 82.4762C78.9011 82.4796 76.8053 82.4789 74.7094 82.4767C73.0065 82.475 71.3036 82.4748 69.6008 82.4756C69.3587 82.4757 69.1166 82.4758 68.8671 82.4759C68.3753 82.4762 67.8836 82.4764 67.3918 82.4767C62.9089 82.4787 58.426 82.4766 53.9431 82.4727C49.8496 82.4691 45.756 82.4694 41.6625 82.473C37.0648 82.477 32.4671 82.4786 27.8694 82.4763C27.3794 82.4761 26.8894 82.4758 26.3994 82.4756C26.0378 82.4754 26.0378 82.4754 25.6688 82.4752C23.9674 82.4746 22.266 82.4757 20.5646 82.4774C18.4919 82.4795 16.4193 82.479 14.3466 82.475C13.2885 82.473 12.2305 82.4723 11.1724 82.4747C10.2046 82.477 9.23687 82.4757 8.26907 82.4717C7.91818 82.4709 7.56729 82.4713 7.21641 82.4731C6.74082 82.4754 6.26548 82.4731 5.78991 82.4696C5.58373 82.4722 5.58373 82.4722 5.3734 82.4749C4.72455 82.4653 4.32598 82.3829 3.75883 82.0593C3.28816 81.5269 3.25798 81.2891 3.25817 80.5858C3.25596 80.373 3.25375 80.1602 3.25146 79.941C3.25381 79.7072 3.25616 79.4734 3.25858 79.2325C3.25777 78.9817 3.25654 78.7309 3.25495 78.48C3.25175 77.7901 3.25442 77.1003 3.25804 76.4104C3.26093 75.6667 3.25842 74.923 3.25659 74.1792C3.25387 72.722 3.25616 71.2649 3.26018 69.8077C3.26467 68.1118 3.26436 66.4159 3.26387 64.7199C3.26318 61.6947 3.26708 58.6695 3.27348 55.6443C3.27968 52.7068 3.28234 49.7692 3.28117 46.8317C3.2799 43.6349 3.28036 40.4382 3.28405 37.2414C3.28424 37.0725 3.28444 36.9035 3.28464 36.7295C3.28503 36.3902 3.28543 36.0508 3.28583 35.7115C3.28712 34.5285 3.28724 33.3455 3.28697 32.1624C3.2867 30.7215 3.28851 29.2806 3.29296 27.8396C3.29519 27.104 3.29652 26.3684 3.29543 25.6327C3.29446 24.96 3.29608 24.2873 3.29979 23.6145C3.30111 23.2545 3.29966 22.8944 3.29812 22.5344C3.29982 22.3221 3.30152 22.1098 3.30327 21.8911C3.30356 21.7072 3.30386 21.5233 3.30416 21.3338C3.3751 20.8752 3.3751 20.8752 3.61597 20.5345C4.18839 20.1398 4.88041 20.2451 5.55113 20.2578C5.70848 20.2586 5.86583 20.2594 6.02795 20.2602C6.53045 20.2634 7.0328 20.2704 7.53526 20.2776C7.87595 20.2804 8.21665 20.283 8.55735 20.2853C9.39249 20.2915 10.2275 20.3012 11.0626 20.3127C11.0552 20.0034 11.0552 20.0034 11.0477 19.6878C11.0307 18.9219 11.02 18.156 11.0111 17.3899C11.0064 17.0585 11 16.7271 10.9919 16.3958C10.9805 15.9192 10.9752 15.4428 10.971 14.966C10.9662 14.8182 10.9614 14.6703 10.9564 14.5179C10.956 13.785 10.9911 13.4522 11.4984 12.9062C12.1375 12.5483 12.659 12.5281 13.3712 12.5549ZM13.8751 15.4377C13.8751 34.124 13.8751 52.8102 13.8751 72.0627C16.1026 72.1865 18.3301 72.3102 20.6251 72.4377C29.2666 73.3112 37.8657 74.9817 45.8715 78.4519C46.2918 78.6481 46.2918 78.6481 46.6876 78.6252C46.6876 60.1246 46.6876 41.624 46.6876 22.5627C36.5633 17.5006 25.059 15.8679 13.8751 15.4377ZM78.8841 15.5278C78.7405 15.5377 78.5969 15.5476 78.449 15.5578C68.4905 16.2612 58.312 18.063 49.3126 22.5627C49.3126 41.0633 49.3126 59.564 49.3126 78.6252C50.2597 78.3095 51.1951 77.9975 52.1288 77.6504C61.9215 74.0503 71.7207 72.5151 82.1251 72.0627C82.1251 53.3765 82.1251 34.6902 82.1251 15.4377C81.034 15.4377 79.9689 15.4513 78.8841 15.5278ZM6.1876 22.9377C6.1876 41.624 6.1876 60.3102 6.1876 79.5627C17.5726 79.5627 28.9576 79.5627 40.6876 79.5627C40.2101 79.0852 39.824 79.0111 39.1759 78.8215C38.94 78.7523 38.7041 78.6831 38.461 78.6119C38.2032 78.538 37.9454 78.4643 37.6876 78.3908C37.5569 78.3533 37.4262 78.3158 37.2915 78.2772C29.8773 76.1543 22.2992 74.8794 14.5793 74.7586C12.4373 74.7169 12.4373 74.7169 11.4376 74.3127C11.2144 73.8662 11.2257 73.5935 11.2241 73.0951C11.2231 72.9167 11.222 72.7383 11.221 72.5545C11.2208 72.3571 11.2206 72.1598 11.2204 71.9565C11.2195 71.7479 11.2186 71.5393 11.2176 71.3244C11.2147 70.6208 11.2132 69.9171 11.2116 69.2135C11.2098 68.711 11.2079 68.2085 11.206 67.706C11.2019 66.6217 11.1985 65.5374 11.1956 64.4531C11.1913 62.8854 11.186 61.3176 11.1805 59.7499C11.1715 57.2066 11.1634 54.6632 11.1558 52.1199C11.1485 49.6488 11.1407 47.1777 11.1324 44.7067C11.1319 44.5544 11.1314 44.4022 11.1309 44.2453C11.1283 43.4816 11.1257 42.7179 11.1231 41.9542C11.1018 35.6154 11.0818 29.2766 11.0626 22.9377C9.45385 22.9377 7.8451 22.9377 6.1876 22.9377ZM84.9376 22.9377C84.9353 23.8942 84.9353 23.8942 84.933 24.8701C84.9189 30.7135 84.903 36.5569 84.8851 42.4003C84.8827 43.1657 84.8804 43.931 84.8781 44.6964C84.8776 44.8488 84.8772 45.0011 84.8767 45.1581C84.8692 47.6275 84.8631 50.097 84.8574 52.5664C84.8516 55.099 84.8444 57.6315 84.8358 60.1641C84.8306 61.7277 84.8265 63.2913 84.8237 64.8549C84.8218 65.9261 84.8184 66.9973 84.814 68.0685C84.8115 68.6872 84.8098 69.3059 84.8093 69.9245C84.8087 70.5943 84.8058 71.2641 84.8023 71.9339C84.8027 72.1307 84.803 72.3275 84.8034 72.5303C84.802 72.7091 84.8006 72.8878 84.7992 73.072C84.7985 73.3041 84.7985 73.3041 84.7979 73.5408C84.7501 73.9377 84.7501 73.9377 84.3751 74.5002C83.6214 74.6854 82.8811 74.7141 82.1075 74.7273C68.1382 74.9678 68.1382 74.9678 55.3126 79.5627C66.6976 79.5627 78.0826 79.5627 89.8126 79.5627C89.8126 60.8765 89.8126 42.1902 89.8126 22.9377C88.2038 22.9377 86.5951 22.9377 84.9376 22.9377Z" fill="white"/>
<path d="M75.9961 60.5547C76.5 60.625 76.5 60.625 77.0391 61.0234C77.4375 61.5625 77.4375 61.5625 77.543 62.1367C77.4102 62.8299 77.2422 63.0066 76.6875 63.4375C76.1954 63.5541 75.7587 63.6275 75.26 63.6763C75.1187 63.6929 74.9775 63.7096 74.8319 63.7267C74.5276 63.7625 74.2231 63.7969 73.9184 63.8302C73.1068 63.9197 72.2967 64.0218 71.4866 64.1238C71.241 64.1545 71.241 64.1545 70.9905 64.1859C66.1196 64.8069 61.3216 65.9842 56.6409 67.4566C56.0451 67.618 55.5476 67.6479 54.9375 67.5625C54.4805 67.2695 54.4805 67.2695 54.1875 66.8125C54.082 66.1562 54.082 66.1562 54.1875 65.5C54.8651 64.8314 55.5227 64.5742 56.428 64.3127C56.5549 64.2757 56.6819 64.2387 56.8127 64.2006C57.2299 64.0802 57.648 63.9636 58.0664 63.8477C58.211 63.807 58.3555 63.7663 58.5045 63.7245C63.9062 62.2103 69.4046 61.1958 74.9899 60.6622C75.3256 60.6298 75.6609 60.5926 75.9961 60.5547Z" fill="white"/>
<path d="M77.0742 43.0118C77.4375 43.5626 77.4375 43.5626 77.4492 44.2423C77.2235 44.9595 77.1386 45.0788 76.5 45.4376C76.0007 45.5365 75.529 45.6069 75.0249 45.6581C74.7232 45.693 74.4216 45.728 74.1199 45.7631C73.9616 45.7806 73.8032 45.7981 73.6401 45.8162C67.8893 46.46 62.0646 47.5002 56.5987 49.4567C56.018 49.6331 55.535 49.6446 54.9375 49.5626C54.4805 49.2697 54.4805 49.2697 54.1875 48.8126C54.082 48.1564 54.082 48.1564 54.1875 47.5001C54.9991 46.6267 56.0913 46.3784 57.1992 46.047C57.4101 45.9833 57.621 45.9195 57.8383 45.8538C62.3408 44.5336 66.9734 43.5979 71.625 43.0001C71.8766 42.9676 71.8766 42.9676 72.1333 42.9344C76.1961 42.4204 76.1961 42.4204 77.0742 43.0118Z" fill="white"/>
<path d="M20.8945 42.637C21.0407 42.6475 21.1868 42.658 21.3374 42.6688C38.3498 44.0375 38.3498 44.0375 41.8125 47.5002C41.8928 48.2231 41.9173 48.6492 41.5195 49.2698C40.8824 49.6782 40.5059 49.6177 39.75 49.5627C39.1096 49.4057 38.4887 49.1963 37.8633 48.9885C32.9892 47.4457 27.9111 46.3829 22.8252 45.8508C22.6102 45.8281 22.3951 45.8053 22.1736 45.7818C21.7704 45.7411 21.3668 45.7044 20.9628 45.6723C20.0914 45.5875 19.6195 45.5267 18.9038 44.9939C18.5625 44.5002 18.5625 44.5002 18.5508 43.8206C18.9444 42.5702 19.7066 42.5406 20.8945 42.637Z" fill="white"/>
<path d="M77.0625 52.0119C77.4375 52.5627 77.4375 52.5627 77.4375 53.2424C77.1887 54.0822 77.1887 54.0822 76.6875 54.4377C76.1959 54.5387 75.7343 54.6078 75.2373 54.6581C74.936 54.6931 74.6346 54.7281 74.3333 54.7631C74.0951 54.7894 74.0951 54.7894 73.8522 54.8163C68.1967 55.4473 62.6716 56.5229 57.2461 58.2697C56.431 58.5248 55.7868 58.7072 54.9375 58.5627C54.4805 58.2697 54.4805 58.2697 54.1875 57.8127C54.082 57.1564 54.082 57.1564 54.1875 56.5002C55.0173 55.5816 56.2138 55.3616 57.3633 55.0353C57.5866 54.971 57.8098 54.9066 58.0399 54.8403C74.4259 50.1993 74.4259 50.1993 77.0625 52.0119Z" fill="white"/>
<path d="M75.405 33.571C76.2015 33.5274 76.5454 33.5161 77.1914 34.0119C77.5135 34.7329 77.4729 35.1228 77.25 35.8752C76.6514 36.4716 76.1078 36.5363 75.2842 36.6171C75.0382 36.6433 74.7923 36.6695 74.5389 36.6965C74.408 36.7096 74.277 36.7227 74.1421 36.7362C68.418 37.3166 62.7423 38.4457 57.2653 40.2199C56.4681 40.472 55.7847 40.6482 54.9375 40.5627C54.4922 40.2697 54.4922 40.2697 54.1875 39.8127C54.0938 39.1564 54.0938 39.1564 54.1875 38.5002C54.7375 37.8012 55.2676 37.5884 56.1108 37.3474C56.3455 37.2794 56.5802 37.2114 56.822 37.1414C57.0766 37.0707 57.3312 37.0002 57.5859 36.9299C57.8499 36.8555 58.1138 36.7811 58.3777 36.7067C63.966 35.1436 69.6267 34.0995 75.405 33.571Z" fill="white"/>
<path d="M20.8477 51.6254C21.0621 51.64 21.0621 51.64 21.281 51.6549C26.6776 52.0901 32.0395 53.2324 37.2539 54.6488C37.4789 54.7097 37.7038 54.7705 37.9356 54.8332C41.0034 55.6912 41.0034 55.6912 41.8125 56.5004C41.8928 57.2232 41.9173 57.6494 41.5195 58.2699C40.8966 58.6692 40.4835 58.6034 39.75 58.5629C39.1478 58.4258 39.1478 58.4258 38.5283 58.2333C38.2964 58.1629 38.0646 58.0925 37.8257 58.02C37.704 57.9823 37.5823 57.9447 37.4569 57.9059C32.2916 56.3171 26.9607 55.1883 21.5713 54.7045C21.4135 54.6901 21.2557 54.6758 21.0931 54.6611C20.8169 54.6383 20.5403 54.6194 20.2635 54.6058C19.602 54.5552 19.3409 54.4649 18.8533 53.9999C18.5625 53.5004 18.5625 53.5004 18.5625 52.8207C18.75 52.1879 18.75 52.1879 19.0525 51.8671C19.6623 51.5377 20.1771 51.5736 20.8477 51.6254Z" fill="white"/>
<path d="M75.26 24.5712C76.5311 24.508 76.5311 24.508 77.2031 25.0121C77.5097 25.7325 77.4712 26.1288 77.25 26.8754C76.6478 27.4779 76.0996 27.5349 75.2695 27.6107C75.0165 27.6361 74.7634 27.6616 74.5104 27.6871C74.3097 27.7062 74.3097 27.7062 74.1049 27.7256C68.3181 28.2856 62.5828 29.4631 57.0586 31.2816C56.1941 31.5549 55.6194 31.6589 54.75 31.3754C54.3867 31.1644 54.3867 31.1644 54.1875 30.8129C54.1055 30.1683 54.1055 30.1683 54.1875 29.5004C54.6974 28.8691 55.1496 28.6213 55.9204 28.3951C56.1173 28.3366 56.3143 28.2781 56.5172 28.2178C56.7307 28.1576 56.9441 28.0975 57.1641 28.0355C57.388 27.9712 57.612 27.9068 57.8428 27.8405C63.5455 26.2305 69.353 25.0753 75.26 24.5712Z" fill="white"/>
<path d="M20.8682 60.6364C20.9995 60.6489 21.1309 60.6613 21.2663 60.6741C21.6783 60.7149 22.0889 60.7632 22.5 60.8129C22.7501 60.8406 23.0002 60.8682 23.2504 60.8958C24.0177 60.9867 24.7822 61.0895 25.5469 61.1997C25.6856 61.2195 25.8243 61.2393 25.9671 61.2597C30.2751 61.8834 34.5221 62.8414 38.707 64.0356C39.0185 64.1224 39.0185 64.1224 39.3362 64.2109C40.3922 64.5267 41.159 64.773 41.8125 65.6879C41.8125 66.3524 41.7485 66.7878 41.4141 67.3637C40.7162 67.7592 39.9791 67.6172 39.2294 67.4397C38.5997 67.2616 37.9737 67.0739 37.3477 66.8832C32.8871 65.5696 28.3597 64.5307 23.7356 64.0019C23.5995 63.9861 23.4635 63.9702 23.3233 63.9539C22.6468 63.8754 21.9702 63.8006 21.2925 63.7323C21.0439 63.7046 20.7952 63.6768 20.5466 63.6489C20.3266 63.6261 20.1066 63.6034 19.88 63.58C19.2221 63.4153 18.9723 63.2212 18.5625 62.6879C18.457 62.1372 18.457 62.1372 18.5625 61.5629C19.281 60.6315 19.7159 60.5174 20.8682 60.6364Z" fill="white"/>
<path d="M23.9297 33.9301C24.06 33.9465 24.1904 33.963 24.3247 33.9799C29.1832 34.6001 33.9207 35.6495 38.625 37.0004C38.9603 37.0924 38.9603 37.0924 39.3023 37.1863C39.5192 37.2482 39.736 37.3101 39.9595 37.374C40.1535 37.4283 40.3476 37.4827 40.5475 37.5387C41.1251 37.7762 41.4247 38.0136 41.8125 38.5004C41.918 39.1567 41.918 39.1567 41.8125 39.8129C41.4492 40.2817 41.4492 40.2817 40.875 40.5629C39.4845 40.4995 38.257 40.1163 36.9375 39.6957C32.0556 38.1997 26.932 37.1614 21.8445 36.7177C21.6883 36.7035 21.5322 36.6893 21.3713 36.6747C21.0893 36.6507 20.8069 36.6305 20.5243 36.6153C19.8244 36.5586 19.5013 36.4389 18.9426 35.9992C18.5625 35.5004 18.5625 35.5004 18.5508 34.8207C18.75 34.1879 18.75 34.1879 19.0312 33.8246C20.4581 33.2182 22.4388 33.7406 23.9297 33.9301Z" fill="white"/>
<path d="M24.1523 24.9299C24.2821 24.9464 24.4118 24.9628 24.5454 24.9798C29.3302 25.5932 33.9917 26.6761 38.625 28.0003C38.9607 28.0922 38.9607 28.0922 39.3031 28.1861C39.52 28.248 39.7368 28.31 39.9602 28.3738C40.1542 28.4281 40.3481 28.4825 40.5479 28.5385C41.1252 28.776 41.4248 29.0137 41.8125 29.5003C41.918 30.1565 41.918 30.1565 41.8125 30.8128C41.4375 31.2815 41.4375 31.2815 40.875 31.5628C39.5192 31.4924 38.2663 31.0724 36.9727 30.6838C31.6781 29.1401 26.0765 27.8631 20.5437 27.6057C19.8341 27.5552 19.5076 27.4437 18.9397 26.9998C18.5625 26.5003 18.5625 26.5003 18.5625 25.8206C19.2075 23.6437 22.4145 24.7068 24.1523 24.9299Z" fill="white"/>
</g>
<defs>
<clipPath id="clip0_1021_11054">
<rect width="95" height="95" fill="white" transform="translate(0 0.10498)"/>
</clipPath>
</defs>
</svg>
