<svg width="96" height="97" viewBox="0 0 96 97" fill="none" xmlns="http://www.w3.org/2000/svg">
<g clip-path="url(#clip0_740_7917)">
<path d="M46 0.111187C46.1362 0.109058 46.2725 0.10693 46.4128 0.104736C47.0231 0.266825 47.2592 0.549848 47.6514 1.04009C47.7451 1.66441 47.7451 1.66441 47.732 2.38507C47.7294 2.64319 47.7267 2.9013 47.724 3.16723C47.7136 3.57036 47.7136 3.57036 47.703 3.98163C47.6993 4.25358 47.6955 4.52553 47.6917 4.80572C47.682 5.47728 47.6684 6.14855 47.6514 6.81996C47.792 6.81727 47.9325 6.81457 48.0773 6.8118C58.3891 6.6996 68.2384 11.8967 75.4881 18.9205C76.693 20.1115 77.7946 21.3668 78.8214 22.7146C78.9117 22.8305 79.002 22.9464 79.095 23.0659C82.0472 26.8862 84.2754 31.2962 85.6334 35.9257C85.6819 36.0861 85.7304 36.2466 85.7804 36.4118C86.3428 38.2926 86.7532 40.1763 87.0396 42.1184C87.0781 42.3773 87.0781 42.3773 87.1173 42.6413C87.2883 43.9158 87.3109 45.1686 87.2848 46.4533C87.4555 46.449 87.6263 46.4447 87.8022 46.4402C88.5758 46.4231 89.3494 46.4123 90.1231 46.4017C90.3919 46.3948 90.6606 46.3879 90.9375 46.3808C91.1956 46.3781 91.4537 46.3755 91.7197 46.3727C91.9575 46.3684 92.1953 46.3641 92.4403 46.3596C93.195 46.4729 93.4296 46.6838 93.8903 47.279C94 47.6919 94 47.6919 93.9935 48.1047C93.9967 48.3091 93.9967 48.3091 94 48.5176C93.8379 49.1278 93.5549 49.3639 93.0646 49.7561C92.4403 49.8499 92.4403 49.8499 91.7197 49.8368C91.3325 49.8328 91.3325 49.8328 90.9375 49.8287C90.5344 49.8183 90.5344 49.8183 90.1231 49.8077C89.8512 49.804 89.5792 49.8003 89.299 49.7964C88.6274 49.7867 87.9562 49.7731 87.2848 49.7561C87.2875 49.8967 87.2902 50.0373 87.2929 50.1821C87.4051 60.4938 82.2081 70.3431 75.1842 77.5929C73.9933 78.7977 72.7383 79.8999 71.3901 80.9261C71.213 81.0632 71.213 81.0632 71.0322 81.2031C64.4979 86.216 55.9553 89.5487 47.6514 89.3895C47.6557 89.5603 47.66 89.731 47.6645 89.907C47.6817 90.6806 47.6924 91.4541 47.703 92.2278C47.7099 92.4966 47.7168 92.7653 47.724 93.0422C47.7266 93.3004 47.7293 93.5585 47.732 93.8244C47.7363 94.0622 47.7407 94.3 47.7451 94.5451C47.6318 95.2997 47.4209 95.5343 46.8257 95.9951C46.4128 96.1047 46.4128 96.1047 46 96.0983C45.7956 96.1015 45.7956 96.1015 45.5872 96.1047C44.9769 95.9426 44.7408 95.6596 44.3486 95.1694C44.2549 94.5451 44.2549 94.5451 44.268 93.8244C44.2706 93.5663 44.2733 93.3082 44.276 93.0422C44.2864 92.6391 44.2864 92.6391 44.297 92.2278C44.3007 91.9559 44.3045 91.6839 44.3083 91.4038C44.318 90.7322 44.3316 90.0609 44.3486 89.3895C44.2086 89.3923 44.0687 89.3952 43.9245 89.3981C42.5982 89.4134 41.3251 89.339 40.0137 89.1444C39.8279 89.1171 39.6421 89.0897 39.4507 89.0616C37.5329 88.7625 35.6768 88.3024 33.821 87.7381C33.6776 87.6948 33.5341 87.6516 33.3864 87.607C26.9563 85.6183 21.5071 82.033 16.6878 77.4169C16.5329 77.2706 16.3781 77.1242 16.2185 76.9734C15.1052 75.8954 14.1225 74.7224 13.1786 73.4949C13.086 73.3756 12.9934 73.2562 12.898 73.1333C8.65286 67.598 6.01626 61.0263 4.94745 54.1555C4.92264 53.9978 4.89783 53.84 4.87226 53.6775C4.68963 52.37 4.69253 51.0744 4.71523 49.7561C4.54446 49.7604 4.3737 49.7648 4.19776 49.7692C3.42416 49.7864 2.65061 49.7971 1.8769 49.8077C1.47377 49.8181 1.47377 49.8181 1.06249 49.8287C0.804381 49.8314 0.546271 49.834 0.280339 49.8368C0.0425177 49.8411 -0.195303 49.8454 -0.440331 49.8499C-1.19499 49.7366 -1.42959 49.5257 -1.89034 48.9304C-2 48.5176 -2 48.5176 -1.99355 48.1047C-1.99674 47.9004 -1.99674 47.9004 -2 47.6919C-1.83791 47.0817 -1.55489 46.8456 -1.06464 46.4533C-0.440331 46.3596 -0.440331 46.3596 0.280339 46.3727C0.667504 46.3767 0.667504 46.3767 1.06249 46.3808C1.46562 46.3912 1.46562 46.3912 1.8769 46.4017C2.14885 46.4055 2.42079 46.4092 2.70098 46.413C3.37255 46.4228 4.04381 46.4363 4.71523 46.4533C4.71133 46.3018 4.70744 46.1502 4.70343 45.994C4.6818 44.5024 4.79345 43.0963 5.05066 41.6282C5.0876 41.4152 5.12454 41.2023 5.1626 40.9829C6.99272 30.872 12.3865 21.5428 20.6099 15.2833C20.728 15.1919 20.8461 15.1005 20.9678 15.0064C27.107 10.2966 35.417 6.78666 43.2673 6.81593C43.4702 6.81651 43.6732 6.8171 43.8823 6.81769C44.1131 6.81882 44.1131 6.81882 44.3486 6.81996C44.3443 6.6492 44.34 6.47843 44.3355 6.30249C44.3183 5.5289 44.3076 4.75534 44.297 3.98163C44.2901 3.71288 44.2832 3.44413 44.276 3.16723C44.2734 2.90912 44.2707 2.65101 44.268 2.38507C44.2636 2.14725 44.2593 1.90943 44.2549 1.66441C44.4051 0.663885 44.9741 0.095157 46 0.111187ZM40.4395 10.5743C40.2715 10.6019 40.1036 10.6295 39.9306 10.658C31.3145 12.1454 22.8873 16.4791 17.3071 23.3339C17.1163 23.561 16.9254 23.7881 16.7346 24.0152C12.4622 29.1605 9.69719 35.424 8.57277 42.0023C8.53735 42.2076 8.50192 42.4129 8.46543 42.6244C8.41758 42.9228 8.41758 42.9228 8.36877 43.2272C8.34074 43.4016 8.31272 43.576 8.28385 43.7557C8.19985 44.6512 8.22443 45.5539 8.22443 46.4533C12.516 46.4533 16.8075 46.4533 21.2291 46.4533C21.5016 44.8866 21.7741 43.3198 22.0548 41.7056C23.1203 38.1871 24.6565 35.0471 27.009 32.2101C27.1551 32.0326 27.3012 31.8551 27.4517 31.6723C31.9472 26.4478 37.7443 24.4346 44.3486 23.3339C44.3486 19.0423 44.3486 14.7508 44.3486 10.3292C42.9812 10.3292 41.767 10.3543 40.4395 10.5743ZM47.6514 10.3292C47.6514 14.6207 47.6514 18.9123 47.6514 23.3339C49.15 23.6064 50.6487 23.8788 52.1927 24.1596C58.7181 26.0427 64.2056 29.9181 67.5314 35.9084C68.4067 37.5281 69.1222 39.1334 69.6613 40.8928C69.7014 41.0202 69.7415 41.1476 69.7828 41.2789C70.279 42.9839 70.475 44.6782 70.7709 46.4533C75.0624 46.4533 79.354 46.4533 83.7756 46.4533C83.7756 44.8799 83.6999 43.5622 83.4401 42.041C83.4033 41.8254 83.3666 41.6099 83.3287 41.3877C81.8302 33.043 77.3856 24.815 70.7709 19.4118C70.6642 19.3222 70.5576 19.2325 70.4477 19.1402C68.7087 17.679 66.9405 16.3965 64.9561 15.2894C64.5932 15.0854 64.2348 14.8733 63.8766 14.6608C59.0416 11.8562 53.2217 10.3292 47.6514 10.3292ZM30.9311 33.0358C30.7834 33.1686 30.6357 33.3014 30.4835 33.4382C26.9106 36.7259 25.0937 41.7187 24.7383 46.4533C25.0618 46.4579 25.0618 46.4579 25.3917 46.4625C26.1916 46.4744 26.9913 46.4904 27.7911 46.5075C28.1373 46.5144 28.4835 46.5202 28.8297 46.5249C29.3273 46.5318 29.8247 46.5426 30.3223 46.5541C30.4771 46.5555 30.6319 46.5568 30.7915 46.5581C31.8635 46.5884 31.8635 46.5884 32.3702 46.951C32.6354 47.3609 32.6654 47.6185 32.6599 48.1047C32.6623 48.3155 32.6623 48.3155 32.6647 48.5305C32.5516 49.0805 32.4235 49.2203 31.9632 49.5497C31.4017 49.618 30.8847 49.6505 30.3223 49.6553C30.1628 49.659 30.0033 49.6627 29.839 49.6666C29.33 49.6777 28.8211 49.6847 28.3121 49.6916C27.9668 49.6985 27.6215 49.7056 27.2763 49.713C26.4303 49.7305 25.5844 49.7443 24.7383 49.7561C25.1259 54.92 27.1503 59.2324 30.7246 62.9673C30.8638 63.1219 31.003 63.2765 31.1464 63.4357C34.5533 67.0856 39.4469 68.9985 44.3486 69.3664C44.3516 69.1508 44.3546 68.9352 44.3577 68.713C44.3697 67.9131 44.3856 67.1134 44.4028 66.3136C44.4096 65.9675 44.4154 65.6213 44.4201 65.2751C44.427 64.7774 44.4378 64.28 44.4494 63.7825C44.4507 63.6276 44.452 63.4728 44.4534 63.3133C44.4837 62.2413 44.4837 62.2413 44.8463 61.7345C45.2561 61.4693 45.5138 61.4394 46 61.4449C46.1405 61.4433 46.281 61.4417 46.4257 61.44C46.9758 61.5532 47.1156 61.6812 47.445 62.1416C47.5133 62.7031 47.5458 63.22 47.5506 63.7825C47.5562 64.0217 47.5562 64.0217 47.5618 64.2658C47.573 64.7747 47.58 65.2836 47.5869 65.7927C47.5937 66.1379 47.6008 66.4832 47.6082 66.8284C47.6258 67.6744 47.6396 68.5203 47.6514 69.3664C52.8152 68.9789 57.1277 66.9544 60.8625 63.3801C61.0171 63.2409 61.1717 63.1018 61.331 62.9584C64.9809 59.5514 66.8938 54.6578 67.2617 49.7561C67.046 49.7531 66.8304 49.7501 66.6083 49.747C65.8084 49.735 65.0087 49.7191 64.2089 49.702C63.8627 49.6951 63.5165 49.6893 63.1703 49.6846C62.6727 49.6777 62.1753 49.6669 61.6777 49.6553C61.5229 49.654 61.3681 49.6527 61.2085 49.6513C60.1365 49.621 60.1365 49.621 59.6298 49.2585C59.3646 48.8486 59.3346 48.591 59.3401 48.1047C59.3385 47.9642 59.3369 47.8237 59.3353 47.679C59.4484 47.1289 59.5765 46.9891 60.0368 46.6598C60.5983 46.5914 61.1153 46.5589 61.6777 46.5541C61.8372 46.5504 61.9967 46.5467 62.161 46.5429C62.67 46.5317 63.1789 46.5247 63.6879 46.5179C64.0332 46.511 64.3784 46.5039 64.7237 46.4965C65.5696 46.4789 66.4156 46.4652 67.2617 46.4533C66.8741 41.2895 64.8497 36.9771 61.2754 33.2422C61.1362 33.0876 60.997 32.933 60.8536 32.7737C57.4467 29.1239 52.5531 27.2109 47.6514 26.8431C47.6484 27.0587 47.6454 27.2743 47.6423 27.4965C47.6303 28.2963 47.6144 29.0961 47.5972 29.8958C47.5903 30.242 47.5846 30.5882 47.5799 30.9344C47.573 31.432 47.5622 31.9295 47.5506 32.427C47.5493 32.5818 47.548 32.7367 47.5466 32.8962C47.5163 33.9682 47.5163 33.9682 47.1537 34.475C46.7439 34.7401 46.4862 34.7701 46 34.7646C45.7893 34.767 45.7893 34.767 45.5742 34.7694C45.0242 34.6563 44.8844 34.5283 44.555 34.0679C44.4867 33.5064 44.4542 32.9894 44.4494 32.427C44.4457 32.2675 44.442 32.108 44.4382 31.9437C44.427 31.4347 44.42 30.9258 44.4131 30.4168C44.4063 30.0715 44.3992 29.7263 44.3917 29.381C44.3742 28.5351 44.3604 27.6891 44.3486 26.8431C39.2793 26.7498 34.4209 29.5873 30.9311 33.0358ZM8.22443 49.7561C8.22443 58.5013 12.0434 67.079 17.9223 73.4521C18.2853 73.8489 18.6299 74.2538 18.9714 74.6689C19.6544 75.4664 20.4212 76.1294 21.2291 76.7977C21.337 76.8885 21.4448 76.9793 21.5559 77.0729C26.812 81.4884 33.1353 84.3761 39.8976 85.532C40.1029 85.5674 40.3081 85.6028 40.5196 85.6393C40.7186 85.6712 40.9175 85.7031 41.1224 85.736C41.2968 85.764 41.4712 85.792 41.6509 85.8209C42.5464 85.9049 43.4492 85.8803 44.3486 85.8803C44.3486 81.5888 44.3486 77.2972 44.3486 72.8756C42.85 72.6031 41.3513 72.3306 39.8073 72.0499C33.2819 70.1667 27.7944 66.2914 24.4686 60.3011C23.5933 58.6814 22.8778 57.0761 22.3387 55.3167C22.2785 55.1256 22.2785 55.1256 22.2172 54.9306C21.721 53.2256 21.525 51.5313 21.2291 49.7561C16.9376 49.7561 12.646 49.7561 8.22443 49.7561ZM70.7709 49.7561C70.4984 51.2548 70.2259 52.7534 69.9452 54.2975C68.062 60.8229 64.1867 66.3103 58.1963 69.6362C56.5766 70.5114 54.9713 71.2269 53.2119 71.7661C53.0208 71.8262 53.0208 71.8262 52.8258 71.8876C51.1208 72.3838 49.4265 72.5797 47.6514 72.8756C47.6514 77.1672 47.6514 81.4587 47.6514 85.8803C57.4057 85.8803 66.3398 81.1631 73.2479 74.527C73.7597 73.9988 74.2278 73.4451 74.6929 72.8756C74.7826 72.769 74.8722 72.6623 74.9646 72.5525C76.4258 70.8134 77.7082 69.0452 78.8153 67.0609C79.0194 66.6979 79.2315 66.3395 79.4439 65.9814C82.2412 61.1596 83.7756 55.3142 83.7756 49.7561C79.484 49.7561 75.1925 49.7561 70.7709 49.7561Z" fill="white"/>
</g>
<defs>
<clipPath id="clip0_740_7917">
<rect width="96" height="96" fill="white" transform="translate(0 0.104736)"/>
</clipPath>
</defs>
</svg>
