<svg width="96" height="97" viewBox="0 0 96 97" fill="none" xmlns="http://www.w3.org/2000/svg">
<rect width="96" height="97" fill="#F5F5F5"/>
<rect x="-838.5" y="-781.5" width="1479" height="2529" rx="4.5" stroke="#9747FF" stroke-dasharray="10 5"/>
<rect x="-819" y="-132" width="1440" height="599" fill="url(#paint0_linear_467_1705)"/>
<rect x="-818" y="-131" width="1438" height="597" stroke="white" stroke-width="2"/>
<path d="M14.5284 2.99554C14.7107 2.99292 14.893 2.99029 15.0808 2.98759C15.6934 2.97975 16.3058 2.97731 16.9185 2.97488C17.357 2.97049 17.7956 2.96581 18.2342 2.96086C19.4275 2.9486 20.6208 2.94146 21.8141 2.93599C22.5603 2.93255 23.3064 2.92836 24.0526 2.92399C26.1211 2.91213 28.1895 2.90205 30.258 2.89734C30.7947 2.8961 31.3313 2.89485 31.8679 2.89358C32.0013 2.89327 32.1346 2.89296 32.2721 2.89263C34.4283 2.88724 36.5843 2.86973 38.7404 2.84707C40.9576 2.82395 43.1746 2.81154 45.3918 2.80953C46.6354 2.80815 47.8785 2.80192 49.122 2.78437C50.2937 2.76811 51.4646 2.76543 52.6364 2.77282C53.0645 2.77325 53.4926 2.76892 53.9206 2.7593C55.9294 2.71672 57.5173 2.71772 59.0868 4.08924C59.68 4.66899 60.2259 5.27463 60.7501 5.91716C60.8957 6.09103 61.0413 6.2649 61.1913 6.44404C61.2985 6.57235 61.4056 6.70067 61.516 6.83287C62.3015 7.62361 63.1585 7.59095 64.2304 7.59645C64.4853 7.59045 64.7402 7.58439 64.9952 7.57829C65.2603 7.5778 65.5254 7.57807 65.7905 7.57908C66.4845 7.58016 67.1781 7.57299 67.8721 7.56336C68.9851 7.54876 70.098 7.54433 71.2111 7.54462C71.5989 7.54316 71.9863 7.53663 72.374 7.52957C72.727 7.52786 72.727 7.52786 73.0872 7.52611C73.3976 7.52182 73.3976 7.52182 73.7144 7.51744C74.4068 7.63018 74.5807 7.79518 75.0001 8.35466C75.0743 8.88132 75.1027 9.33482 75.0974 9.86138C75.0995 10.0909 75.0995 10.0909 75.1016 10.325C75.1054 10.8384 75.1039 11.3516 75.1024 11.865C75.104 12.2327 75.106 12.6004 75.1083 12.9681C75.1135 13.9672 75.1142 14.9661 75.114 15.9652C75.1145 17.009 75.1193 18.0527 75.1237 19.0965C75.1313 21.0733 75.1351 23.0501 75.1376 25.027C75.1405 27.2774 75.1478 29.5279 75.1553 31.7783C75.1708 36.4079 75.1809 41.0375 75.1876 45.6672C75.2725 45.516 75.3575 45.3648 75.4451 45.209C75.7651 44.641 76.086 44.0736 76.4075 43.5065C76.5457 43.2623 76.6835 43.018 76.8209 42.7734C79.14 38.6477 79.14 38.6477 81.0704 37.9328C82.7501 37.5852 84.1006 37.8235 85.5469 38.7414C86.6247 39.7589 87.0597 40.9975 87.129 42.4562C87.1768 44.5441 85.6256 46.5052 84.5743 48.2218C83.5907 49.8443 82.6241 51.4747 81.6797 53.1203C80.6608 54.8948 79.6334 56.6641 78.5977 58.4289C78.5342 58.5371 78.4707 58.6453 78.4053 58.7568C78.2183 59.0755 78.0312 59.3942 77.844 59.7128C77.7275 59.9156 77.6109 60.1184 77.4908 60.3273C77.2072 60.8121 76.9051 61.2751 76.583 61.7352C75.152 63.8457 74.9296 65.5343 74.9898 68.0419C74.991 68.3971 74.9913 68.7523 74.9906 69.1074C74.991 70.0317 75.0018 70.9556 75.0156 71.8797C75.0364 73.3668 75.0422 74.854 75.0455 76.3412C75.0484 76.8586 75.0566 77.3756 75.0655 77.8929C75.068 78.2086 75.0704 78.5242 75.0727 78.8399C75.0785 79.0545 75.0785 79.0545 75.0844 79.2734C75.0849 79.9118 75.046 80.2882 74.6786 80.819C74.1767 81.1536 73.9204 81.196 73.3215 81.1898C73.0457 81.1897 73.0457 81.1897 72.7643 81.1896C72.5672 81.1858 72.3701 81.1819 72.167 81.1779C71.9642 81.1768 71.7613 81.1758 71.5523 81.1747C70.9046 81.1705 70.2571 81.1611 69.6094 81.1515C69.1702 81.1478 68.731 81.1443 68.2918 81.1413C67.2153 81.133 66.139 81.1205 65.0626 81.1047C65.0082 81.2453 64.9539 81.3859 64.8979 81.5308C64.7256 81.9496 64.5437 82.331 64.3213 82.724C64.2175 82.9083 64.2175 82.9083 64.1116 83.0962C64.0387 83.2241 63.9658 83.3519 63.8907 83.4836C63.8156 83.6161 63.7405 83.7486 63.6632 83.8852C63.083 84.9056 62.4863 85.9151 61.8751 86.9172C61.8045 87.0627 61.7339 87.2082 61.6612 87.3581C61.1429 88.0963 60.4594 88.5708 59.7422 89.1086C59.5919 89.2233 59.4415 89.3381 59.2865 89.4564C58.9819 89.6888 58.6767 89.9205 58.3711 90.1516C57.8704 90.5304 57.3726 90.9128 56.8755 91.2962C56.5861 91.5192 56.2962 91.7414 56.0062 91.9635C55.6689 92.2242 55.3393 92.4949 55.0181 92.7751C54.401 93.2215 54.0061 93.2153 53.2676 93.1735C52.8751 93.1047 52.8751 93.1047 52.3946 92.8468C51.5859 91.3701 52.3011 88.9343 52.5439 87.3273C52.6169 86.8374 52.6841 86.3469 52.7513 85.8562C52.7985 85.5382 52.8461 85.2202 52.8941 84.9023C52.9129 84.7588 52.9317 84.6154 52.9511 84.4676C53.0949 83.5692 53.3806 82.8766 53.827 82.0812C53.9805 81.8059 53.9805 81.8059 54.1371 81.525C54.2156 81.3863 54.2941 81.2476 54.3751 81.1047C54.1767 81.1053 53.9783 81.106 53.7739 81.1068C48.9512 81.1234 44.1285 81.1357 39.3057 81.1435C36.9735 81.1474 34.6412 81.1527 32.309 81.1612C30.2767 81.1687 28.2444 81.1735 26.212 81.1752C25.1355 81.1762 24.059 81.1785 22.9825 81.184C21.9699 81.189 20.9573 81.1906 19.9446 81.1895C19.5725 81.1897 19.2003 81.1912 18.8281 81.1941C18.3209 81.1978 17.8138 81.1969 17.3066 81.1948C17.1585 81.197 17.0104 81.1992 16.8578 81.2015C16.1974 81.1942 15.8213 81.1573 15.2831 80.7595C14.8915 80.1993 14.9145 79.8119 14.9268 79.133C14.9292 78.8985 14.9316 78.6641 14.9341 78.4225C14.9404 78.1784 14.9467 77.9343 14.9532 77.6828C14.9566 77.4358 14.9599 77.1887 14.9634 76.9342C14.9723 76.3242 14.9846 75.7145 15.0001 75.1047C14.8463 75.1134 14.6926 75.1221 14.5342 75.131C14.3322 75.1378 14.1301 75.1446 13.9219 75.1515C13.7218 75.1602 13.5217 75.1689 13.3155 75.1779C12.6077 75.0862 12.4393 74.9056 12.0001 74.3547C11.9099 73.8872 11.9099 73.8872 11.9149 73.3573C11.915 73.0589 11.915 73.0589 11.9151 72.7545C11.9209 72.4343 11.9209 72.4343 11.9268 72.1076C11.9279 71.8881 11.9289 71.6686 11.93 71.4424C11.9342 70.7412 11.9436 70.0402 11.9532 69.339C11.9569 68.8637 11.9604 68.3884 11.9634 67.913C11.9717 66.7477 11.9843 65.5824 12.0001 64.4172C11.8235 64.3906 11.6469 64.364 11.465 64.3366C10.2564 64.1175 9.30648 63.3262 8.55474 62.3781C7.41651 60.6897 7.32447 59.0835 7.50006 57.1047C7.89851 55.369 8.85176 54.209 10.336 53.2726C10.9901 52.8824 11.2118 52.7922 12.0001 52.7922C12.0001 52.1734 12.0001 51.5547 12.0001 50.9172C11.8492 50.9094 11.6984 50.9017 11.543 50.8937C10.1437 50.55 9.08872 49.6702 8.29107 48.487C7.30476 46.8368 7.20195 44.9032 7.6297 43.04C8.24985 41.3456 9.28233 40.4012 10.8062 39.4921C11.2501 39.2922 11.2501 39.2922 12.0001 39.2922C12.0001 38.1784 12.0001 37.0647 12.0001 35.9172C11.6288 35.8553 11.2576 35.7934 10.8751 35.7297C9.36468 35.0022 8.48608 33.8952 7.71099 32.4484C7.16963 30.8081 7.2701 28.67 8.01568 27.1244C8.80435 25.796 9.83233 24.9308 11.2501 24.2922C11.4976 24.2922 11.7451 24.2922 12.0001 24.2922C12.0001 23.1784 12.0001 22.0647 12.0001 20.9172C11.6288 20.8553 11.2576 20.7934 10.8751 20.7297C9.36468 20.0022 8.48608 18.8952 7.71099 17.4484C7.16963 15.8081 7.2701 13.67 8.01568 12.1244C8.80435 10.796 9.83233 9.93084 11.2501 9.29216C11.4976 9.29216 11.7451 9.29216 12.0001 9.29216C11.9961 9.13137 11.9922 8.97058 11.9882 8.80491C11.9754 8.20669 11.966 7.60853 11.9589 7.01021C11.9551 6.75158 11.95 6.49296 11.9435 6.23439C11.9344 5.86211 11.9305 5.48972 11.9268 5.11735C11.9229 4.89348 11.919 4.66961 11.9149 4.43895C12.0001 3.85466 12.0001 3.85466 12.2692 3.44996C12.9939 2.92953 13.6561 2.99418 14.5284 2.99554ZM15.0001 6.10466C15.0001 9.87903 15.0001 13.6534 15.0001 17.5422C15.8848 16.8706 15.8848 16.8706 16.3477 16.0187C16.5585 15.5432 16.6881 15.2916 17.0626 14.9172C18.4321 14.8302 18.4321 14.8302 19.1251 15.2922C19.4387 16.3168 19.2526 16.9589 18.7925 17.8791C17.8479 19.5759 16.8575 20.298 15.0001 20.9172C15.0001 24.7534 15.0001 28.5897 15.0001 32.5422C15.8848 31.8706 15.8848 31.8706 16.3477 31.0187C16.5585 30.5432 16.6881 30.2916 17.0626 29.9172C18.4321 29.8302 18.4321 29.8302 19.1251 30.2922C19.4387 31.3168 19.2526 31.9589 18.7925 32.8791C17.8479 34.5759 16.8575 35.298 15.0001 35.9172C15.0001 39.7534 15.0001 43.5897 15.0001 47.5422C15.8848 46.8706 15.8848 46.8706 16.3477 46.0187C16.5585 45.5432 16.6881 45.2916 17.0626 44.9172C18.4321 44.8302 18.4321 44.8302 19.1251 45.2922C19.4387 46.3168 19.2526 46.9589 18.7925 47.8791C17.8479 49.5759 16.8575 50.298 15.0001 50.9172C15.0001 54.2584 15.0001 57.5997 15.0001 61.0422C15.8848 60.3706 15.8848 60.3706 16.3477 59.5187C16.5585 59.0432 16.6881 58.7916 17.0626 58.4172C18.4321 58.3302 18.4321 58.3302 19.1251 58.7922C19.4387 59.8168 19.2526 60.4589 18.7925 61.3791C17.8479 63.0759 16.8575 63.798 15.0001 64.4172C15.0001 66.954 15.0001 69.4909 15.0001 72.1047C20.6672 72.198 26.3343 72.2718 32.0021 72.3153C32.6721 72.3204 33.3421 72.3258 34.0121 72.3312C34.1455 72.3323 34.2789 72.3334 34.4163 72.3345C36.5725 72.3524 38.7282 72.385 40.8842 72.4229C43.0985 72.4616 45.3125 72.4844 47.5272 72.4928C48.7704 72.4979 50.0128 72.5107 51.2557 72.5408C52.4271 72.5689 53.5971 72.5774 54.7687 72.5712C55.1974 72.5723 55.6262 72.5805 56.0546 72.5964C57.9922 72.6767 57.9922 72.6767 59.8126 72.1047C60.8417 71.0892 61.4386 69.7911 62.0183 68.4848C62.349 67.764 62.7516 67.0955 63.1656 66.4203C63.3008 66.1905 63.4357 65.9604 63.5699 65.73C63.6664 65.5651 63.6664 65.5651 63.7649 65.3968C63.8296 65.2862 63.8943 65.1756 63.961 65.0617C64.1662 64.7112 64.3713 64.3607 64.5766 64.0102C64.7577 63.7009 64.9387 63.3916 65.1198 63.0823C65.4376 62.5421 65.4376 62.5421 65.7344 62.1535C66.1175 61.3621 66.076 60.6519 66.0677 59.7835C66.0682 59.599 66.0687 59.4144 66.0692 59.2243C66.0701 58.6053 66.067 57.9864 66.0639 57.3674C66.0638 56.9239 66.0638 56.4804 66.0642 56.0369C66.0643 54.8322 66.061 53.6275 66.0571 52.4228C66.0537 51.2916 66.0534 50.1604 66.0528 49.0291C66.0516 46.7887 66.0478 44.5483 66.0425 42.3079C66.0373 40.1316 66.0333 37.9554 66.031 35.7792C66.0308 35.6451 66.0307 35.5109 66.0305 35.3727C66.0298 34.6996 66.0291 34.0265 66.0284 33.3534C66.0225 27.7705 66.0126 22.1876 66.0001 16.6047C65.8792 16.6036 65.7583 16.6025 65.6337 16.6013C64.3775 16.5894 63.1214 16.5735 61.8653 16.5554C61.3963 16.5492 60.9272 16.544 60.4581 16.5397C59.7846 16.5334 59.1113 16.5236 58.4378 16.5131C58.2274 16.5119 58.0171 16.5107 57.8003 16.5095C57.6052 16.5058 57.41 16.5021 57.2089 16.4982C57.037 16.4961 56.865 16.4941 56.6879 16.4919C56.2501 16.4172 56.2501 16.4172 55.6876 15.8547C55.6257 12.6372 55.5638 9.41966 55.5001 6.10466C42.1351 6.10466 28.7701 6.10466 15.0001 6.10466ZM58.5001 8.54216C58.5001 10.2128 58.5001 11.8834 58.5001 13.6047C60.1707 13.6047 61.8413 13.6047 63.5626 13.6047C62.8865 12.8159 62.242 12.0727 61.514 11.3437C61.3493 11.1787 61.1845 11.0138 61.0148 10.8438C60.8462 10.6759 60.6777 10.5081 60.504 10.3351C60.3317 10.1622 60.1595 9.98926 59.9821 9.81108C59.8186 9.64781 59.6551 9.48454 59.4866 9.31633C59.3377 9.16758 59.1887 9.01883 59.0352 8.86557C58.7438 8.52087 58.7438 8.52087 58.5001 8.54216ZM65.4376 10.6047C66.2453 11.547 67.0455 12.4161 67.9304 13.2776C68.8045 14.1372 68.8045 14.1372 68.8386 15.0538C68.8407 15.3649 68.8419 15.676 68.8422 15.9871C68.8436 16.2437 68.8436 16.2437 68.845 16.5055C68.8479 17.0822 68.8495 17.6588 68.8511 18.2355C68.8528 18.6475 68.8547 19.0595 68.8567 19.4715C68.8618 20.5929 68.8657 21.7144 68.8694 22.8358C68.8735 24.0067 68.8787 25.1776 68.8837 26.3485C68.892 28.3147 68.8996 30.2809 68.9068 32.2472C68.9142 34.2726 68.922 36.2981 68.9302 38.3235C68.9308 38.4483 68.9313 38.5731 68.9318 38.7017C68.9344 39.3277 68.9369 39.9538 68.9395 40.5798C68.9609 45.7756 68.9809 50.9714 69.0001 56.1672C71.3814 53.3483 72.3381 50.7603 72.2555 47.1102C72.2549 46.7087 72.2552 46.3073 72.2565 45.9059C72.2571 44.8293 72.244 43.7533 72.2282 42.6769C72.214 41.5471 72.2128 40.4173 72.2101 39.2875C72.2032 37.1539 72.1848 35.0205 72.1621 32.8871C72.1368 30.4557 72.1245 28.0243 72.1133 25.5928C72.0898 20.5966 72.0499 15.6007 72.0001 10.6047C69.8344 10.6047 67.6688 10.6047 65.4376 10.6047ZM11.8126 12.6672C10.9273 13.6852 10.6215 14.196 10.6334 15.5646C10.7115 16.2534 10.9869 16.6521 11.4376 17.1672C11.6232 17.2909 11.8088 17.4147 12.0001 17.5422C12.0001 15.9334 12.0001 14.3247 12.0001 12.6672C11.9382 12.6672 11.8763 12.6672 11.8126 12.6672ZM11.8126 27.6672C10.9273 28.6852 10.6215 29.196 10.6334 30.5646C10.7115 31.2534 10.9869 31.6521 11.4376 32.1672C11.6232 32.2909 11.8088 32.4147 12.0001 32.5422C12.0001 30.9334 12.0001 29.3247 12.0001 27.6672C11.9382 27.6672 11.8763 27.6672 11.8126 27.6672ZM81.1876 41.7297C80.7477 42.3341 80.7477 42.3341 80.6251 43.0422C80.9911 43.2829 81.3682 43.507 81.7501 43.7218C81.9589 43.8403 82.1677 43.9587 82.3829 44.0807C82.5453 44.1711 82.7077 44.2615 82.8751 44.3547C83.6065 43.4832 83.6065 43.4832 83.8829 42.4093C83.8791 41.7102 83.8791 41.7102 83.3907 41.2726C82.4162 40.719 81.937 41.0186 81.1876 41.7297ZM11.8126 42.6672C10.9273 43.6852 10.6215 44.196 10.6334 45.5646C10.7115 46.2534 10.9869 46.6521 11.4376 47.1672C11.6232 47.2909 11.8088 47.4147 12.0001 47.5422C12.0001 45.9334 12.0001 44.3247 12.0001 42.6672C11.9382 42.6672 11.8763 42.6672 11.8126 42.6672ZM78.9376 45.6672C78.7519 46.0384 78.5663 46.4097 78.3751 46.7922C78.6397 46.9771 78.9056 47.1604 79.1719 47.3429C79.3198 47.4452 79.4678 47.5474 79.6202 47.6528C80.03 47.8977 80.3467 48.0202 80.8126 48.1047C80.9982 47.7334 81.1838 47.3622 81.3751 46.9797C80.5707 46.5465 79.7663 46.1134 78.9376 45.6672ZM76.6876 49.6047C75.6676 51.2474 74.6738 52.9032 73.6993 54.5734C73.5609 54.8101 73.4224 55.0468 73.284 55.2835C72.9978 55.7728 72.7117 56.2622 72.4257 56.7516C71.8194 57.7889 71.2116 58.8252 70.6038 59.8616C70.2723 60.4269 69.9409 60.9924 69.6094 61.5578C69.4766 61.7843 69.3438 62.0109 69.211 62.2375C69.1453 62.3496 69.0795 62.4618 69.0118 62.5773C68.8126 62.9172 68.6133 63.257 68.4141 63.5968C68.3484 63.709 68.2826 63.8211 68.2149 63.9367C68.0821 64.1633 67.9492 64.3899 67.8164 64.6165C67.4848 65.1822 67.1532 65.7478 66.8216 66.3135C66.2188 67.3418 65.616 68.3701 65.013 69.3982C63.5973 71.8117 62.1817 74.2252 60.774 76.6434C60.2074 77.6167 59.6384 78.5885 59.0662 79.5585C58.883 79.87 58.883 79.87 58.6961 80.1878C58.4605 80.5884 58.2242 80.9886 57.9872 81.3883C57.8824 81.5669 57.7775 81.7454 57.6695 81.9294C57.5762 82.0873 57.483 82.2452 57.3869 82.4079C57.1588 82.7755 57.1588 82.7755 57.1876 83.1672C57.5819 83.4743 57.5819 83.4743 58.0782 83.7648C58.2435 83.868 58.4088 83.9712 58.5792 84.0776C59.0343 84.3156 59.0343 84.3156 59.4551 84.3061C60.0185 83.9886 60.2299 83.466 60.5157 82.9093C60.6639 82.6336 60.8129 82.3582 60.9625 82.0832C61.0464 81.9285 61.1303 81.7738 61.2168 81.6144C61.7655 80.6269 62.3505 79.6604 62.9297 78.6906C63.9469 76.9832 64.9512 75.2692 65.9415 73.5461C66.8852 71.9044 67.8385 70.269 68.8041 68.6401C69.6393 67.231 70.469 65.8188 71.2969 64.4054C71.4325 64.1741 71.5681 63.9427 71.7037 63.7113C72.3171 62.6642 72.9304 61.617 73.5434 60.5696C75.3937 57.4085 77.2543 54.2537 79.1251 51.1047C78.5598 50.6446 78.0384 50.2457 77.379 49.9328C77.1485 49.8234 76.918 49.714 76.6876 49.6047ZM11.8126 56.1672C10.9273 57.1852 10.6215 57.696 10.6334 59.0646C10.7115 59.7534 10.9869 60.1521 11.4376 60.6672C11.6232 60.7909 11.8088 60.9147 12.0001 61.0422C12.0001 59.4334 12.0001 57.8247 12.0001 56.1672C11.9382 56.1672 11.8763 56.1672 11.8126 56.1672ZM71.8126 69.6672C71.586 70.0258 71.3693 70.3908 71.1563 70.7577C71.0903 70.871 71.0243 70.9842 70.9563 71.1009C70.7411 71.4703 70.5268 71.8402 70.3126 72.2101C70.0221 72.7096 69.7311 73.2087 69.4402 73.7079C69.3691 73.8301 69.298 73.9523 69.2247 74.0782C68.5607 75.2182 67.8812 76.3483 67.1946 77.4748C66.9219 77.8589 66.9219 77.8589 66.9376 78.1047C68.6082 78.1047 70.2788 78.1047 72.0001 78.1047C72.0001 75.3203 72.0001 72.5359 72.0001 69.6672C71.9382 69.6672 71.8763 69.6672 71.8126 69.6672ZM18.0001 75.1047C18.0001 76.0947 18.0001 77.0847 18.0001 78.1047C22.9613 78.1611 27.9224 78.2046 32.8839 78.2309C35.1876 78.2435 37.4911 78.2606 39.7947 78.2885C41.8026 78.3128 43.8104 78.3286 45.8184 78.334C46.8817 78.3372 47.9446 78.3446 49.0077 78.3624C50.0088 78.3789 51.0093 78.384 52.0105 78.3804C52.3776 78.381 52.7447 78.3859 53.1116 78.3952C54.9281 78.5142 54.9281 78.5142 56.5474 77.8612C57.2407 77.053 57.6036 76.1066 57.9376 75.1047C44.7582 75.1047 31.5788 75.1047 18.0001 75.1047ZM56.0626 86.1672C56.0007 86.724 55.9388 87.2809 55.8751 87.8547C56.3082 87.5453 56.7413 87.2359 57.1876 86.9172C56.6794 86.4159 56.6794 86.4159 56.0626 86.1672Z" fill="white"/>
<path d="M26.1449 46.5094C26.3564 46.5077 26.3564 46.5077 26.5722 46.5059C27.0449 46.5029 27.5175 46.5053 27.9902 46.5076C28.329 46.5066 28.6678 46.5053 29.0066 46.5036C29.9271 46.5002 30.8474 46.5015 31.7679 46.5039C32.7305 46.5058 33.6931 46.5041 34.6556 46.5029C36.2722 46.5015 37.8888 46.5033 39.5054 46.5069C41.3752 46.511 43.245 46.5096 45.1149 46.5055C46.7194 46.5021 48.3238 46.5016 49.9283 46.5036C50.887 46.5048 51.8457 46.5049 52.8044 46.5024C53.7056 46.5003 54.6068 46.5018 55.508 46.5061C55.8391 46.5071 56.1702 46.5068 56.5012 46.5052C56.9526 46.5031 57.4037 46.5057 57.8551 46.5094C57.9866 46.5078 58.1182 46.5061 58.2537 46.5044C58.887 46.5146 59.201 46.5663 59.706 46.9622C60.0251 47.3882 60.102 47.5794 60.0938 48.1047C60.0966 48.2903 60.0966 48.2903 60.0996 48.4797C59.9507 49.0402 59.7052 49.2478 59.25 49.6047C58.7587 49.6784 58.346 49.7061 57.8551 49.6999C57.6436 49.7017 57.6436 49.7017 57.4278 49.7035C56.9551 49.7064 56.4825 49.7041 56.0098 49.7017C55.671 49.7027 55.3322 49.7041 54.9934 49.7057C54.0729 49.7091 53.1526 49.7078 52.2321 49.7054C51.2695 49.7035 50.3069 49.7053 49.3444 49.7065C47.7278 49.7078 46.1112 49.706 44.4946 49.7024C42.6248 49.6984 40.755 49.6997 38.8851 49.7038C37.2806 49.7072 35.6762 49.7077 34.0717 49.7057C33.113 49.7046 32.1543 49.7044 31.1956 49.7069C30.2944 49.7091 29.3932 49.7076 28.492 49.7032C28.1609 49.7022 27.8298 49.7025 27.4988 49.7042C27.0474 49.7062 26.5963 49.7037 26.1449 49.6999C25.9476 49.7024 25.9476 49.7024 25.7463 49.705C25.113 49.6948 24.799 49.6431 24.294 49.2472C23.9749 48.8212 23.898 48.63 23.9062 48.1047C23.9033 47.919 23.9033 47.919 23.9004 47.7297C24.2062 46.5782 25.1095 46.4963 26.1449 46.5094Z" fill="white"/>
<path d="M26.1449 37.5094C26.3564 37.5077 26.3564 37.5077 26.5722 37.5059C27.0449 37.5029 27.5175 37.5053 27.9902 37.5076C28.329 37.5066 28.6678 37.5053 29.0066 37.5036C29.9271 37.5002 30.8474 37.5015 31.7679 37.5039C32.7305 37.5058 33.6931 37.5041 34.6556 37.5029C36.2722 37.5015 37.8888 37.5033 39.5054 37.5069C41.3752 37.511 43.245 37.5096 45.1149 37.5055C46.7194 37.5021 48.3238 37.5016 49.9283 37.5036C50.887 37.5048 51.8457 37.5049 52.8044 37.5024C53.7056 37.5003 54.6068 37.5018 55.508 37.5061C55.8391 37.5071 56.1702 37.5068 56.5012 37.5052C56.9526 37.5031 57.4037 37.5057 57.8551 37.5094C57.9866 37.5078 58.1182 37.5061 58.2537 37.5044C58.887 37.5146 59.201 37.5663 59.706 37.9622C60.0251 38.3882 60.102 38.5794 60.0938 39.1047C60.0966 39.2903 60.0966 39.2903 60.0996 39.4797C59.9507 40.0402 59.7052 40.2478 59.25 40.6047C58.7587 40.6784 58.346 40.7061 57.8551 40.6999C57.6436 40.7017 57.6436 40.7017 57.4278 40.7035C56.9551 40.7064 56.4825 40.7041 56.0098 40.7017C55.671 40.7027 55.3322 40.7041 54.9934 40.7057C54.0729 40.7091 53.1526 40.7078 52.2321 40.7054C51.2695 40.7035 50.3069 40.7053 49.3444 40.7065C47.7278 40.7078 46.1112 40.706 44.4946 40.7024C42.6248 40.6984 40.755 40.6997 38.8851 40.7038C37.2806 40.7072 35.6762 40.7077 34.0717 40.7057C33.113 40.7046 32.1543 40.7044 31.1956 40.7069C30.2944 40.7091 29.3932 40.7076 28.492 40.7032C28.1609 40.7022 27.8298 40.7025 27.4988 40.7042C27.0474 40.7062 26.5963 40.7037 26.1449 40.6999C25.9476 40.7024 25.9476 40.7024 25.7463 40.705C25.113 40.6948 24.799 40.6431 24.294 40.2472C23.9749 39.8212 23.898 39.63 23.9062 39.1047C23.9033 38.919 23.9033 38.919 23.9004 38.7297C24.2062 37.5782 25.1095 37.4963 26.1449 37.5094Z" fill="white"/>
<path d="M26.1449 28.5094C26.3564 28.5077 26.3564 28.5077 26.5722 28.5059C27.0449 28.5029 27.5175 28.5053 27.9902 28.5076C28.329 28.5066 28.6678 28.5053 29.0066 28.5036C29.9271 28.5002 30.8474 28.5015 31.7679 28.5039C32.7305 28.5058 33.6931 28.5041 34.6556 28.5029C36.2722 28.5015 37.8888 28.5033 39.5054 28.5069C41.3752 28.511 43.245 28.5096 45.1149 28.5055C46.7194 28.5021 48.3238 28.5016 49.9283 28.5036C50.887 28.5048 51.8457 28.5049 52.8044 28.5024C53.7056 28.5003 54.6068 28.5018 55.508 28.5061C55.8391 28.5071 56.1702 28.5068 56.5012 28.5052C56.9526 28.5031 57.4037 28.5057 57.8551 28.5094C57.9866 28.5078 58.1182 28.5061 58.2537 28.5044C58.887 28.5146 59.201 28.5663 59.706 28.9622C60.0251 29.3882 60.102 29.5794 60.0938 30.1047C60.0966 30.2903 60.0966 30.2903 60.0996 30.4797C59.9507 31.0402 59.7052 31.2478 59.25 31.6047C58.7587 31.6784 58.346 31.7061 57.8551 31.6999C57.6436 31.7017 57.6436 31.7017 57.4278 31.7035C56.9551 31.7064 56.4825 31.7041 56.0098 31.7017C55.671 31.7027 55.3322 31.7041 54.9934 31.7057C54.0729 31.7091 53.1526 31.7078 52.2321 31.7054C51.2695 31.7035 50.3069 31.7053 49.3444 31.7065C47.7278 31.7078 46.1112 31.706 44.4946 31.7024C42.6248 31.6984 40.755 31.6997 38.8851 31.7038C37.2806 31.7072 35.6762 31.7077 34.0717 31.7057C33.113 31.7046 32.1543 31.7044 31.1956 31.7069C30.2944 31.7091 29.3932 31.7076 28.492 31.7032C28.1609 31.7022 27.8298 31.7025 27.4988 31.7042C27.0474 31.7062 26.5963 31.7037 26.1449 31.6999C25.9476 31.7024 25.9476 31.7024 25.7463 31.705C25.113 31.6948 24.799 31.6431 24.294 31.2472C23.9749 30.8212 23.898 30.63 23.9062 30.1047C23.9033 29.919 23.9033 29.919 23.9004 29.7297C24.2062 28.5782 25.1095 28.4963 26.1449 28.5094Z" fill="white"/>
<path d="M26.1449 19.5094C26.3564 19.5077 26.3564 19.5077 26.5722 19.5059C27.0449 19.5029 27.5175 19.5053 27.9902 19.5076C28.329 19.5066 28.6678 19.5053 29.0066 19.5036C29.9271 19.5002 30.8474 19.5015 31.7679 19.5039C32.7305 19.5058 33.6931 19.5041 34.6556 19.5029C36.2722 19.5015 37.8888 19.5033 39.5054 19.5069C41.3752 19.511 43.245 19.5096 45.1149 19.5055C46.7194 19.5021 48.3238 19.5016 49.9283 19.5036C50.887 19.5048 51.8457 19.5049 52.8044 19.5024C53.7056 19.5003 54.6068 19.5018 55.508 19.5061C55.8391 19.5071 56.1702 19.5068 56.5012 19.5052C56.9526 19.5031 57.4037 19.5057 57.8551 19.5094C57.9866 19.5078 58.1182 19.5061 58.2537 19.5044C58.887 19.5146 59.201 19.5663 59.706 19.9622C60.0251 20.3882 60.102 20.5794 60.0938 21.1047C60.0966 21.2903 60.0966 21.2903 60.0996 21.4797C59.9507 22.0402 59.7052 22.2478 59.25 22.6047C58.7587 22.6784 58.346 22.7061 57.8551 22.6999C57.6436 22.7017 57.6436 22.7017 57.4278 22.7035C56.9551 22.7064 56.4825 22.7041 56.0098 22.7017C55.671 22.7027 55.3322 22.7041 54.9934 22.7057C54.0729 22.7091 53.1526 22.7078 52.2321 22.7054C51.2695 22.7035 50.3069 22.7053 49.3444 22.7065C47.7278 22.7078 46.1112 22.706 44.4946 22.7024C42.6248 22.6984 40.755 22.6997 38.8851 22.7038C37.2806 22.7072 35.6762 22.7077 34.0717 22.7057C33.113 22.7046 32.1543 22.7044 31.1956 22.7069C30.2944 22.7091 29.3932 22.7076 28.492 22.7032C28.1609 22.7022 27.8298 22.7025 27.4988 22.7042C27.0474 22.7062 26.5963 22.7037 26.1449 22.6999C25.9476 22.7024 25.9476 22.7024 25.7463 22.705C25.113 22.6948 24.799 22.6431 24.294 22.2472C23.9749 21.8212 23.898 21.63 23.9062 21.1047C23.9033 20.919 23.9033 20.919 23.9004 20.7297C24.2062 19.5782 25.1095 19.4963 26.1449 19.5094Z" fill="white"/>
<path d="M26.0625 55.5077C26.1931 55.5064 26.3237 55.5051 26.4582 55.5037C26.8889 55.5004 27.3193 55.5026 27.75 55.5052C28.0498 55.5047 28.3496 55.5039 28.6494 55.503C29.2774 55.5019 29.9053 55.5035 30.5332 55.507C31.3378 55.5113 32.1422 55.5088 32.9467 55.5043C33.5657 55.5016 34.1846 55.5025 34.8036 55.5044C35.1002 55.5049 35.3969 55.5043 35.6935 55.5026C36.1083 55.5006 36.5227 55.5036 36.9375 55.5077C37.2913 55.5086 37.2913 55.5086 37.6523 55.5095C38.3541 55.6214 38.5747 55.797 39 56.3548C39.0996 56.7298 39.0996 56.7298 39.0938 57.1048C39.0967 57.2904 39.0967 57.2904 39.0996 57.4798C38.9516 58.0371 38.6999 58.2479 38.25 58.6048C37.6523 58.7 37.6523 58.7 36.9375 58.7018C36.8069 58.7031 36.6763 58.7044 36.5418 58.7058C36.1111 58.7091 35.6807 58.7069 35.25 58.7044C34.9502 58.7049 34.6504 58.7056 34.3506 58.7066C33.7226 58.7077 33.0947 58.7061 32.4668 58.7026C31.6622 58.6983 30.8578 58.7007 30.0533 58.7052C29.4343 58.7079 28.8154 58.7071 28.1964 58.7051C27.8998 58.7046 27.6031 58.7052 27.3065 58.707C26.8917 58.7089 26.4773 58.706 26.0625 58.7018C25.8266 58.7012 25.5907 58.7006 25.3477 58.7C24.6459 58.5882 24.4253 58.4126 24 57.8548C23.9004 57.4798 23.9004 57.4798 23.9062 57.1048C23.9033 56.9191 23.9033 56.9191 23.9004 56.7298C24.1988 55.6065 25.0322 55.5103 26.0625 55.5077Z" fill="white"/>
<defs>
<linearGradient id="paint0_linear_467_1705" x1="-819" y1="167.5" x2="621" y2="167.5" gradientUnits="userSpaceOnUse">
<stop stop-color="#001AAF"/>
<stop offset="1" stop-color="#871EB6"/>
</linearGradient>
</defs>
</svg>
