<svg width="92" height="91" viewBox="0 0 92 91" fill="none" xmlns="http://www.w3.org/2000/svg">
<path d="M10.022 0.509648C10.3456 0.508782 10.6692 0.50759 10.9927 0.506102C11.8777 0.502982 12.7626 0.504514 13.6476 0.506842C14.6037 0.508543 15.5597 0.505918 16.5157 0.503857C18.387 0.500525 20.2582 0.501241 22.1294 0.503416C23.6505 0.505111 25.1715 0.505339 26.6925 0.504523C26.9092 0.504409 27.1258 0.504294 27.349 0.504175C27.7892 0.503935 28.2293 0.503692 28.6694 0.503446C32.7947 0.501308 36.92 0.503765 41.0452 0.507796C44.5834 0.511147 48.1215 0.510565 51.6597 0.507107C55.7704 0.503092 59.8811 0.501514 63.9918 0.503816C64.4303 0.504055 64.8688 0.504291 65.3073 0.504523C65.6309 0.504697 65.6309 0.504697 65.961 0.504874C67.4799 0.505521 68.9988 0.50443 70.5176 0.502664C72.3691 0.500558 74.2206 0.501134 76.0721 0.505124C77.0164 0.507093 77.9607 0.507872 78.905 0.505388C79.7701 0.503146 80.6352 0.504392 81.5003 0.508371C81.8126 0.509206 82.1248 0.508789 82.4371 0.506964C84.9866 0.493212 87.0285 0.845098 88.9374 2.66739C90.5791 4.3871 91.1155 6.26398 91.0951 8.60192C91.0969 8.91707 91.0969 8.91707 91.0987 9.23859C91.1017 9.93739 91.0993 10.6361 91.0969 11.3349C91.098 11.838 91.0993 12.3411 91.1009 12.8442C91.1043 14.0657 91.1035 15.2872 91.1014 16.5087C91.0997 17.502 91.0994 18.4953 91.1003 19.4886C91.1004 19.6303 91.1005 19.772 91.1006 19.918C91.1009 20.206 91.1011 20.4939 91.1013 20.7818C91.1035 23.4779 91.101 26.1738 91.097 28.8699C91.0936 31.18 91.0942 33.4902 91.0977 35.8003C91.1017 38.4871 91.1033 41.1739 91.101 43.8606C91.1007 44.1475 91.1005 44.4343 91.1003 44.7212C91.1001 44.9328 91.1001 44.9328 91.0999 45.1488C91.0993 46.1401 91.1004 47.1315 91.1021 48.1229C91.1042 49.3321 91.1036 50.5413 91.0997 51.7505C91.0977 52.3667 91.0973 52.9829 91.0994 53.5991C91.1015 54.2688 91.0989 54.9382 91.0951 55.6078C91.0977 55.8966 91.0976 55.8966 91.1002 56.1911C91.0776 58.2964 90.3937 60.0168 88.9374 61.5424C86.6819 63.6956 84.281 63.711 81.3356 63.6781C80.9644 63.6767 80.5932 63.6757 80.222 63.6749C79.2513 63.6721 78.2807 63.6647 77.3101 63.6564C76.3171 63.6487 75.3241 63.6453 74.3311 63.6415C72.3873 63.6335 70.4436 63.6207 68.4999 63.6049C68.5048 63.7427 68.5097 63.8806 68.5148 64.0226C68.5345 64.6568 68.5465 65.2909 68.5585 65.9252C68.5664 66.142 68.5742 66.3588 68.5823 66.5822C68.6114 68.6411 67.9426 69.9343 66.6835 71.5033C65.6865 72.8264 65.5643 74.1743 65.4999 75.7924C65.6408 75.8441 65.7817 75.8958 65.9269 75.9491C66.3933 76.1485 66.7183 76.338 67.1054 76.6596C67.21 76.7432 67.3147 76.8268 67.4225 76.913C68.4389 78.0908 68.6126 79.2568 68.5995 80.7729C68.6002 80.9586 68.6009 81.1444 68.6017 81.3358C68.6022 81.7266 68.6008 82.1174 68.5977 82.5081C68.5937 83.1032 68.5977 83.6978 68.6024 84.2929C68.6019 84.6742 68.601 85.0556 68.5995 85.4369C68.601 85.6131 68.6026 85.7893 68.6041 85.9709C68.5852 87.3161 68.2759 88.3172 67.3815 89.3378C67.2594 89.4388 67.1374 89.5399 67.0116 89.6439C66.89 89.7479 66.7685 89.8518 66.6432 89.9589C65.5798 90.6916 64.587 90.6605 63.3365 90.6594C63.1376 90.6606 62.9387 90.6619 62.7337 90.6632C62.0764 90.6667 61.4192 90.6675 60.7619 90.6679C60.3044 90.6691 59.8469 90.6703 59.3894 90.6716C58.4303 90.6739 57.4712 90.6746 56.5121 90.6744C55.2846 90.6743 54.0571 90.6794 52.8295 90.6859C51.8845 90.6901 50.9395 90.6908 49.9945 90.6906C49.542 90.6911 49.0895 90.6927 48.637 90.6956C48.0033 90.6993 47.3698 90.6982 46.7361 90.696C46.5501 90.6981 46.3641 90.7002 46.1725 90.7024C44.8065 90.69 43.8039 90.3951 42.767 89.4865C42.666 89.3644 42.5649 89.2424 42.4608 89.1166C42.3569 88.995 42.253 88.8735 42.1459 88.7482C41.4248 87.7016 41.4398 86.7233 41.4369 85.4918C41.435 85.212 41.435 85.212 41.4331 84.9265C41.4312 84.5324 41.4304 84.1382 41.4304 83.7441C41.4296 83.1441 41.4228 82.5443 41.4157 81.9444C41.4146 81.5604 41.4138 81.1765 41.4135 80.7926C41.4108 80.6146 41.4081 80.4367 41.4053 80.2533C41.4146 78.8931 41.7199 77.8959 42.6249 76.8654C42.7487 76.7627 42.8724 76.6599 42.9999 76.5541C43.1237 76.448 43.2474 76.3419 43.3749 76.2326C43.7563 75.9756 44.0502 75.8717 44.4999 75.7924C44.4719 75.3534 44.4356 74.9177 44.3944 74.4799C44.3749 74.2362 44.3553 73.9926 44.3351 73.7416C44.2142 73.0971 43.9843 72.7695 43.5368 72.2954C43.0466 71.7557 42.606 71.2096 42.1879 70.6123C40.0652 67.6122 37.3752 64.1294 33.5651 63.3776C29.8034 62.7427 25.8688 63.0092 22.0779 63.1976C20.2802 63.2856 18.4819 63.3245 16.6825 63.3621C16.0474 63.3754 15.4123 63.389 14.7771 63.403C14.6233 63.4064 14.4694 63.4098 14.3108 63.4132C13.4063 63.4343 12.5026 63.4641 11.5987 63.5028C11.0384 63.5267 10.478 63.5479 9.91755 63.569C9.53836 63.5846 9.15935 63.6046 8.78037 63.6247C6.69296 63.7019 5.06358 63.2719 3.44986 61.9123C1.95924 60.4893 1.00796 58.8351 0.905524 56.742C0.901456 56.364 0.901381 55.9859 0.904667 55.6078C0.903497 55.3977 0.902327 55.1876 0.901121 54.9712C0.898147 54.2724 0.900493 53.5737 0.902858 52.8749C0.901841 52.3718 0.900533 51.8687 0.898876 51.3656C0.895552 50.1441 0.896256 48.9226 0.898435 47.7011C0.900133 46.7078 0.900357 45.7145 0.899543 44.7212C0.89937 44.5086 0.89937 44.5086 0.899194 44.2917C0.898954 44.0038 0.898711 43.7159 0.898465 43.4279C0.896329 40.7319 0.89878 38.0359 0.902815 35.3399C0.906165 33.0297 0.905584 30.7196 0.902126 28.4094C0.898107 25.7227 0.896535 23.0359 0.898835 20.3491C0.899074 20.0623 0.89931 19.7754 0.899543 19.4886C0.899658 19.3475 0.899774 19.2064 0.899893 19.061C0.900539 18.0696 0.899451 17.0782 0.897683 16.0869C0.895573 14.8776 0.896162 13.6685 0.900143 12.4593C0.902106 11.843 0.902493 11.2269 0.900407 10.6107C0.898349 9.94101 0.900938 9.27155 0.904667 8.60192C0.902994 8.40944 0.901321 8.21696 0.899597 8.01864C0.922246 5.91341 1.60607 4.19293 3.0624 2.66739C5.11277 0.710038 7.31602 0.493835 10.022 0.509648ZM5.3124 4.91739C4.02835 6.41002 3.94354 8.22872 3.95229 10.1187C3.9517 10.315 3.95112 10.5112 3.95051 10.7135C3.94902 11.3676 3.9502 12.0218 3.95138 12.6759C3.95087 13.1463 3.95021 13.6168 3.94939 14.0872C3.94786 15.2301 3.94808 16.3731 3.94917 17.5161C3.95002 18.4454 3.95013 19.3747 3.94972 20.304C3.94967 20.4365 3.94961 20.569 3.94955 20.7055C3.94943 20.9747 3.94931 21.244 3.94918 21.5132C3.94812 24.0348 3.94934 26.5564 3.95136 29.0781C3.95304 31.2395 3.95274 33.401 3.95102 35.5625C3.94901 38.0754 3.94822 40.5883 3.94937 43.1012C3.94949 43.3694 3.94961 43.6376 3.94972 43.9058C3.94978 44.0377 3.94984 44.1696 3.9499 44.3056C3.95022 45.2333 3.94968 46.1609 3.94879 47.0886C3.94763 48.3383 3.94846 49.5879 3.95063 50.8376C3.95112 51.2959 3.95098 51.7541 3.95016 52.2124C3.94913 52.8386 3.95042 53.4648 3.95229 54.091C3.95145 54.2717 3.95061 54.4524 3.94975 54.6386C3.95963 56.3514 4.16247 57.9557 5.3124 59.2924C6.90065 60.6587 8.84233 60.6601 10.843 60.6475C11.0718 60.6475 11.3007 60.6476 11.5364 60.6476C12.1589 60.6474 12.7813 60.6455 13.4037 60.6429C14.0561 60.6405 14.7085 60.6403 15.3608 60.6399C16.5939 60.6387 17.827 60.6357 19.0601 60.6319C20.4649 60.6277 21.8697 60.6256 23.2745 60.6238C26.1621 60.6198 29.0498 60.6133 31.9374 60.6049C31.8585 60.4511 31.8585 60.4511 31.7781 60.2942C31.7097 60.1595 31.6413 60.0248 31.5708 59.886C31.5027 59.7525 31.4347 59.6191 31.3646 59.4816C30.8971 58.4875 30.8974 57.4092 31.1874 56.3627C31.6542 55.1693 32.4714 54.2147 33.5897 53.5854C34.6861 53.1103 35.8695 52.9281 37.0233 53.2924C38.4696 53.939 39.5493 55.2594 40.6388 56.3755C40.8601 56.6011 41.0858 56.8222 41.3124 57.0424C41.3743 57.0424 41.4362 57.0424 41.4999 57.0424C41.4999 55.6193 41.4999 54.1961 41.4999 52.7299C40.6646 52.4514 40.6646 52.4514 39.8124 52.1674C36.9466 51.1228 34.4237 49.8891 32.1249 47.8549C31.997 47.7539 31.8692 47.6528 31.7375 47.5487C28.0486 44.5827 25.7487 39.5398 25.1874 34.9174C25.129 34.0066 25.1158 33.0995 25.1171 32.1869C25.1172 32.0633 25.1173 31.9397 25.1174 31.8124C25.1252 29.7534 25.3027 27.8755 25.9374 25.9174C25.9776 25.7896 26.0178 25.6618 26.0592 25.5301C27.7352 20.3265 31.1255 16.6029 35.6874 13.7299C35.5251 13.5436 35.3629 13.3574 35.1957 13.1655C34.7818 12.6866 34.4009 12.1976 34.0308 11.6844C33.0727 10.4547 32.1596 9.59348 30.5751 9.3552C29.2628 9.24608 27.952 9.26517 26.637 9.30038C25.9736 9.31495 25.3103 9.31283 24.6469 9.31248C23.3943 9.31417 22.1423 9.32962 20.89 9.35063C19.048 9.38094 17.2059 9.39122 15.3637 9.40034C15.0917 9.4017 14.8196 9.40307 14.5476 9.40444C14.4148 9.40508 14.282 9.40571 14.1452 9.40637C13.357 9.41062 12.569 9.41925 11.7809 9.43176C11.1781 9.44095 10.5752 9.44698 9.97226 9.45382C9.75428 9.45851 9.5363 9.4632 9.31172 9.46803C9.11307 9.46974 8.91442 9.47145 8.70975 9.47322C8.53694 9.47601 8.36413 9.4788 8.18608 9.48167C7.66348 9.40465 7.50108 9.27204 7.1874 8.85488C7.1127 8.4916 7.1127 8.4916 7.11709 8.10488C7.11564 7.97727 7.11419 7.84965 7.1127 7.71817C7.21189 7.23582 7.36124 7.09279 7.7499 6.79238C8.21317 6.7195 8.21317 6.7195 8.77553 6.71591C8.9887 6.71324 9.20187 6.71057 9.42149 6.70782C9.65556 6.70778 9.88962 6.70774 10.1308 6.7077C10.3772 6.70551 10.6236 6.70332 10.8774 6.70106C11.5539 6.69529 12.2303 6.6932 12.9067 6.69213C13.3297 6.69131 13.7526 6.68974 14.1755 6.68791C15.6519 6.68158 17.1283 6.67837 18.6047 6.67785C19.9792 6.67728 21.3536 6.66971 22.7281 6.65889C23.9092 6.64992 25.0902 6.64603 26.2713 6.64602C26.9763 6.64592 27.6811 6.64376 28.386 6.63642C29.0499 6.62967 29.7134 6.62928 30.3773 6.63364C30.7353 6.63443 31.0933 6.62875 31.4513 6.62283C32.5549 6.63622 33.2699 6.68886 34.1251 7.42478C34.3396 7.6456 34.5486 7.87196 34.7499 8.10488C34.9144 8.28294 35.0788 8.461 35.2483 8.64445C35.3929 8.81517 35.5376 8.98588 35.6867 9.16177C37.2697 11.1317 37.2697 11.1317 39.3584 12.3489C40.3667 12.3254 41.1724 11.92 42.0624 11.4799C45.2408 10.8086 49.105 11.0433 52.1874 12.0424C52.3152 12.0826 52.443 12.1227 52.5747 12.1641C55.146 12.9923 57.4014 14.2211 59.4428 16.0019C59.8279 16.3165 60.1717 16.5315 60.6249 16.7299C61.4319 15.9393 62.2332 15.1507 62.9687 14.2924C63.5783 13.5811 64.2356 12.9285 64.9022 12.2709C65.2744 11.8935 65.6238 11.5072 65.9687 11.1049C66.5769 10.3953 67.2322 9.74397 67.8979 9.08853C68.4066 8.57171 68.8771 8.02888 69.3422 7.4728C69.8033 6.97463 70.1062 6.79902 70.7851 6.7435C71.1554 6.74221 71.1554 6.74221 71.5332 6.74089C71.6696 6.73993 71.8059 6.73897 71.9464 6.73798C72.3972 6.73538 72.8479 6.73556 73.2987 6.73599C73.6119 6.73526 73.925 6.73445 74.2381 6.73355C74.8945 6.73215 75.5508 6.73221 76.2071 6.7332C77.0488 6.73428 77.8905 6.73111 78.7323 6.72676C79.3789 6.724 80.0255 6.72383 80.6721 6.72441C80.9825 6.72432 81.2929 6.72333 81.6033 6.72145C82.0369 6.71914 82.4704 6.7204 82.9041 6.72258C83.2744 6.7224 83.2744 6.7224 83.6522 6.72222C84.2499 6.79238 84.2499 6.79238 84.6106 7.05529C84.8621 7.42865 84.8878 7.65693 84.8827 8.10488C84.8842 8.2325 84.8856 8.36012 84.8871 8.4916C84.7868 8.97941 84.6494 9.11947 84.2499 9.41738C83.7217 9.47574 83.7217 9.47574 83.0715 9.45977C82.8279 9.45562 82.5843 9.45146 82.3333 9.44718C82.1378 9.44218 82.1378 9.44218 81.9384 9.43708C81.5281 9.42753 81.118 9.42309 80.7076 9.42032C79.5407 9.41243 78.3742 9.40268 77.2077 9.37179C73.5815 9.10385 73.5815 9.10385 70.413 10.4532C69.9613 10.9551 69.6078 11.4687 69.2499 12.0424C69.0243 12.3083 68.7951 12.5714 68.5585 12.8275C68.4611 12.9423 68.3637 13.0572 68.2633 13.1754C67.7096 13.7988 67.1072 14.3738 66.5143 14.9596C66.0131 15.4673 65.5492 15.9974 65.0868 16.5402C64.5614 17.1284 63.9916 17.6702 63.422 18.2152C63.0824 18.5833 62.8823 18.8971 62.6874 19.3549C62.7647 19.4554 62.8421 19.556 62.9218 19.6596C66.3377 24.2955 67.53 29.9586 66.6937 35.6168C66.1245 39.1396 64.7284 42.6494 62.3007 45.3119C61.882 45.7592 61.882 45.7592 61.9608 46.2963C62.042 46.5109 62.042 46.5109 62.1249 46.7299C62.1868 46.9155 62.2487 47.1011 62.3124 47.2924C62.5116 47.2837 62.7107 47.275 62.9159 47.266C65.7702 47.1773 65.7702 47.1773 66.8124 48.0424C67.644 48.8328 68.2431 49.6235 68.3646 50.7966C68.3684 51.0683 68.3684 51.0683 68.3722 51.3455C68.3778 51.6551 68.3778 51.6551 68.3835 51.9709C68.3856 52.1916 68.3878 52.4124 68.39 52.6398C68.3955 52.9811 68.3955 52.9811 68.401 53.3294C68.4122 54.0553 68.4209 54.7813 68.4296 55.5072C68.4368 55.9998 68.4441 56.4923 68.4516 56.9849C68.4696 58.1915 68.4855 59.3982 68.4999 60.6049C70.4265 60.6136 72.3531 60.6202 74.2797 60.6243C75.1745 60.6263 76.0692 60.6289 76.9639 60.6332C77.8283 60.6373 78.6927 60.6395 79.5571 60.6405C79.8859 60.6412 80.2147 60.6425 80.5435 60.6445C83.6127 60.7502 83.6127 60.7502 86.3124 59.4799C87.8916 57.8894 88.0284 56.3243 88.025 54.1587C88.0254 53.9629 88.0258 53.7671 88.0263 53.5654C88.0274 52.9095 88.0273 52.2536 88.0271 51.5977C88.0277 51.1274 88.0283 50.657 88.029 50.1867C88.0305 49.0418 88.0311 47.8969 88.0312 46.7519C88.0313 45.821 88.0317 44.8901 88.0323 43.9591C88.0339 41.3181 88.0348 38.6771 88.0347 36.0361C88.0347 35.8938 88.0347 35.7515 88.0346 35.6049C88.0346 35.4624 88.0346 35.32 88.0346 35.1732C88.0345 32.8646 88.0363 30.5561 88.039 28.2475C88.0417 25.8755 88.043 23.5035 88.0428 21.1315C88.0427 19.8004 88.0433 18.4694 88.0453 17.1383C88.0472 15.8864 88.0471 14.6344 88.0457 13.3824C88.0456 12.9233 88.046 12.4641 88.0471 12.0049C88.0486 11.3774 88.0477 10.75 88.0463 10.1225C88.0477 9.85088 88.0477 9.85088 88.0492 9.57377C88.0406 7.88525 87.8599 6.21536 86.6874 4.91739C85.2553 3.80087 83.9671 3.58181 82.1718 3.58077C82.0442 3.58044 81.9165 3.58011 81.785 3.57977C81.3587 3.5789 80.9324 3.57936 80.5061 3.57981C80.1968 3.57946 79.8876 3.57903 79.5783 3.57853C78.7294 3.57738 77.8805 3.5774 77.0316 3.57763C76.1157 3.57766 75.1997 3.57663 74.2838 3.57574C72.4898 3.57418 70.6958 3.57367 68.9018 3.57356C67.4437 3.57347 65.9856 3.57309 64.5274 3.57249C60.3934 3.57084 56.2594 3.56998 52.1254 3.57012C51.9026 3.57013 51.6797 3.57013 51.4501 3.57014C51.1155 3.57015 51.1155 3.57015 50.774 3.57016C47.1572 3.57024 43.5404 3.56845 39.9236 3.5658C36.21 3.56311 32.4964 3.56181 28.7828 3.56198C26.6978 3.56204 24.6129 3.56152 22.5279 3.55951C20.753 3.5578 18.978 3.55739 17.2031 3.55866C16.2976 3.55928 15.3921 3.55928 14.4866 3.55766C13.6573 3.55619 12.828 3.55645 11.9988 3.55809C11.6991 3.55838 11.3995 3.55803 11.0998 3.55699C7.99764 3.52164 7.99764 3.52164 5.3124 4.91739ZM33.8124 18.7924C33.6824 18.9072 33.5523 19.022 33.4184 19.1403C30.0144 22.3205 28.2583 26.8479 27.9582 31.4296C27.8326 36.2011 29.6166 40.83 32.8551 44.3253C35.1195 46.696 37.844 48.2954 40.9374 49.3549C41.123 49.3549 41.3087 49.3549 41.4999 49.3549C41.9418 46.0514 41.9418 46.0514 41.248 42.9262C40.6102 42.3326 39.847 42.0514 39.0271 41.7878C37.1258 41.1139 35.7657 38.5492 34.9491 36.8393C33.7391 34.1504 33.7484 30.5939 34.7139 27.8369C35.9141 24.7195 38.1469 22.5331 41.1205 21.1024C42.3909 20.5477 43.6742 20.1899 45.0624 20.1049C45.2139 20.095 45.3655 20.0851 45.5216 20.0749C49.0604 19.956 52.1743 21.3506 54.7538 23.7025C57.1227 26.2248 57.954 29.2248 57.9106 32.5968C57.7935 35.8361 56.5153 38.5924 54.2499 40.9174C53.7076 41.3539 53.1569 41.7552 52.5792 42.1435C52.4499 42.2339 52.3206 42.3242 52.1874 42.4174C52.1874 42.4793 52.1874 42.5411 52.1874 42.6049C52.3505 42.6324 52.3505 42.6324 52.517 42.6605C53.7072 42.8884 54.5584 43.2349 55.3866 44.1635C55.5065 44.2679 55.6264 44.3723 55.7499 44.4799C56.0635 44.423 56.3758 44.3592 56.6874 44.2924C56.9909 44.2956 56.9909 44.2956 57.3004 44.299C58.6137 44.3203 58.6137 44.3203 59.7643 43.768C60.168 43.2767 60.4907 42.7784 60.8124 42.2299C60.9412 42.0244 61.0701 41.819 61.2028 41.6073C63.7435 37.4596 64.551 32.6932 63.5355 27.9358C62.8669 25.2549 61.6121 22.8136 59.8749 20.6674C59.7386 20.498 59.6023 20.3285 59.4618 20.154C56.5243 16.7155 52.1936 14.522 47.6874 14.1049C42.5572 13.8032 37.6404 15.3051 33.8124 18.7924ZM40.3046 25.2377C40.0118 25.523 39.7224 25.8118 39.4374 26.1049C39.2724 26.264 39.2724 26.264 39.1042 26.4264C37.3974 28.2027 37.0965 30.5805 37.1361 32.9252C37.2368 35.3738 38.5239 37.3188 40.2541 38.9787C40.6406 39.2936 41.0197 39.4739 41.4999 39.6049C41.5183 39.4826 41.5366 39.3603 41.5556 39.2343C41.8347 37.603 42.4201 36.6444 43.7499 35.6674C44.9639 35.0688 46.4804 35.0736 47.7775 35.4147C48.8734 35.9086 49.6309 36.7711 50.1835 37.8236C50.3455 38.4128 50.4286 38.9986 50.4999 39.6049C52.1212 39.0578 53.2197 37.5955 54.0214 36.1369C55.0545 34.0143 55.2008 31.4517 54.5077 29.1869C53.5536 26.7733 51.8819 24.9616 49.5214 23.8827C46.4195 22.6019 42.8706 22.9828 40.3046 25.2377ZM45.0038 38.6322C44.5246 39.2535 44.4764 39.7488 44.4753 40.5087C44.4745 40.6948 44.4738 40.8809 44.473 41.0727C44.4732 41.3787 44.4732 41.3787 44.4733 41.6908C44.4727 41.9058 44.472 42.1208 44.4713 42.3423C44.47 42.8097 44.469 43.2772 44.4683 43.7446C44.4669 44.4836 44.464 45.2226 44.4605 45.9616C44.4593 46.2146 44.4582 46.4676 44.457 46.7206C44.4564 46.8473 44.4558 46.974 44.4552 47.1045C44.4473 48.8248 44.4411 50.5452 44.4388 52.2655C44.4371 53.55 44.4314 54.8344 44.4235 56.1189C44.4212 56.6093 44.4203 57.0997 44.4207 57.5901C44.4211 58.2748 44.417 58.9593 44.4118 59.6439C44.4136 59.9499 44.4136 59.9499 44.4155 60.2621C44.412 60.5412 44.412 60.5412 44.4084 60.8261C44.408 60.988 44.4076 61.1499 44.4071 61.3167C44.3124 61.7299 44.3124 61.7299 43.9636 62.0603C43.3803 62.3977 43.1051 62.4208 42.4374 62.2924C41.4573 61.6066 40.6394 60.6843 39.8117 59.8263C39.712 59.7235 39.6124 59.6206 39.5097 59.5147C38.6715 58.6489 38.6715 58.6489 38.2692 58.223C37.9661 57.9028 37.6589 57.587 37.3507 57.2716C37.2142 57.124 37.2142 57.124 37.0748 56.9734C36.5608 56.4553 36.2878 56.2967 35.5534 56.2129C34.9348 56.2481 34.9348 56.2481 34.4804 56.5854C34.0682 57.2284 34.0923 57.5996 34.1874 58.3549C34.499 58.8309 34.8926 59.1928 35.3124 59.5736C35.4161 59.673 35.5198 59.7723 35.6266 59.8747C36.187 60.4067 36.7657 60.9154 37.3507 61.4201C38.2125 62.1701 39.0186 62.9711 39.8241 63.7807C39.9673 63.9231 40.1105 64.0656 40.2581 64.2124C40.9085 64.8639 41.5431 65.5192 42.1415 66.2189C43.0964 67.3289 44.1707 68.3266 45.2276 69.3383C45.3884 69.4959 45.5493 69.6535 45.715 69.8158C45.8598 69.9555 46.0046 70.0952 46.1538 70.2392C47.6383 72.0221 47.3639 73.1562 47.4999 75.6049C52.4499 75.6049 57.3999 75.6049 62.4999 75.6049C62.5618 74.4911 62.6237 73.3774 62.6874 72.2299C62.9742 71.4681 63.183 71.0001 63.6249 70.3549C63.6929 70.2555 63.761 70.1561 63.8311 70.0538C64.131 69.6175 64.4308 69.1817 64.7433 68.7543C65.4927 67.7193 65.5283 66.926 65.5301 65.6715C65.531 65.5214 65.532 65.3713 65.5329 65.2167C65.5357 64.7209 65.537 64.2252 65.538 63.7294C65.5391 63.3842 65.5401 63.0391 65.5412 62.6939C65.5432 61.9705 65.5443 61.247 65.5449 60.5236C65.546 59.5976 65.5505 58.6717 65.5558 57.7457C65.5593 57.0328 65.5603 56.3199 65.5606 55.607C65.5611 55.2657 65.5626 54.9243 65.5651 54.583C65.5683 54.1051 65.568 53.6272 65.5667 53.1493C65.5693 52.9388 65.5693 52.9388 65.572 52.7241C65.5649 51.8394 65.4092 51.2298 64.9374 50.4799C64.4047 50.2136 64.0271 50.2334 63.4374 50.2924C62.9034 50.7109 62.7155 50.958 62.4999 51.6049C62.4782 51.999 62.4664 52.3938 62.4604 52.7885C62.455 53.021 62.4497 53.2535 62.4442 53.4931C62.4345 53.9842 62.4262 54.4755 62.4193 54.9667C62.4135 55.1992 62.4077 55.4317 62.4018 55.6713C62.398 55.8847 62.3943 56.0981 62.3905 56.318C62.3124 56.8549 62.3124 56.8549 62.0483 57.2054C61.6757 57.4701 61.4541 57.4929 60.9999 57.4877C60.8085 57.4899 60.8085 57.4899 60.6132 57.4921C60.1377 57.3943 59.9898 57.2305 59.6874 56.8549C59.6164 56.4816 59.6164 56.4816 59.6153 56.0516C59.6134 55.8901 59.6115 55.7286 59.6095 55.5622C59.6101 55.3881 59.6106 55.2141 59.6112 55.0348C59.6092 54.8552 59.6072 54.6755 59.6051 54.4904C59.5986 53.9153 59.5957 53.3402 59.5937 52.765C59.5909 52.0098 59.5846 51.2548 59.5761 50.4997C59.5766 50.3268 59.5772 50.1539 59.5778 49.9757C59.5665 49.0065 59.4871 48.3152 58.9374 47.4799C58.4047 47.2136 58.0271 47.2334 57.4374 47.2924C56.9034 47.7109 56.7155 47.958 56.4999 48.6049C56.4813 48.8752 56.4726 49.1462 56.4703 49.4171C56.4674 49.6621 56.4674 49.6621 56.4645 49.912C56.4631 50.0878 56.4618 50.2636 56.4604 50.4447C56.4551 50.8163 56.4497 51.1879 56.4442 51.5595C56.4365 52.1458 56.4296 52.7322 56.4246 53.3186C56.4195 53.8841 56.4109 54.4495 56.4018 55.015C56.4011 55.1908 56.4005 55.3666 56.3999 55.5477C56.3953 55.7927 56.3952 55.7927 56.3905 56.0426C56.389 56.1862 56.3875 56.3299 56.3859 56.4778C56.2932 56.9532 56.1263 57.1215 55.7499 57.4174C55.3866 57.4921 55.3866 57.4921 54.9999 57.4877C54.8085 57.4899 54.8085 57.4899 54.6132 57.4921C54.1336 57.3935 53.9884 57.2386 53.6874 56.8549C53.6164 56.4247 53.6164 56.4247 53.6153 55.9139C53.6134 55.7223 53.6115 55.5308 53.6095 55.3335C53.6101 55.1266 53.6106 54.9198 53.6112 54.7067C53.6092 54.4937 53.6072 54.2808 53.6051 54.0614C53.5986 53.3793 53.5957 52.6972 53.5937 52.015C53.5909 51.1192 53.5846 50.2236 53.5761 49.3278C53.5766 49.1221 53.5772 48.9164 53.5778 48.7045C53.5676 47.6643 53.5488 46.8671 52.9374 45.9799C52.4047 45.7136 52.0271 45.7334 51.4374 45.7924C50.9034 46.2109 50.7155 46.458 50.4999 47.1049C50.481 47.4211 50.4726 47.738 50.4703 48.0548C50.4674 48.3448 50.4674 48.3448 50.4645 48.6407C50.4631 48.8493 50.4618 49.0579 50.4604 49.2729C50.4551 49.7128 50.4497 50.1527 50.4442 50.5927C50.4365 51.2877 50.4296 51.9827 50.4246 52.6777C50.4195 53.3475 50.4109 54.0172 50.4018 54.6869C50.4011 54.8955 50.4005 55.1041 50.3999 55.319C50.3953 55.6091 50.3952 55.6091 50.3905 55.9049C50.389 56.0752 50.3875 56.2455 50.3859 56.4209C50.2984 56.9374 50.1627 57.1047 49.7499 57.4174C49.3866 57.4921 49.3866 57.4921 48.9999 57.4877C48.8085 57.4899 48.8085 57.4899 48.6132 57.4921C48.1402 57.3948 47.9908 57.2255 47.6874 56.8549C47.6322 56.2988 47.6112 55.7817 47.6153 55.2254C47.6143 55.0589 47.6132 54.8923 47.6122 54.7208C47.6104 54.3589 47.6098 53.997 47.6104 53.6352C47.6112 53.0622 47.6086 52.4893 47.6051 51.9163C47.5982 50.6992 47.5956 49.4821 47.5937 48.265C47.5914 46.8566 47.5873 45.4483 47.5787 44.0399C47.5761 43.4759 47.5769 42.9119 47.5778 42.3479C47.576 42.001 47.5741 41.6541 47.572 41.3072C47.5732 41.1508 47.5744 40.9944 47.5755 40.8333C47.5658 39.9133 47.4487 39.2767 46.9374 38.4799C46.2258 38.1241 45.6299 38.1415 45.0038 38.6322ZM44.8749 79.1674C44.2493 80.1973 44.4372 81.5091 44.4407 82.6773C44.4413 83.0913 44.4369 83.505 44.4322 83.919C44.4317 84.1845 44.4316 84.45 44.4318 84.7155C44.4312 84.955 44.4307 85.1945 44.4301 85.4413C44.5073 86.1752 44.6509 86.6179 45.0624 87.2299C45.9161 87.7128 46.7883 87.6591 47.7408 87.6564C47.9147 87.6573 48.0886 87.6583 48.2678 87.6593C48.8417 87.6619 49.4155 87.6617 49.9894 87.6613C50.3889 87.662 50.7885 87.6628 51.188 87.6637C52.0251 87.6651 52.8622 87.6651 53.6993 87.6641C54.7713 87.663 55.8433 87.6662 56.9154 87.6705C57.7404 87.6733 58.5654 87.6734 59.3904 87.6729C59.7856 87.6729 60.1809 87.6739 60.5761 87.6758C61.129 87.6781 61.6818 87.6769 62.2347 87.6747C62.3975 87.6761 62.5603 87.6776 62.728 87.679C63.6645 87.6709 64.3154 87.5665 65.1249 87.0424C65.7505 86.0124 65.5626 84.7007 65.5591 83.5325C65.5585 83.1185 65.5629 82.7048 65.5677 82.2908C65.5681 82.0253 65.5682 81.7598 65.568 81.4943C65.5686 81.2548 65.5691 81.0153 65.5697 80.7685C65.4925 80.0345 65.3489 79.5918 64.9374 78.9799C64.0837 78.497 63.2115 78.5507 62.259 78.5534C61.9981 78.5519 61.9981 78.5519 61.732 78.5505C61.1581 78.5479 60.5843 78.5481 60.0104 78.5485C59.6109 78.5478 59.2113 78.5469 58.8118 78.546C57.9747 78.5446 57.1376 78.5447 56.3005 78.5457C55.2285 78.5468 54.1565 78.5436 53.0845 78.5393C52.2594 78.5365 51.4344 78.5363 50.6094 78.5369C50.2142 78.5368 49.8189 78.5358 49.4237 78.5339C48.8708 78.5316 48.318 78.5329 47.7651 78.5351C47.5209 78.5329 47.5209 78.5329 47.2718 78.5307C46.3354 78.5388 45.6844 78.6433 44.8749 79.1674Z" fill="white"/>
</svg>
