<svg width="96" height="94" viewBox="0 0 96 94" fill="none" xmlns="http://www.w3.org/2000/svg">
<path d="M45.75 0.587852C45.9288 0.587135 46.1077 0.586417 46.292 0.585678C46.6689 0.585169 47.0459 0.586542 47.4228 0.589684C47.9982 0.593699 48.5731 0.589717 49.1484 0.584923C49.5156 0.585418 49.8828 0.586379 50.25 0.587852C50.5067 0.585575 50.5067 0.585575 50.7685 0.583252C52.0711 0.602325 52.7724 0.947311 53.6953 1.89449C54.1582 2.90937 54.0586 3.90176 54 4.99996C54.1249 5.02969 54.2499 5.05942 54.3786 5.09005C55.5534 5.38743 56.5942 5.78005 57.6731 6.33297C58.1897 6.52389 58.3748 6.52931 58.875 6.31246C59.2294 6.05852 59.2294 6.05852 59.5547 5.74996C60.1991 5.16466 60.5614 4.96697 61.4414 4.94137C61.5968 4.93436 61.7522 4.92735 61.9123 4.92013C63.1215 5.10395 64.013 5.9289 64.8428 6.77462C64.9394 6.87122 65.0361 6.96781 65.1357 7.06734C65.3381 7.2701 65.5397 7.47355 65.7407 7.67765C66.047 7.98844 66.3558 8.29663 66.665 8.60458C66.8624 8.80304 67.0597 9.00164 67.2568 9.2004C67.3482 9.29164 67.4396 9.38288 67.5338 9.47689C68.4024 10.3635 68.8929 11.0418 68.8945 12.3007C68.8999 12.5817 68.8999 12.5817 68.9055 12.8684C68.7898 13.5761 68.47 13.9809 68.0625 14.5625C68.1825 14.5626 68.3025 14.5627 68.4262 14.5628C71.3529 14.5656 74.2796 14.5736 77.2063 14.5872C78.6216 14.5937 80.037 14.5985 81.4523 14.5991C82.6866 14.5997 83.9209 14.6036 85.1552 14.6113C85.8081 14.6153 86.461 14.6177 87.114 14.6161C87.8447 14.6144 88.5752 14.6201 89.3059 14.6263C89.6272 14.6239 89.6272 14.6239 89.9549 14.6214C91.4842 14.6432 92.7686 14.9591 93.9212 16.0166C95.1964 17.3717 95.3326 18.718 95.3239 20.5077C95.3251 20.728 95.3262 20.9483 95.3274 21.1753C95.33 21.7845 95.33 22.3935 95.329 23.0026C95.3285 23.6605 95.3312 24.3184 95.3335 24.9762C95.3375 26.2642 95.3383 27.5522 95.338 28.8401C95.3377 29.8874 95.3384 30.9346 95.3398 31.9818C95.3402 32.2837 95.3406 32.5856 95.341 32.8875C95.3413 33.1129 95.3413 33.1129 95.3416 33.3428C95.3452 36.1837 95.345 39.0245 95.3437 41.8654C95.3426 44.4624 95.3465 47.0594 95.3528 49.6563C95.3591 52.3248 95.3619 54.9932 95.3611 57.6616C95.3606 59.159 95.3616 60.6564 95.3663 62.1538C95.3702 63.4287 95.3709 64.7035 95.3674 65.9784C95.3656 66.6284 95.3654 67.2783 95.3693 67.9283C95.3727 68.6342 95.3703 69.3399 95.3665 70.0458C95.3688 70.2495 95.3712 70.4533 95.3736 70.6632C95.3563 72.1575 95.0137 73.4222 93.9833 74.5467C92.9262 75.5399 91.8005 75.9459 90.3623 75.9426C90.2356 75.9431 90.1089 75.9436 89.9783 75.9441C89.5574 75.945 89.1366 75.9419 88.7157 75.9388C88.4126 75.9387 88.1094 75.9388 87.8063 75.9391C86.9859 75.9392 86.1655 75.9359 85.3451 75.932C84.4867 75.9285 83.6284 75.9281 82.7701 75.9275C81.1459 75.9257 79.5217 75.9211 77.8974 75.9155C76.0478 75.9092 74.1982 75.9061 72.3486 75.9033C68.5449 75.8974 64.7412 75.8871 60.9375 75.875C60.9375 78.7831 60.9375 81.6912 60.9375 84.6875C63.6299 84.6505 63.6299 84.6505 66.3222 84.603C66.6635 84.6003 67.0048 84.5979 67.3462 84.5959C67.5188 84.5911 67.6913 84.5863 67.8692 84.5814C69.1656 84.5805 70.1744 84.8866 71.25 85.625C72.6078 87.0707 72.6014 88.297 72.6094 90.2187C72.6132 90.4529 72.6171 90.6871 72.6211 90.9284C72.622 91.1525 72.623 91.3765 72.624 91.6074C72.6257 91.813 72.6275 92.0185 72.6293 92.2303C72.5625 92.75 72.5625 92.75 72.3281 93.0593C71.9159 93.3773 71.6997 93.3828 71.1827 93.3827C71.0147 93.3841 70.8467 93.3854 70.6737 93.3868C70.4889 93.3854 70.3042 93.384 70.1139 93.3826C69.8197 93.3837 69.8197 93.3837 69.5196 93.3849C68.8593 93.3867 68.1991 93.3845 67.5388 93.3823C67.0667 93.3827 66.5947 93.3834 66.1226 93.3843C64.9715 93.3859 63.8205 93.3849 62.6695 93.3826C61.3298 93.3801 59.9901 93.3804 58.6504 93.3808C56.2605 93.3814 53.8706 93.3792 51.4806 93.3755C49.1602 93.3719 46.8398 93.3706 44.5193 93.3717C41.9941 93.3728 39.4688 93.3727 36.9436 93.3706C36.6745 93.3704 36.4053 93.3702 36.1362 93.3699C35.9375 93.3698 35.9375 93.3698 35.7349 93.3696C34.8005 93.3689 33.8661 93.3689 32.9317 93.3693C31.6746 93.3697 30.4176 93.3681 29.1606 93.3652C28.6982 93.3644 28.2358 93.3642 27.7735 93.3647C27.1443 93.3653 26.5152 93.3636 25.8861 93.3613C25.609 93.3624 25.609 93.3624 25.3263 93.3635C25.1583 93.3624 24.9903 93.3613 24.8173 93.3602C24.672 93.36 24.5267 93.3599 24.377 93.3597C24 93.3125 24 93.3125 23.4375 92.9375C22.8781 91.3889 22.9836 88.6257 23.625 87.125C24.3051 85.8265 25.2665 85.1843 26.625 84.6875C27.3066 84.5753 27.9645 84.5768 28.6538 84.5959C28.8178 84.5969 28.9817 84.5978 29.1507 84.5988C29.7542 84.6036 30.3575 84.6167 30.9609 84.6289C32.3144 84.6482 33.6679 84.6675 35.0625 84.6875C35.0625 81.7793 35.0625 78.8712 35.0625 75.875C34.1408 75.8799 33.2191 75.8848 32.2695 75.8898C29.2236 75.9054 26.1777 75.9158 23.1317 75.9235C21.285 75.9284 19.4384 75.9349 17.5917 75.9457C15.9817 75.955 14.3717 75.9611 12.7617 75.9632C11.9096 75.9644 11.0576 75.9672 10.2055 75.9741C9.40244 75.9805 8.59948 75.9824 7.7964 75.981C7.50269 75.9813 7.20897 75.9831 6.91528 75.9867C5.08002 76.0082 3.49048 75.9106 2.0813 74.6083C0.800394 73.2595 0.667321 71.904 0.676027 70.1172C0.674885 69.8969 0.673742 69.6766 0.672565 69.4496C0.669989 68.8405 0.669924 68.2314 0.670949 67.6223C0.671451 66.9644 0.668723 66.3066 0.666431 65.6487C0.662487 64.3607 0.661631 63.0728 0.661965 61.7848C0.662211 60.7376 0.661498 59.6903 0.660106 58.6431C0.659712 58.3412 0.65932 58.0393 0.658927 57.7374C0.658731 57.5872 0.658533 57.4369 0.658332 57.2821C0.654789 54.4412 0.654984 51.6004 0.656263 48.7595C0.657308 46.1625 0.653406 43.5656 0.647197 40.9686C0.640867 38.3001 0.638028 35.6317 0.638894 32.9633C0.639315 31.4659 0.638338 29.9685 0.633664 28.4712C0.629718 27.1963 0.629055 25.9214 0.632594 24.6465C0.634308 23.9965 0.634538 23.3466 0.630654 22.6966C0.627245 21.9907 0.629632 21.285 0.633455 20.5792C0.631108 20.3754 0.628761 20.1716 0.626343 19.9617C0.643658 18.4674 0.986215 17.2028 2.01661 16.0783C3.40792 14.771 4.79506 14.6666 6.63018 14.6689C6.8608 14.667 7.09142 14.6651 7.32903 14.6631C7.95809 14.6584 8.58706 14.6562 9.21613 14.6551C9.87478 14.6533 10.5334 14.6484 11.192 14.6438C12.4377 14.6356 13.6834 14.6303 14.9292 14.6259C16.348 14.6209 17.7668 14.6126 19.1857 14.6041C22.1029 14.5867 25.0202 14.5733 27.9375 14.5625C27.8161 14.3882 27.6946 14.2139 27.5695 14.0343C27.1618 13.3973 27.0762 13.0807 27.0703 12.3359C27.064 12.1546 27.0577 11.9734 27.0512 11.7866C27.4319 10.1126 29.1013 8.836 30.2695 7.67184C30.4412 7.49709 30.613 7.32234 30.7899 7.1423C32.7732 5.15759 32.7732 5.15759 34.0613 4.90035C35.1163 4.91408 35.7321 5.0382 36.5625 5.74996C36.6901 5.89305 36.8177 6.03613 36.9492 6.18356C37.0691 6.28797 37.189 6.39238 37.3125 6.49996C38.145 6.41988 38.8922 6.07071 39.6562 5.74996C40.4279 5.42602 41.1675 5.12803 42 4.99996C41.9913 4.83706 41.9826 4.67415 41.9736 4.50631C41.9183 2.74145 41.9183 2.74145 42.3047 1.89449C43.4047 0.76553 44.2332 0.574396 45.75 0.587852ZM44.4375 3.31246C44.393 3.89789 44.3633 4.48186 44.3404 5.06844C44.2702 6.42355 44.2702 6.42355 43.875 6.87496C43.3518 7.08236 42.8551 7.24892 42.3164 7.40231C40.9581 7.81539 39.8165 8.31576 38.6052 9.0649C37.9211 9.37693 37.4941 9.42261 36.75 9.31246C36.2446 8.89571 36.2446 8.89571 35.789 8.36324C35.3542 7.82982 35.3542 7.82982 34.875 7.43746C33.9794 7.46071 33.4967 7.95071 32.896 8.55367C32.8011 8.6469 32.7063 8.74014 32.6086 8.83619C32.4094 9.03321 32.2112 9.2312 32.014 9.43011C31.7112 9.73407 31.4037 10.0327 31.0957 10.3313C30.9025 10.5236 30.7096 10.7162 30.5171 10.9091C30.4247 10.998 30.3324 11.0869 30.2372 11.1785C29.9485 11.4627 29.9485 11.4627 29.625 11.9375C29.643 12.6007 29.7484 12.8054 30.1999 13.2961C30.512 13.5701 30.8245 13.8435 31.1374 14.1164C31.5 14.5625 31.5 14.5625 31.6018 15.0722C31.4597 15.931 31.0985 16.6171 30.7031 17.3867C30.0705 18.6581 29.5702 19.8629 29.2221 21.2429C29.0625 21.6875 29.0625 21.6875 28.5 22.0625C27.9878 22.1141 27.4898 22.1494 26.9765 22.1679C26.0722 22.124 26.0722 22.124 25.3125 22.4375C25.2959 22.951 25.2909 23.4598 25.2942 23.9734C25.2944 24.1271 25.2947 24.2808 25.295 24.4392C25.296 24.9321 25.2984 25.425 25.3008 25.9179C25.3017 26.2513 25.3026 26.5847 25.3033 26.9181C25.3054 27.737 25.3086 28.556 25.3125 29.375C25.7318 29.5846 25.9966 29.5988 26.4624 29.6218C26.6134 29.6296 26.7645 29.6375 26.9201 29.6456C27.078 29.653 27.2358 29.6603 27.3984 29.6679C27.6373 29.6801 27.6373 29.6801 27.8811 29.6925C28.2748 29.7124 28.6687 29.7313 29.0625 29.75C29.09 29.8662 29.1176 29.9825 29.146 30.1023C29.5968 31.8822 30.1855 33.7308 31.1609 35.2959C31.5236 35.9822 31.6493 36.3035 31.5 37.0625C31.0832 37.5495 31.0832 37.5495 30.5508 38.0117C30.0168 38.4516 30.0168 38.4516 29.625 38.9375C29.637 39.7246 29.9758 40.1236 30.5198 40.6673C30.666 40.8077 30.666 40.8077 30.8152 40.9509C30.9148 41.0494 31.0144 41.148 31.117 41.2495C31.4344 41.5627 31.7542 41.8731 32.0742 42.1836C32.2903 42.3959 32.5063 42.6084 32.722 42.8211C33.2502 43.3411 33.7807 43.8586 34.3125 44.375C35.1546 43.888 35.7065 43.3485 36.3449 42.6208C36.75 42.3125 36.75 42.3125 37.2744 42.2253C38.0218 42.3338 38.5951 42.6314 39.2461 42.9921C40.484 43.6507 41.7259 44.1484 43.0648 44.564C43.4027 44.6731 43.7336 44.8036 44.0625 44.9375C44.3347 45.7541 44.3166 46.5901 44.347 47.4445C44.3641 47.7972 44.3994 48.1489 44.4375 48.5C45.0088 48.7856 45.6039 48.7141 46.2304 48.7124C46.3705 48.7125 46.5106 48.7127 46.6549 48.7129C46.9512 48.713 47.2476 48.7127 47.5439 48.7119C47.9982 48.7109 48.4524 48.7119 48.9067 48.7131C49.1943 48.713 49.4819 48.7127 49.7695 48.7124C49.9058 48.7127 50.0422 48.7131 50.1826 48.7135C50.8962 48.7222 50.8962 48.7222 51.5625 48.5C51.6164 48.003 51.6502 47.5218 51.6679 47.0234C51.7282 45.5654 51.7282 45.5654 51.9375 44.9375C52.4106 44.7449 52.869 44.5845 53.3554 44.4336C54.6819 44.0013 55.8942 43.4677 57.1044 42.7723C57.7104 42.4424 58.1189 42.3125 58.8134 42.3103C59.5447 42.5326 59.8137 42.7905 60.3047 43.3671C60.6885 43.845 60.6885 43.845 61.125 44.1875C62.0213 44.1579 62.502 43.6756 63.104 43.0713C63.2462 42.9314 63.2462 42.9314 63.3914 42.7887C63.5905 42.5917 63.7887 42.3937 63.986 42.1948C64.2888 41.8909 64.5962 41.5922 64.9043 41.2937C65.0974 41.1013 65.2903 40.9087 65.4829 40.7158C65.5752 40.6269 65.6676 40.538 65.7628 40.4464C66.0515 40.1622 66.0515 40.1622 66.375 39.6875C66.3569 39.0242 66.2515 38.8196 65.8 38.3288C65.488 38.0549 65.1755 37.7814 64.8625 37.5085C64.5 37.0625 64.5 37.0625 64.4048 36.5337C64.5245 35.7842 64.8289 35.1982 65.1914 34.5429C65.8583 33.2823 66.3443 32.0319 66.7668 30.6713C66.9375 30.125 66.9375 30.125 67.125 29.75C67.3507 29.7386 67.5765 29.7272 67.8091 29.7155C68.1045 29.6997 68.3999 29.6838 68.6953 29.6679C68.8442 29.6606 68.9931 29.6532 69.1465 29.6456C69.9424 29.6208 69.9424 29.6208 70.6875 29.375C70.6921 28.3904 70.6955 27.4058 70.6978 26.4212C70.6987 26.086 70.7 25.7508 70.7016 25.4156C70.7039 24.9349 70.705 24.4541 70.7058 23.9734C70.7067 23.8226 70.7077 23.6718 70.7087 23.5164C70.7088 23.1567 70.6991 22.797 70.6875 22.4375C70.2722 22.0222 69.1946 22.1741 68.6067 22.1529C67.8998 22.1188 67.5387 22.0883 66.9375 21.6875C66.745 21.1719 66.5781 20.667 66.4219 20.1406C65.9908 18.7546 65.454 17.5191 64.7475 16.2529C64.4668 15.6118 64.3792 15.2529 64.5 14.5625C64.9167 14.0754 64.9167 14.0754 65.4492 13.6132C65.9832 13.1733 65.9832 13.1733 66.375 12.6875C66.3518 11.7919 65.8618 11.3092 65.2588 10.7085C65.1189 10.5662 65.1189 10.5662 64.9762 10.4211C64.7792 10.2219 64.5812 10.0237 64.3823 9.82644C64.0784 9.52367 63.7798 9.21623 63.4812 8.90816C63.2889 8.71499 63.0962 8.52211 62.9033 8.32955C62.8144 8.23719 62.7255 8.14484 62.6339 8.04968C62.3498 7.76094 62.3498 7.76094 61.875 7.43746C61.2126 7.45546 61.0093 7.55783 60.5229 8.01241C60.2526 8.32422 59.9831 8.63672 59.7143 8.94991C59.25 9.31246 59.25 9.31246 58.6274 9.40768C57.8259 9.29707 57.226 9.01067 56.5312 8.62106C55.2742 7.94758 54.0423 7.4873 52.6714 7.10055C52.125 6.87496 52.125 6.87496 51.8664 6.56368C51.7013 5.94163 51.6695 5.32329 51.6445 4.68356C51.6814 3.83585 51.6814 3.83585 51.375 3.12496C50.8772 3.10603 50.3845 3.09877 49.8867 3.10006C49.663 3.09979 49.663 3.09979 49.4348 3.09952C49.119 3.09939 48.8031 3.09974 48.4872 3.10052C48.002 3.10152 47.5169 3.10053 47.0317 3.09933C46.7256 3.09945 46.4194 3.09969 46.1133 3.10006C45.9672 3.09968 45.8211 3.0993 45.6706 3.09891C44.9985 3.03901 44.9985 3.03901 44.4375 3.31246ZM3.41014 18.3007C3.00633 19.0021 2.97654 19.7438 2.97586 20.5395C2.97526 20.7197 2.97465 20.8998 2.97403 21.0854C2.97432 21.2818 2.97461 21.4782 2.97491 21.6805C2.97448 21.8903 2.97406 22.1001 2.97362 22.3163C2.97243 23.0207 2.97259 23.7252 2.97274 24.4296C2.97218 24.9341 2.97155 25.4385 2.97083 25.943C2.96928 27.1719 2.96876 28.4007 2.96866 29.6296C2.96857 30.6284 2.96818 31.6272 2.96759 32.626C2.96594 35.4577 2.96507 38.2894 2.96521 41.1211C2.96522 41.2738 2.96523 41.4264 2.96523 41.5837C2.96524 41.7365 2.96525 41.8893 2.96526 42.0467C2.96533 44.5242 2.96354 47.0017 2.9609 49.4792C2.9582 52.023 2.95691 54.5668 2.95707 57.1107C2.95713 58.5389 2.95662 59.967 2.9546 61.3952C2.95289 62.611 2.95248 63.8268 2.95376 65.0425C2.95437 65.6628 2.95418 66.283 2.95275 66.9033C2.95131 67.5758 2.95217 68.2481 2.95362 68.9206C2.95266 69.1166 2.95169 69.3126 2.9507 69.5145C2.95752 70.9423 3.10837 71.986 4.12498 73.0625C4.80949 73.5278 5.51311 73.4902 6.31112 73.4857C6.53035 73.4867 6.53035 73.4867 6.754 73.4877C7.24668 73.4894 7.73931 73.4885 8.23198 73.4876C8.58759 73.4883 8.9432 73.4892 9.29881 73.4902C10.2783 73.4925 11.2578 73.4924 12.2374 73.492C13.2929 73.4919 14.3483 73.494 15.4038 73.4958C17.4726 73.4989 19.5413 73.4999 21.61 73.5001C23.291 73.5003 24.972 73.5011 26.653 73.5022C30.6404 73.505 34.6277 73.5073 38.6151 73.5071C38.7427 73.5071 38.8702 73.5071 39.0016 73.5071C39.6482 73.5071 40.2947 73.507 40.9412 73.507C41.0696 73.507 41.198 73.507 41.3303 73.507C41.59 73.507 41.8497 73.5069 42.1093 73.5069C46.15 73.5067 50.1907 73.5095 54.2313 73.5146C58.7694 73.5204 63.3075 73.5236 67.8455 73.5233C70.249 73.5232 72.6524 73.5242 75.0558 73.5282C77.1019 73.5316 79.148 73.5325 81.1941 73.5299C82.2385 73.5287 83.2829 73.5287 84.3273 73.5319C85.2829 73.5348 86.2384 73.5343 87.194 73.5311C87.5402 73.5305 87.8864 73.5312 88.2326 73.5333C88.7024 73.5359 89.1719 73.5339 89.6416 73.5308C89.7768 73.5327 89.912 73.5345 90.0514 73.5364C90.9929 73.5231 91.5201 73.27 92.25 72.6875C92.965 71.9232 93.0232 71.0997 93.0241 70.0854C93.0247 69.9053 93.0253 69.7251 93.0259 69.5396C93.0256 69.3431 93.0253 69.1468 93.025 68.9444C93.0255 68.7346 93.0259 68.5248 93.0263 68.3086C93.0275 67.6042 93.0274 66.8998 93.0272 66.1953C93.0278 65.6909 93.0284 65.1864 93.0291 64.6819C93.0307 63.4531 93.0312 62.2242 93.0313 60.9953C93.0314 59.9965 93.0318 58.9978 93.0324 57.999C93.034 55.1672 93.0349 52.3355 93.0347 49.5038C93.0347 49.3512 93.0347 49.1985 93.0347 49.0413C93.0347 48.8885 93.0347 48.7356 93.0347 48.5782C93.0346 46.1007 93.0364 43.6232 93.0391 41.1458C93.0417 38.6019 93.043 36.0581 93.0429 33.5143C93.0428 32.0861 93.0433 30.6579 93.0454 29.2297C93.0471 28.0139 93.0475 26.7982 93.0462 25.5824C93.0456 24.9621 93.0458 24.3419 93.0472 23.7216C93.0486 23.0492 93.0478 22.3768 93.0463 21.7043C93.0478 21.4104 93.0478 21.4104 93.0492 21.1105C93.0424 19.6826 92.8916 18.6389 91.875 17.5625C91.2871 17.1966 90.8391 17.141 90.1521 17.1424C89.8571 17.1416 89.8571 17.1416 89.5562 17.1408C89.3415 17.1422 89.1268 17.1435 88.9055 17.1449C88.5652 17.1448 88.5652 17.1448 88.218 17.1447C87.5967 17.1449 86.9754 17.1468 86.3541 17.1494C85.7044 17.1518 85.0548 17.152 84.4052 17.1524C83.1754 17.1536 81.9456 17.1567 80.7158 17.1605C79.3156 17.1646 77.9154 17.1667 76.5151 17.1686C73.6351 17.1725 70.755 17.1792 67.875 17.1875C68.1843 18.0537 68.4937 18.92 68.8125 19.8125C79.3003 19.9053 79.3003 19.9053 90 20C90 36.7062 90 53.4125 90 70.625C62.28 70.625 34.56 70.625 5.99998 70.625C5.99998 53.9187 5.99998 37.2125 5.99998 20C12.9919 19.9381 19.9837 19.8762 27.1875 19.8125C27.6515 18.5131 27.6515 18.5131 28.125 17.1875C25.113 17.1701 22.101 17.1567 19.089 17.1486C17.6904 17.1447 16.2919 17.1395 14.8933 17.1309C13.6742 17.1234 12.455 17.1186 11.2358 17.1169C10.5904 17.1159 9.94511 17.1136 9.29973 17.1082C8.5788 17.1021 7.85793 17.102 7.13697 17.1023C6.92361 17.0996 6.71025 17.0969 6.49043 17.0941C5.09178 17.1015 4.38226 17.2616 3.41014 18.3007ZM8.24998 22.25C8.24998 37.4712 8.24998 52.6925 8.24998 68.375C34.485 68.375 60.72 68.375 87.75 68.375C87.75 53.1537 87.75 37.9325 87.75 22.25C82.9237 22.25 78.0975 22.25 73.125 22.25C73.093 24.7292 73.093 24.7292 73.0691 27.2085C73.0636 27.521 73.0578 27.8335 73.0517 28.146C73.0515 28.3062 73.0513 28.4664 73.0511 28.6315C73.0224 29.8346 72.7093 30.5304 71.8506 31.406C71.2619 31.718 70.7399 31.7232 70.0781 31.7539C69.8412 31.7662 69.6044 31.7785 69.3603 31.7912C69.0891 31.8017 69.0891 31.8017 68.8125 31.8125C68.7004 32.1177 68.7004 32.1177 68.5862 32.4292C68.4858 32.7002 68.3855 32.9712 68.2851 33.2421C68.2362 33.3758 68.1872 33.5095 68.1368 33.6472C67.9061 34.268 67.6721 34.841 67.3572 35.4262C67.0917 35.9053 67.0917 35.9053 67.1484 36.3403C67.341 36.7479 67.5706 37.0349 67.875 37.3671C68.6464 38.2165 68.6904 38.7802 68.677 39.9218C68.6037 40.6479 68.3487 41.014 67.875 41.5625C67.6781 41.7919 67.4813 42.0214 67.2846 42.2509C67.1842 42.3681 67.0838 42.4853 66.9804 42.606C66.9044 42.6947 66.8283 42.7835 66.75 42.875C66.8318 42.9563 66.9136 43.0377 66.9978 43.1216C67.847 43.9665 68.6954 44.8122 69.5435 45.6582C69.8603 45.9741 70.1773 46.2898 70.4945 46.6054C70.9497 47.0582 71.4042 47.5117 71.8586 47.9653C72.0012 48.1069 72.1438 48.2485 72.2907 48.3944C72.422 48.5258 72.5534 48.6571 72.6888 48.7925C72.8049 48.9082 72.9211 49.024 73.0408 49.1432C73.6762 49.8314 73.5083 50.6109 73.4934 51.4912C73.4922 51.8352 73.4917 52.1792 73.4915 52.5232C73.4912 53.0661 73.4883 53.6084 73.4762 54.1512C73.3333 56.1953 73.3333 56.1953 74.1013 57.973C74.581 58.2529 75.044 58.4318 75.5625 58.625C76.3831 59.4603 76.5383 60.4239 76.5703 61.5546C76.5575 62.7929 76.3966 63.6851 75.5625 64.625C74.2793 65.661 73.064 65.9044 71.4375 65.75C70.2574 65.4332 69.4895 64.9104 68.8125 63.875C68.2439 62.7655 68.0566 61.7145 68.3379 60.4934C68.6474 59.5372 69.1541 58.7018 69.9375 58.0625C70.373 57.8703 70.8103 57.6824 71.25 57.5C71.6738 55.249 72.1944 52.3609 70.9762 50.2829C69.3716 48.0697 67.1733 46.2752 65.0625 44.5625C64.9743 44.6386 64.886 44.7148 64.7951 44.7933C64.62 44.9441 64.62 44.9441 64.4414 45.0979C64.2684 45.2469 64.2684 45.2469 64.092 45.399C63.1915 46.1584 62.51 46.5829 61.3125 46.625C60.1883 46.4614 59.6401 45.9784 58.8918 45.1748C58.4959 44.8732 58.4959 44.8732 57.9616 45.0576C57.6712 45.1837 57.6712 45.1837 57.375 45.3125C57.0965 45.4256 57.0965 45.4256 56.8125 45.541C56.6269 45.6203 56.4412 45.6995 56.25 45.7812C55.5084 46.0979 54.7678 46.3782 54 46.625C53.993 46.79 53.986 46.9551 53.9787 47.1252C53.9602 47.4519 53.9602 47.4519 53.9414 47.7851C53.9305 48.0005 53.9196 48.2158 53.9084 48.4377C53.7729 49.3201 53.4592 49.7811 52.8493 50.4189C52.1275 50.864 51.4926 50.9171 50.6601 50.9843C50.1535 51.0307 49.6469 51.0771 49.125 51.125C49.125 53.2287 49.125 55.3325 49.125 57.5C49.8675 57.8712 49.8675 57.8712 50.625 58.25C51.0044 58.5774 51.0044 58.5774 51.2578 58.8945C51.3443 58.9987 51.4308 59.1028 51.52 59.2102C52.2495 60.3277 52.2581 61.4537 52.125 62.75C51.7994 63.9216 51.0593 64.709 50.0625 65.375C48.9054 65.9406 47.502 65.9311 46.2773 65.5625C45.247 65.1236 44.5148 64.2286 44.0303 63.2385C43.6697 62.1043 43.677 60.7731 44.1679 59.6796C44.7699 58.6514 45.6383 58.0246 46.6875 57.5C46.6875 55.3962 46.6875 53.2925 46.6875 51.125C45.6975 51.0012 44.7075 50.8775 43.6875 50.75C42.4845 49.9537 42.4845 49.9537 42.1875 49.0625C42.1454 48.6451 42.111 48.227 42.082 47.8086C42.0663 47.5874 42.0506 47.3662 42.0344 47.1384C42.023 46.969 42.0117 46.7995 42 46.625C41.6947 46.5129 41.6947 46.5129 41.3833 46.3986C41.1123 46.2983 40.8413 46.198 40.5703 46.0976C40.4366 46.0487 40.303 45.9997 40.1653 45.9493C39.5395 45.7168 38.9719 45.4843 38.3862 45.1579C37.9002 44.884 37.9002 44.884 37.4743 45.0539C37.1111 45.3227 36.7581 45.5983 36.4101 45.8867C35.7051 46.4174 35.2185 46.6409 34.3125 46.625C32.8734 46.3955 32.0605 45.6356 31.125 44.5625C30.8395 44.8094 30.554 45.0563 30.2687 45.3035C29.9275 45.5907 29.58 45.8704 29.2296 46.1461C26.0312 48.5872 26.0312 48.5872 24.4542 52.1137C24.3193 53.915 24.4845 55.7176 24.75 57.5C24.8521 57.5481 24.9543 57.5963 25.0596 57.6459C25.194 57.7109 25.3285 57.7758 25.467 57.8427C25.6001 57.9064 25.7332 57.97 25.8704 58.0355C26.8254 58.575 27.3222 59.479 27.6548 60.4882C27.9929 61.8616 27.6906 63.0388 27 64.25C26.1992 65.1923 25.331 65.6612 24.0996 65.8034C22.7539 65.8771 21.7233 65.606 20.625 64.8125C19.5144 63.6457 19.431 62.52 19.4502 60.9724C19.5163 60.0965 19.6651 59.4776 20.25 58.8125C20.8936 58.2923 21.5731 57.8697 22.3125 57.5C22.3113 57.2749 22.3101 57.0499 22.3089 56.8181C22.3061 55.9779 22.3121 55.138 22.3205 54.2979C22.3229 53.9353 22.3231 53.5727 22.3209 53.2101C22.3024 49.8059 22.3024 49.8059 22.9922 48.9921C23.2617 48.7609 23.536 48.5353 23.8125 48.3125C24.1379 47.994 24.4551 47.6684 24.7729 47.3423C25.1324 46.9742 25.4957 46.6104 25.8607 46.2478C25.9841 46.1251 26.1075 46.0025 26.2346 45.8762C26.3596 45.752 26.4845 45.6279 26.6133 45.5C26.8693 45.2449 27.1253 44.9898 27.3812 44.7346C28.0036 44.1142 28.6266 43.4944 29.25 42.875C29.0718 42.6669 28.8935 42.4589 28.7153 42.2509C28.6161 42.1351 28.5168 42.0193 28.4146 41.8999C28.1701 41.6151 27.925 41.3309 27.6797 41.0468C27.2353 40.1581 27.2525 39.3506 27.375 38.375C27.6444 37.7227 27.9286 37.4455 28.4531 36.9687C28.5923 36.814 28.7315 36.6593 28.875 36.5C28.8111 35.6925 28.4624 34.9951 28.1367 34.2617C27.7789 33.4537 27.4538 32.6553 27.1875 31.8125C27.0132 31.812 26.8389 31.8115 26.6594 31.811C24.4069 31.7405 24.4069 31.7405 23.4631 30.7944C23.0871 30.2749 23.0373 29.7876 23.024 29.1679C23.0202 29.0119 23.0164 28.8559 23.0125 28.6952C23.0079 28.4505 23.0079 28.4505 23.0032 28.2009C22.9997 28.0503 22.9962 27.8998 22.9926 27.7447C22.9798 27.1826 22.9685 26.6206 22.957 26.0586C22.9299 24.8017 22.9029 23.5449 22.875 22.25C18.0487 22.25 13.2225 22.25 8.24998 22.25ZM21.9375 60.5C21.6359 61.1031 21.635 61.7227 21.75 62.375C22.2978 63.0526 22.7093 63.4518 23.5781 63.5703C24.4194 63.4732 24.7458 63.1819 25.3125 62.5625C25.5363 61.8251 25.584 61.4445 25.2773 60.7343C24.725 60.0487 24.4376 59.7818 23.5429 59.6679C22.7717 59.7626 22.4804 59.9571 21.9375 60.5ZM46.5 60.3125C46.0633 60.9155 46.0642 61.4579 46.125 62.1875C46.296 62.7316 46.4683 62.9128 46.9219 63.2656C47.5459 63.5492 47.884 63.6107 48.5625 63.5C49.1103 63.156 49.5811 62.7752 49.875 62.1875C49.9522 61.3183 49.8515 60.8179 49.3125 60.125C48.3779 59.4482 47.3719 59.6343 46.5 60.3125ZM70.6875 60.6875C70.4636 61.4249 70.416 61.8054 70.7226 62.5156C71.2282 63.1432 71.5384 63.4583 72.3515 63.582C73.0856 63.4792 73.4857 63.206 74.0625 62.75C74.3626 62.1496 74.3436 61.5264 74.25 60.875C73.9137 60.3481 73.6839 60.0294 73.125 59.75C71.984 59.6183 71.455 59.8286 70.6875 60.6875ZM37.5 75.875C37.5 78.7831 37.5 81.6912 37.5 84.6875C44.43 84.6875 51.36 84.6875 58.5 84.6875C58.5 81.7793 58.5 78.8712 58.5 75.875C57.3243 75.875 56.1487 75.875 54.9375 75.875C54.1604 76.7542 54.1604 76.7542 53.6059 77.6855C52.7505 79.1923 51.1305 79.9898 49.5168 80.4848C47.5021 80.884 45.6441 80.4825 43.957 79.3554C42.762 78.4426 41.7379 77.2259 41.0625 75.875C39.8869 75.875 38.7112 75.875 37.5 75.875ZM44.0625 75.875C44.6017 76.9535 45.3694 77.6359 46.4883 78.1015C47.6485 78.4771 48.7276 78.438 49.8567 77.9734C50.6438 77.5263 51.327 76.9155 51.9375 76.25C51.9375 76.1262 51.9375 76.0025 51.9375 75.875C49.3387 75.875 46.74 75.875 44.0625 75.875ZM26.0625 87.875C25.5419 88.9162 25.6875 89.6136 25.6875 90.875C40.4137 90.875 55.14 90.875 70.3125 90.875C70.3815 88.9352 70.3815 88.9352 69.4594 87.3749C68.7703 87 68.0866 87.0469 67.3216 87.0523C67.1501 87.0513 66.9786 87.0503 66.8019 87.0492C66.226 87.0465 65.6502 87.0479 65.0742 87.0492C64.6619 87.0481 64.2495 87.0468 63.8371 87.0453C62.716 87.0419 61.5949 87.0422 60.4738 87.0432C59.5386 87.0438 58.6034 87.0427 57.6682 87.0415C55.3361 87.0387 53.004 87.0394 50.672 87.0417C48.6466 87.0436 46.6213 87.0411 44.5959 87.0367C42.5163 87.0321 40.4367 87.0303 38.3571 87.0315C37.1895 87.0322 36.022 87.0317 34.8544 87.0285C33.7566 87.0256 32.6589 87.0263 31.5612 87.0298C31.1579 87.0305 30.7547 87.0299 30.3514 87.028C29.8016 87.0255 29.252 87.0277 28.7022 87.031C28.4619 87.0283 28.4619 87.0283 28.2168 87.0255C27.2638 87.0374 26.7482 87.1491 26.0625 87.875Z" fill="white"/>
</svg>
